<?xml version="1.0" encoding="utf-8"?>
<!-- Generator: Adobe Illustrator 16.0.4, SVG Export Plug-In . SVG Version: 6.00 Build 0)  -->
<!DOCTYPE svg PUBLIC "-//W3C//DTD SVG 1.1//EN" "http://www.w3.org/Graphics/SVG/1.1/DTD/svg11.dtd">
<svg version="1.1" id="Layer_1" xmlns="http://www.w3.org/2000/svg" xmlns:xlink="http://www.w3.org/1999/xlink" x="0px" y="0px"
	 width="126.614px" height="72px" viewBox="0 0 126.614 72" enable-background="new 0 0 126.614 72" xml:space="preserve">
<polygon fill="#DADFE1" points="6.067,24.173 6.067,25.565 61.29,24.59 55.919,27.157 6.067,27.157 6.067,28.553 55.046,27.578 
	49.679,30.145 6.067,30.145 6.067,31.538 48.8,30.567 43.438,33.133 6.067,33.133 6.067,34.525 42.552,33.556 37.2,36.119 
	6.067,36.119 6.067,37.511 36.303,36.548 30.96,39.104 6.067,39.104 6.067,40.497 30.046,39.541 24.72,42.09 6.067,42.09 
	6.067,43.482 23.776,42.542 18.479,45.076 6.067,45.076 6.067,46.471 17.473,45.558 12.239,48.062 6.067,48.062 6.067,49.454 
	10.978,48.666 6.067,51.016 118.252,51.016 113.342,48.666 118.252,49.454 118.252,48.062 112.08,48.062 106.846,45.558 
	118.252,46.471 118.252,45.076 105.84,45.076 100.543,42.542 118.252,43.482 118.252,42.09 99.601,42.09 94.272,39.541 
	118.252,40.497 118.252,39.104 93.358,39.104 88.017,36.548 118.252,37.511 118.252,36.119 87.121,36.119 81.767,33.556 
	118.252,34.525 118.252,33.133 80.881,33.133 75.521,30.567 118.252,31.538 118.252,30.145 74.64,30.145 69.274,27.578 
	118.252,28.553 118.252,27.157 68.399,27.157 63.028,24.59 118.252,25.565 118.252,24.173 "/>
<polygon fill="#DADFE1" points="6.069,50.975 118.254,50.975 62.161,24.214 "/>
<polygon fill="#DADFE1" points="13.01,6.725 13.01,11.325 7.327,11.325 7.327,6.725 5.259,6.725 5.259,18.276 7.327,18.276 
	7.327,13.104 13.01,13.104 13.01,18.276 15.061,18.276 15.061,6.725 "/>
<g>
	<defs>
		<rect id="SVGID_17_" x="5.259" y="6.333" width="112.995" height="58.657"/>
	</defs>
	<clipPath id="SVGID_2_">
		<use xlink:href="#SVGID_17_"  overflow="visible"/>
	</clipPath>
	<path clip-path="url(#SVGID_2_)" fill="#DADFE1" d="M38.806,11.994c1.852,0,2.776-0.668,2.776-1.843
		c0-1.272-0.993-1.779-2.959-1.779h-0.774v3.622H38.806z M35.8,6.725h2.756c1.514,0,2.689,0.098,3.715,0.799
		c0.892,0.604,1.396,1.518,1.396,2.464c0,1.518-0.925,2.66-2.606,3.214l3.851,5.075h-2.437l-3.616-4.797h-1.009v4.797H35.8V6.725z"
		/>
	<path clip-path="url(#SVGID_2_)" fill="#DADFE1" d="M55.022,18.651c-1.362,0-2.657-0.441-3.701-1.258
		c-1.461-1.141-2.303-2.871-2.303-4.894c0-3.556,2.607-6.167,6.055-6.167c1.259,0,2.402,0.359,3.495,1.094l-0.218,2.251
		c-0.941-0.979-1.967-1.469-3.145-1.469c-2.32,0-4.033,1.729-4.033,4.274c0,2.431,1.629,4.193,3.914,4.193
		c1.329,0,2.475-0.572,3.633-1.713l-0.117,2.562C57.544,18.259,56.317,18.651,55.022,18.651"/>
	<path clip-path="url(#SVGID_2_)" fill="#DADFE1" d="M69.032,16.693c2.101,0,3.783-1.762,3.783-4.192
		c0-2.448-1.666-4.193-3.783-4.193c-2.119,0-3.767,1.763-3.767,4.193C65.266,14.915,66.93,16.693,69.032,16.693 M64.341,8.699
		c1.127-1.501,2.859-2.35,4.691-2.35c1.563,0,3.076,0.62,4.186,1.763c1.127,1.157,1.732,2.675,1.732,4.389
		c0,1.713-0.605,3.229-1.732,4.373c-1.126,1.141-2.622,1.776-4.186,1.776s-3.045-0.618-4.17-1.762
		c-1.144-1.158-1.748-2.66-1.748-4.388C63.114,11.063,63.534,9.775,64.341,8.699"/>
	<path clip-path="url(#SVGID_2_)" fill="#DADFE1" d="M81.461,13.462c0,2.235,0.993,3.377,2.894,3.377
		c1.865,0,2.856-1.158,2.856-3.426V6.724h1.866v6.723c0,3.377-1.932,5.205-4.773,5.205c-3.111,0-4.961-1.796-4.961-5.173V6.724
		h2.118V13.462z"/>
	<path clip-path="url(#SVGID_2_)" fill="#DADFE1" d="M97.615,11.994c1.849,0,2.774-0.668,2.774-1.843
		c0-1.272-0.993-1.779-2.959-1.779h-0.774v3.622H97.615z M94.605,6.725h2.757c1.514,0,2.689,0.098,3.715,0.799
		c0.893,0.604,1.396,1.518,1.396,2.464c0,1.518-0.926,2.66-2.605,3.214l3.848,5.075h-2.437l-3.614-4.797h-1.009v4.797h-2.051V6.725z
		"/>
</g>
<polygon fill="#DADFE1" points="106.974,6.724 106.974,8.486 110.992,8.486 110.992,18.274 113.095,18.274 113.095,8.486 
	117.095,8.486 117.095,6.724 "/>
<g>
	<defs>
		<rect id="SVGID_19_" x="5.259" y="6.333" width="112.995" height="58.657"/>
	</defs>
	<clipPath id="SVGID_4_">
		<use xlink:href="#SVGID_19_"  overflow="visible"/>
	</clipPath>
	<path clip-path="url(#SVGID_4_)" fill="#DADFE1" d="M7.37,63.434c2.045,0,3.174-1.043,3.174-2.642c0-1.61-1.129-2.641-3.174-2.641
		H6.647v5.282H7.37z M5.259,56.912H7.19c3.082,0,4.787,1.555,4.787,3.88c0,1.438-0.677,2.575-1.976,3.298
		c-0.847,0.472-1.74,0.581-2.812,0.581H5.259V56.912z"/>
</g>
<polygon fill="#DADFE1" points="29.825,56.912 27.589,62.009 25.353,56.912 23.862,56.912 27.487,64.99 27.599,64.99 31.237,56.912 
	"/>
<polygon fill="#DADFE1" points="34.684,56.912 34.684,64.672 39.393,64.672 39.393,63.467 36.05,63.467 36.05,61.198 38.872,61.198 
	38.872,60.013 36.05,60.013 36.05,58.107 39.335,58.107 39.335,56.912 "/>
<g>
	<defs>
		<rect id="SVGID_21_" x="5.259" y="6.333" width="112.995" height="58.657"/>
	</defs>
	<clipPath id="SVGID_6_">
		<use xlink:href="#SVGID_21_"  overflow="visible"/>
	</clipPath>
	<path clip-path="url(#SVGID_6_)" fill="#DADFE1" d="M55.375,63.609c1.413,0,2.541-1.184,2.541-2.817
		c0-1.643-1.117-2.816-2.541-2.816c-1.423,0-2.528,1.184-2.528,2.816C52.847,62.415,53.964,63.609,55.375,63.609 M52.226,58.239
		c0.756-1.008,1.92-1.578,3.149-1.578c1.051,0,2.067,0.418,2.813,1.184c0.756,0.777,1.162,1.796,1.162,2.947
		s-0.406,2.17-1.162,2.938c-0.758,0.769-1.763,1.193-2.813,1.193c-1.05,0-2.044-0.416-2.8-1.182
		c-0.768-0.779-1.176-1.787-1.176-2.949C51.399,59.828,51.681,58.962,52.226,58.239"/>
	<path clip-path="url(#SVGID_6_)" fill="#DADFE1" d="M64.817,60.496c1.242,0,1.864-0.45,1.864-1.239
		c0-0.854-0.667-1.193-1.989-1.193h-0.508v2.433H64.817z M62.795,56.912h1.853c1.028,0,1.817,0.088,2.496,0.56
		c0.598,0.416,0.938,1.062,0.938,1.731c0,1.49-1.176,2.444-3.299,2.444h-0.303h-0.295v3.023h-1.39V56.912z"/>
</g>
<polygon fill="#DADFE1" points="78.392,56.66 75.544,62.336 72.687,56.66 72.597,56.66 70.96,64.672 72.258,64.672 73.127,60.288 
	75.478,64.934 75.601,64.934 77.858,60.288 78.728,64.672 80.106,64.672 78.481,56.66 "/>
<polygon fill="#DADFE1" points="83.835,56.912 83.835,64.672 88.546,64.672 88.546,63.467 85.203,63.467 85.203,61.198 
	88.026,61.198 88.026,60.013 85.203,60.013 85.203,58.107 88.489,58.107 88.489,56.912 "/>
<polygon fill="#DADFE1" points="92.558,56.66 92.558,64.672 93.913,64.672 93.913,59.74 99.073,64.924 99.222,64.924 99.222,56.912 
	97.854,56.912 97.854,61.845 92.706,56.66 "/>
<polygon fill="#DADFE1" points="102.382,56.912 102.382,58.096 105.081,58.096 105.081,64.672 106.493,64.672 106.493,58.096 
	109.181,58.096 109.181,56.912 "/>
<g>
	<defs>
		<rect id="SVGID_23_" x="5.259" y="6.333" width="112.995" height="58.657"/>
	</defs>
	<clipPath id="SVGID_8_">
		<use xlink:href="#SVGID_23_"  overflow="visible"/>
	</clipPath>
	<path clip-path="url(#SVGID_8_)" fill="#DADFE1" d="M114.272,63.741c0.868,0,1.411-0.472,1.411-1.086
		c0-0.581-0.372-0.952-1.174-1.413l-0.599-0.352c-1.107-0.636-1.684-1.238-1.684-2.191c0-1.194,0.96-2.05,2.43-2.05
		c0.698,0,1.344,0.154,2.01,0.471l-0.045,1.238c-0.746-0.394-1.356-0.613-1.863-0.613c-0.758,0-1.186,0.362-1.186,0.888
		c0,0.483,0.361,0.789,1.094,1.205l0.576,0.329c1.221,0.701,1.854,1.382,1.854,2.456c0,1.348-1.039,2.311-2.758,2.311
		c-0.754,0-1.489-0.152-2.156-0.459l-0.124-1.522C112.884,63.467,113.595,63.741,114.272,63.741"/>
</g>
<polygon fill="#DADFE1" points="15.909,56.912 15.909,64.672 20.618,64.672 20.618,63.467 17.274,63.467 17.274,61.198 
	20.099,61.198 20.099,60.013 17.274,60.013 17.274,58.107 20.56,58.107 20.56,56.912 "/>
<polygon fill="#DADFE1" points="43.894,56.912 43.894,64.672 48.728,64.672 48.728,63.456 45.294,63.456 45.294,56.912 "/>
<polygon fill="#DADFE1" points="25.304,6.349 19.452,18.275 21.571,18.275 25.286,10.539 28.919,18.275 31.122,18.275 25.473,6.349 
	"/>
</svg>
