<?xml version="1.0" encoding="utf-8"?>
<!-- Generator: Adobe Illustrator 16.0.4, SVG Export Plug-In . SVG Version: 6.00 Build 0)  -->
<!DOCTYPE svg PUBLIC "-//W3C//DTD SVG 1.1//EN" "http://www.w3.org/Graphics/SVG/1.1/DTD/svg11.dtd">
<svg version="1.1" id="Layer_1" xmlns="http://www.w3.org/2000/svg" xmlns:xlink="http://www.w3.org/1999/xlink" x="0px" y="0px"
	 width="1276.53px" height="171.57px" viewBox="0 0 1276.53 171.57" enable-background="new 0 0 1276.53 171.57"
	 xml:space="preserve">
<g>
	<defs>
		<rect id="SVGID_1_" x="584.424" y="479.151" width="93.608" height="93.646"/>
	</defs>
	<clipPath id="SVGID_2_">
		<use xlink:href="#SVGID_1_"  overflow="visible"/>
	</clipPath>
	<path clip-path="url(#SVGID_2_)" fill="#5B707C" d="M588.351,525.986c-0.076,23.568,19.058,42.778,42.699,42.879
		c23.763,0.095,42.96-19.001,43.05-42.821c0.093-23.407-18.901-42.938-43.039-42.943
		C607.579,483.092,588.429,502.264,588.351,525.986 M630.932,479.151c26.666,0.064,47.062,21.235,47.101,46.646
		c0.036,26.548-21.172,46.963-46.609,46.999c-26.613,0.034-47.014-21.239-46.998-46.704
		C584.44,499.554,605.618,479.399,630.932,479.151"/>
	<path clip-path="url(#SVGID_2_)" fill="#5B707C" d="M651.044,536.416c-0.974-0.935-1.094-1.812-0.601-3.075
		c4.799-12.303-3.138-25.805-16.251-27.732c-3.544-0.521-7.035-0.248-10.33,1.18c-1.28,0.556-2.134,0.297-3.011-0.568
		c6.443-3.915,17.347-4.029,25.194,2.9C654.442,516.532,655.593,528.167,651.044,536.416"/>
	<path clip-path="url(#SVGID_2_)" fill="#5B707C" d="M641.623,545.793c-7.155,4.146-18.157,3.723-25.756-3.43
		c-7.907-7.447-8.885-18.784-4.445-26.799c0.767,0.861,1.169,1.611,0.661,2.901c-4.771,12.137,2.622,25.42,15.442,27.806
		c3.786,0.7,7.545,0.432,11.106-1.088C639.901,544.643,640.774,544.859,641.623,545.793"/>
	<path clip-path="url(#SVGID_2_)" fill="#5B707C" d="M593.351,521.185c1.769-0.3,1.766-0.3,2.127,1.26
		c0.348,1.478,0.7,2.948,1.282,4.457c0.166-0.518,0.342-1.035,0.492-1.556c0.332-1.156,0.696-2.299,0.956-3.474
		c0.156-0.7,0.521-0.854,1.165-0.83c0.604,0.022,1.018,0.065,1.193,0.805c0.402,1.691,0.92,3.354,1.597,5.044
		c0.367-1.465,0.738-2.929,1.105-4.392c0.388-1.563,0.388-1.563,2.092-1.346c-0.113,0.462-0.212,0.918-0.334,1.366
		c-0.602,2.225-1.209,4.446-1.814,6.668c-0.368,1.333-0.372,1.333-1.961,1.212c-0.576-2.061-1.165-4.154-1.753-6.25
		c-0.087,0.003-0.173,0.003-0.26,0.003c-0.485,1.756-1.02,3.509-1.445,5.285c-0.193,0.811-0.565,1.206-1.382,0.999
		c-0.272-0.07-0.644-0.314-0.708-0.556C594.897,527.014,594.141,524.128,593.351,521.185"/>
	<path clip-path="url(#SVGID_2_)" fill="#5B707C" d="M629.862,497.779h-1.699v-9.269c0.928-0.315,1.614-0.168,2.185,0.769
		c1.015,1.666,2.145,3.26,3.356,5.068c0.062-0.426,0.121-0.653,0.123-0.881c0.01-1.466,0.03-2.928-0.002-4.396
		c-0.012-0.594,0.278-0.731,0.781-0.695c0.428,0.03,0.977-0.147,0.973,0.595c-0.015,2.864-0.03,5.725-0.05,8.587
		c0,0.056-0.058,0.112-0.094,0.171c-0.94,0.275-1.61,0.066-2.165-0.857c-1-1.656-2.137-3.231-3.408-4.789V497.779z"/>
	<path clip-path="url(#SVGID_2_)" fill="#5B707C" d="M669.094,528.575v1.614h-7.073v-9.211h6.835v1.483h-4.99v2.117h4.54
		c0.499,1.4,0.325,1.662-1.007,1.662h-3.559v2.334H669.094z"/>
	<path clip-path="url(#SVGID_2_)" fill="#5B707C" d="M635.675,557.057c-0.573,0.065-1.072,0.123-1.548,0.178
		c-0.715-1.574-1.65-2.083-2.948-1.562c-0.324,0.132-0.669,0.544-0.723,0.869c-0.035,0.216,0.396,0.639,0.698,0.746
		c0.85,0.313,1.749,0.484,2.611,0.769c1.539,0.502,2.235,1.473,2.12,2.863c-0.108,1.275-1.121,2.382-2.568,2.528
		c-0.946,0.096-1.963,0.06-2.873-0.191c-1.451-0.402-2.176-1.658-2.046-3.199c0.485-0.06,0.988-0.121,1.476-0.18
		c0.536,1.756,1.764,2.472,3.314,1.887c0.391-0.149,0.887-0.617,0.909-0.959c0.021-0.325-0.454-0.849-0.827-0.999
		c-0.896-0.367-1.881-0.508-2.795-0.834c-1.385-0.496-1.986-1.439-1.763-2.761c0.077-0.453,0.28-0.97,0.594-1.289
		c1.184-1.213,2.679-1.206,4.181-0.821C634.883,554.46,635.554,555.467,635.675,557.057"/>
	<path clip-path="url(#SVGID_2_)" fill="#5B707C" d="M631.461,531.005c-2.586,0-4.681-2.1-4.681-4.683
		c0-2.584,2.095-4.683,4.681-4.683s4.681,2.099,4.681,4.683C636.142,528.906,634.047,531.005,631.461,531.005 M658.484,552.953
		c-7.002-10.737-13.999-21.474-21.02-32.203c-0.271-0.417-0.677-0.788-1.1-1.065c-8.983-5.88-17.978-11.743-26.966-17.608
		c-1.838-1.201-3.682-2.395-5.522-3.59c-0.04,0.041-0.081,0.083-0.12,0.123c0.136,0.238,0.256,0.482,0.406,0.709
		c6.951,10.656,13.896,21.311,20.863,31.956c0.275,0.418,0.689,0.784,1.113,1.058c10.617,6.945,21.247,13.869,31.879,20.8
		c0.196,0.126,0.409,0.225,0.827,0.446C658.641,553.219,658.571,553.084,658.484,552.953"/>
</g>
<g>
	<defs>
		<rect id="SVGID_3_" x="21.322" width="1255.208" height="160.954"/>
	</defs>
	<clipPath id="SVGID_4_">
		<use xlink:href="#SVGID_3_"  overflow="visible"/>
	</clipPath>
	<path clip-path="url(#SVGID_4_)" fill="#FFFFFF" d="M1090.282,79.509c3.856,0,6.981-3.127,6.981-6.982
		c0-3.856-3.125-6.982-6.981-6.982s-6.981,3.126-6.981,6.982C1083.301,76.382,1086.426,79.509,1090.282,79.509"/>
	
		<circle clip-path="url(#SVGID_4_)" fill="none" stroke="#CD181F" stroke-width="1.0847" stroke-miterlimit="10" cx="1090.282" cy="72.527" r="6.982"/>
</g>
<text transform="matrix(0.7071 -0.7071 0.7071 0.7071 1056.5 84.8726)"><tspan x="0" y="0" fill="#4D4D4F" font-family="'Futura-Book'" font-size="9.762">B</tspan><tspan x="5.936" y="0" fill="#4D4D4F" font-family="'Futura-Book'" font-size="9.762">ú</tspan><tspan x="11.314" y="0" fill="#4D4D4F" font-family="'Futura-Book'" font-size="9.762">sara</tspan><tspan x="31.306" y="0" fill="#4D4D4F" font-family="'Futura-Book'" font-size="9.762">s</tspan></text>
<text transform="matrix(0.7071 -0.7071 0.7071 0.7071 1095.9277 58.709)"><tspan x="0" y="0" fill="#4D4D4F" font-family="'Futura-Book'" font-size="9.762">C</tspan><tspan x="7.38" y="-0.001" fill="#4D4D4F" font-family="'Futura-Book'" font-size="9.762">onnoll</tspan><tspan x="35.436" y="0" fill="#4D4D4F" font-family="'Futura-Book'" font-size="9.762">y</tspan></text>
<text transform="matrix(0.7071 -0.7071 0.7071 0.7071 976.1777 83.022)"><tspan x="0" y="0" fill="#4D4D4F" font-family="'Futura-Book'" font-size="9.762">J</tspan><tspan x="3.446" y="0" fill="#4D4D4F" font-family="'Futura-Book'" font-size="9.762">e</tspan><tspan x="8.902" y="0" fill="#4D4D4F" font-family="'Futura-Book'" font-size="9.762">r</tspan><tspan x="12.944" y="0" fill="#4D4D4F" font-family="'Futura-Book'" font-size="9.762">v</tspan><tspan x="17.845" y="0" fill="#4D4D4F" font-family="'Futura-Book'" font-size="9.762">i</tspan><tspan x="20.792" y="0" fill="#4D4D4F" font-family="'Futura-Book'" font-size="9.762">s</tspan></text>
<text transform="matrix(0.7071 -0.7071 0.7071 0.7071 1016.9258 84.6851)"><tspan x="0" y="0" fill="#4D4D4F" font-family="'Futura-Book'" font-size="9.762">Abb</tspan><tspan x="19.26" y="0" fill="#4D4D4F" font-family="'Futura-Book'" font-size="9.762">e</tspan><tspan x="24.707" y="0" fill="#4D4D4F" font-family="'Futura-Book'" font-size="9.762">y Stree</tspan><tspan x="56.512" y="0" fill="#4D4D4F" font-family="'Futura-Book'" font-size="9.762">t</tspan></text>
<text transform="matrix(0.7071 -0.7071 0.7071 0.7071 936.2725 82.5034)"><tspan x="0" y="0" fill="#4D4D4F" font-family="'Futura-Book'" font-size="9.762">F</tspan><tspan x="5.047" y="0" fill="#4D4D4F" font-family="'Futura-Book'" font-size="9.762">our </tspan><tspan x="23.37" y="0" fill="#4D4D4F" font-family="'Futura-Book'" font-size="9.762">C</tspan><tspan x="30.751" y="0" fill="#4D4D4F" font-family="'Futura-Book'" font-size="9.762">ou</tspan><tspan x="42.016" y="0" fill="#4D4D4F" font-family="'Futura-Book'" font-size="9.762">r</tspan><tspan x="45.861" y="0" fill="#4D4D4F" font-family="'Futura-Book'" font-size="9.762">t</tspan><tspan x="48.595" y="0" fill="#4D4D4F" font-family="'Futura-Book'" font-size="9.762">s</tspan></text>
<text transform="matrix(0.7071 -0.7071 0.7071 0.7071 854.1924 84.3462)"><tspan x="0" y="0" fill="#4D4D4F" font-family="'Futura-Book'" font-size="9.762">M</tspan><tspan x="9.128" y="0" fill="#4D4D4F" font-family="'Futura-Book'" font-size="9.762">use</tspan><tspan x="24.259" y="0" fill="#4D4D4F" font-family="'Futura-Book'" font-size="9.762">u</tspan><tspan x="29.638" y="0" fill="#4D4D4F" font-family="'Futura-Book'" font-size="9.762">m</tspan></text>
<text transform="matrix(0.7071 -0.7071 0.7071 0.7071 895.4092 84.8364)"><tspan x="0" y="0" fill="#4D4D4F" font-family="'Futura-Book'" font-size="9.762">Sm</tspan><tspan x="13.735" y="0" fill="#4D4D4F" font-family="'Futura-Book'" font-size="9.762">i</tspan><tspan x="16.673" y="0" fill="#4D4D4F" font-family="'Futura-Book'" font-size="9.762">thf</tspan><tspan x="28.016" y="0" fill="#4D4D4F" font-family="'Futura-Book'" font-size="9.762">i</tspan><tspan x="30.954" y="0" fill="#4D4D4F" font-family="'Futura-Book'" font-size="9.762">el</tspan><tspan x="39.018" y="0" fill="#4D4D4F" font-family="'Futura-Book'" font-size="9.762">d</tspan></text>
<text transform="matrix(0.7071 -0.7071 0.7071 0.7071 608.0527 85.686)"><tspan x="0" y="0" fill="#4D4D4F" font-family="'Futura-Book'" font-size="9.762">Golde</tspan><tspan x="28.359" y="0" fill="#4D4D4F" font-family="'Futura-Book'" font-size="9.762">n</tspan><tspan x="33.894" y="0" fill="#4D4D4F" font-family="'Futura-Book'" font-size="9.762">bridg</tspan><tspan x="58.601" y="0" fill="#4D4D4F" font-family="'Futura-Book'" font-size="9.762">e</tspan></text>
<text transform="matrix(0.7071 -0.7071 0.7071 0.7071 404.2954 84.4434)"><tspan x="0" y="0" fill="#4D4D4F" font-family="'Futura-Book'" font-size="9.762">Red</tspan><tspan x="17.162" y="0" fill="#4D4D4F" font-family="'Futura-Book'" font-size="9.762"> C</tspan><tspan x="27.929" y="0" fill="#4D4D4F" font-family="'Futura-Book'" font-size="9.762">o</tspan><tspan x="33.806" y="0" fill="#4D4D4F" font-family="'Futura-Book'" font-size="9.762">w</tspan></text>
<text transform="matrix(0.7071 -0.7071 0.7071 0.7071 526.3584 85.9136)"><tspan x="0" y="0" fill="#4D4D4F" font-family="'Futura-Book'" font-size="9.762">B</tspan><tspan x="5.925" y="0" fill="#4D4D4F" font-family="'Futura-Book'" font-size="9.762">la</tspan><tspan x="14.554" y="0" fill="#4D4D4F" font-family="'Futura-Book'" font-size="9.762">c</tspan><tspan x="19.582" y="0" fill="#4D4D4F" font-family="'Futura-Book'" font-size="9.762">kh</tspan><tspan x="30.105" y="0" fill="#4D4D4F" font-family="'Futura-Book'" font-size="9.762">o</tspan><tspan x="35.973" y="0" fill="#4D4D4F" font-family="'Futura-Book'" font-size="9.762">rs</tspan><tspan x="43.919" y="0" fill="#4D4D4F" font-family="'Futura-Book'" font-size="9.762">e</tspan></text>
<text transform="matrix(0.7071 -0.7071 0.7071 0.7071 323.6792 84.2158)"><tspan x="0" y="0" fill="#4D4D4F" font-family="'Futura-Book'" font-size="9.762">B</tspan><tspan x="5.925" y="0" fill="#4D4D4F" font-family="'Futura-Book'" font-size="9.762">elg</tspan><tspan x="20.041" y="0" fill="#4D4D4F" font-family="'Futura-Book'" font-size="9.762">a</tspan><tspan x="26.055" y="0" fill="#4D4D4F" font-family="'Futura-Book'" font-size="9.762">r</tspan><tspan x="29.715" y="0" fill="#4D4D4F" font-family="'Futura-Book'" font-size="9.762">d</tspan></text>
<text transform="matrix(0.7071 -0.7071 0.7071 0.7071 53.7783 85.9556)"><tspan x="0" y="0" fill="#4D4D4F" font-family="'Futura-Book'" font-size="9.762">Sagga</tspan><tspan x="29.998" y="0" fill="#4D4D4F" font-family="'Futura-Book'" font-size="9.762">r</tspan><tspan x="33.844" y="0" fill="#4D4D4F" font-family="'Futura-Book'" font-size="9.762">t</tspan></text>
<text transform="matrix(0.7071 -0.7071 0.7071 0.7071 178.2827 86.4033)"><tspan x="0" y="0" fill="#4D4D4F" font-family="'Futura-Book'" font-size="9.762">C</tspan><tspan x="7.39" y="0" fill="#4D4D4F" font-family="'Futura-Book'" font-size="9.762">h</tspan><tspan x="12.925" y="0" fill="#4D4D4F" font-family="'Futura-Book'" font-size="9.762">e</tspan><tspan x="18.382" y="0" fill="#4D4D4F" font-family="'Futura-Book'" font-size="9.762">e</tspan><tspan x="23.829" y="0" fill="#4D4D4F" font-family="'Futura-Book'" font-size="9.762">v</tspan><tspan x="28.739" y="0" fill="#4D4D4F" font-family="'Futura-Book'" font-size="9.762">e</tspan><tspan x="34.187" y="0" fill="#4D4D4F" font-family="'Futura-Book'" font-size="9.762">rsto</tspan><tspan x="50.743" y="0" fill="#4D4D4F" font-family="'Futura-Book'" font-size="9.762">w</tspan><tspan x="58.543" y="0" fill="#4D4D4F" font-family="'Futura-Book'" font-size="9.762">n</tspan></text>
<text transform="matrix(0.7071 -0.7071 0.7071 0.7071 814.0303 86.0591)"><tspan x="0" y="0" fill="#4D4D4F" font-family="'Futura-Book'" font-size="9.762">Heusto</tspan><tspan x="31.102" y="0" fill="#4D4D4F" font-family="'Futura-Book'" font-size="9.762">n</tspan></text>
<text transform="matrix(0.7071 -0.7071 0.7071 0.7071 95.0571 85.0723)"><tspan x="0" y="0" fill="#4D4D4F" font-family="'Futura-Book'" font-size="9.762">Fo</tspan><tspan x="10.933" y="0" fill="#4D4D4F" font-family="'Futura-Book'" font-size="9.762">r</tspan><tspan x="14.779" y="0" fill="#4D4D4F" font-family="'Futura-Book'" font-size="9.762">tu</tspan><tspan x="22.901" y="0" fill="#4D4D4F" font-family="'Futura-Book'" font-size="9.762">n</tspan><tspan x="28.436" y="0" fill="#4D4D4F" font-family="'Futura-Book'" font-size="9.762">esto</tspan><tspan x="46.789" y="0" fill="#4D4D4F" font-family="'Futura-Book'" font-size="9.762">w</tspan><tspan x="54.588" y="0" fill="#4D4D4F" font-family="'Futura-Book'" font-size="9.762">n</tspan></text>
<text transform="matrix(0.7071 -0.7071 0.7071 0.7071 729.8311 86.5566)"><tspan x="0" y="0" fill="#4D4D4F" font-family="'Futura-Book'" font-size="9.762">F</tspan><tspan x="5.047" y="0" fill="#4D4D4F" font-family="'Futura-Book'" font-size="9.762">atim</tspan><tspan x="24.639" y="0" fill="#4D4D4F" font-family="'Futura-Book'" font-size="9.762">a</tspan></text>
<text transform="matrix(0.7071 -0.7071 0.7071 0.7071 570.3013 85.8174)"><tspan x="0" y="0" fill="#4D4D4F" font-family="'Futura-Book'" font-size="9.762">D</tspan><tspan x="6.999" y="0" fill="#4D4D4F" font-family="'Futura-Book'" font-size="9.762">r</tspan><tspan x="10.66" y="0" fill="#4D4D4F" font-family="'Futura-Book'" font-size="9.762">i</tspan><tspan x="13.599" y="0" fill="#4D4D4F" font-family="'Futura-Book'" font-size="9.762">m</tspan><tspan x="21.486" y="0" fill="#4D4D4F" font-family="'Futura-Book'" font-size="9.762">n</tspan><tspan x="27.021" y="0" fill="#4D4D4F" font-family="'Futura-Book'" font-size="9.762">ag</tspan><tspan x="39.097" y="0" fill="#4D4D4F" font-family="'Futura-Book'" font-size="9.762">h</tspan></text>
<text transform="matrix(0.7071 -0.7071 0.7071 0.7071 650.2627 85.5679)"><tspan x="0" y="0" fill="#4D4D4F" font-family="'Futura-Book'" font-size="9.762">Su</tspan><tspan x="11.236" y="0" fill="#4D4D4F" font-family="'Futura-Book'" font-size="9.762">i</tspan><tspan x="14.174" y="0" fill="#4D4D4F" font-family="'Futura-Book'" font-size="9.762">r</tspan><tspan x="17.835" y="0" fill="#4D4D4F" font-family="'Futura-Book'" font-size="9.762"> </tspan><tspan x="21.223" y="0" fill="#4D4D4F" font-family="'Futura-Book'" font-size="9.762">Roa</tspan><tspan x="38.804" y="0" fill="#4D4D4F" font-family="'Futura-Book'" font-size="9.762">d</tspan></text>
<text transform="matrix(0.7071 -0.7071 0.7071 0.7071 689.6514 84.8521)"><tspan x="0" y="0" fill="#4D4D4F" font-family="'Futura-Book'" font-size="9.762">R</tspan><tspan x="5.682" y="0" fill="#4D4D4F" font-family="'Futura-Book'" font-size="9.762">i</tspan><tspan x="8.62" y="0" fill="#4D4D4F" font-family="'Futura-Book'" font-size="9.762">alt</tspan><tspan x="19.983" y="0" fill="#4D4D4F" font-family="'Futura-Book'" font-size="9.762">o</tspan></text>
<text transform="matrix(0.7071 -0.7071 0.7071 0.7071 218.8584 83.9741)"><tspan x="0" y="0" fill="#4D4D4F" font-family="'Futura-Book'" font-size="9.762">F</tspan><tspan x="5.057" y="0" fill="#4D4D4F" font-family="'Futura-Book'" font-size="9.762">e</tspan><tspan x="10.504" y="0" fill="#4D4D4F" font-family="'Futura-Book'" font-size="9.762">tter</tspan><tspan x="25.088" y="0" fill="#4D4D4F" font-family="'Futura-Book'" font-size="9.762">ca</tspan><tspan x="36.129" y="0" fill="#4D4D4F" font-family="'Futura-Book'" font-size="9.762">i</tspan><tspan x="39.077" y="0" fill="#4D4D4F" font-family="'Futura-Book'" font-size="9.762">r</tspan><tspan x="42.806" y="0" fill="#4D4D4F" font-family="'Futura-Book'" font-size="9.762">n</tspan></text>
<text transform="matrix(0.7071 -0.7071 0.7071 0.7071 442.4536 84.7471)"><tspan x="0" y="0" fill="#4D4D4F" font-family="'Futura-Book'" font-size="9.762">K</tspan><tspan x="6.345" y="0" fill="#4D4D4F" font-family="'Futura-Book'" font-size="9.762">ylem</tspan><tspan x="27.548" y="0" fill="#4D4D4F" font-family="'Futura-Book'" font-size="9.762">o</tspan><tspan x="33.415" y="0" fill="#4D4D4F" font-family="'Futura-Book'" font-size="9.762">r</tspan><tspan x="37.076" y="0" fill="#4D4D4F" font-family="'Futura-Book'" font-size="9.762">e</tspan></text>
<text transform="matrix(0.7071 -0.7071 0.7071 0.7071 137.4678 86.2866)"><tspan x="0" y="0" fill="#4D4D4F" font-family="'Futura-Book'" font-size="9.762">C</tspan><tspan x="7.39" y="0" fill="#4D4D4F" font-family="'Futura-Book'" font-size="9.762">i</tspan><tspan x="10.328" y="0" fill="#4D4D4F" font-family="'Futura-Book'" font-size="9.762">tyw</tspan><tspan x="26.123" y="0" fill="#4D4D4F" font-family="'Futura-Book'" font-size="9.762">e</tspan><tspan x="31.57" y="0" fill="#4D4D4F" font-family="'Futura-Book'" font-size="9.762">st</tspan><tspan x="38.588" y="0" fill="#4D4D4F" font-family="'Futura-Book'" font-size="9.762"> </tspan><tspan x="41.976" y="0" fill="#4D4D4F" font-family="'Futura-Book'" font-size="9.762">C</tspan><tspan x="49.366" y="0" fill="#4D4D4F" font-family="'Futura-Book'" font-size="9.762">a</tspan><tspan x="55.379" y="0" fill="#4D4D4F" font-family="'Futura-Book'" font-size="9.762">m</tspan><tspan x="63.267" y="0" fill="#4D4D4F" font-family="'Futura-Book'" font-size="9.762">pu</tspan><tspan x="74.659" y="0" fill="#4D4D4F" font-family="'Futura-Book'" font-size="9.762">s</tspan></text>
<text transform="matrix(0.7071 -0.7071 0.7071 0.7071 363.2778 84.6221)"><tspan x="0" y="0" fill="#4D4D4F" font-family="'Futura-Book'" font-size="9.762">Ki</tspan><tspan x="9.284" y="0" fill="#4D4D4F" font-family="'Futura-Book'" font-size="9.762">ngs</tspan><tspan x="25.166" y="0" fill="#4D4D4F" font-family="'Futura-Book'" font-size="9.762">w</tspan><tspan x="32.966" y="0" fill="#4D4D4F" font-family="'Futura-Book'" font-size="9.762">o</tspan><tspan x="38.843" y="0" fill="#4D4D4F" font-family="'Futura-Book'" font-size="9.762">o</tspan><tspan x="44.709" y="0" fill="#4D4D4F" font-family="'Futura-Book'" font-size="9.762">d</tspan></text>
<text transform="matrix(0.7071 -0.7071 0.7071 0.7071 484.8232 85.0229)"><tspan x="0" y="0" fill="#4D4D4F" font-family="'Futura-Book'" font-size="9.762">B</tspan><tspan x="5.925" y="0" fill="#4D4D4F" font-family="'Futura-Book'" font-size="9.762">lu</tspan><tspan x="13.92" y="0" fill="#4D4D4F" font-family="'Futura-Book'" font-size="9.762">eb</tspan><tspan x="25.381" y="0" fill="#4D4D4F" font-family="'Futura-Book'" font-size="9.762">el</tspan><tspan x="33.445" y="0" fill="#4D4D4F" font-family="'Futura-Book'" font-size="9.762">l</tspan></text>
<text transform="matrix(0.7071 -0.7071 0.7071 0.7071 771.5879 83.7607)"><tspan x="0" y="0" fill="#4D4D4F" font-family="'Futura-Book'" font-size="9.762">J</tspan><tspan x="3.446" y="0" fill="#4D4D4F" font-family="'Futura-Book'" font-size="9.762">am</tspan><tspan x="17.357" y="-0.001" fill="#4D4D4F" font-family="'Futura-Book'" font-size="9.762">e</tspan><tspan x="22.803" y="-0.001" fill="#4D4D4F" font-family="'Futura-Book'" font-size="9.762">s&apos;</tspan><tspan x="30.301" y="0" fill="#4D4D4F" font-family="'Futura-Book'" font-size="9.762">s</tspan></text>
<text transform="matrix(0.7071 -0.7071 0.7071 0.7071 1221.4473 85.8096)"><tspan x="0" y="0" fill="#4D4D4F" font-family="'Futura-Book'" font-size="9.762">T</tspan><tspan x="4.978" y="0" fill="#4D4D4F" font-family="'Futura-Book'" font-size="9.762">h</tspan><tspan x="10.514" y="0" fill="#4D4D4F" font-family="'Futura-Book'" font-size="9.762">e P</tspan><tspan x="24.668" y="0" fill="#4D4D4F" font-family="'Futura-Book'" font-size="9.762">oin</tspan><tspan x="39.009" y="0.001" fill="#4D4D4F" font-family="'Futura-Book'" font-size="9.762">t</tspan></text>
<text transform="matrix(0.7071 -0.7071 0.7071 0.7071 1182.1924 83.9268)"><tspan x="0" y="0" fill="#4D4D4F" font-family="'Futura-Book'" font-size="9.762">Sp</tspan><tspan x="11.871" y="0" fill="#4D4D4F" font-family="'Futura-Book'" font-size="9.762">e</tspan><tspan x="17.318" y="0" fill="#4D4D4F" font-family="'Futura-Book'" font-size="9.762">n</tspan><tspan x="22.862" y="0" fill="#4D4D4F" font-family="'Futura-Book'" font-size="9.762">ce</tspan><tspan x="33.337" y="-0.001" fill="#4D4D4F" font-family="'Futura-Book'" font-size="9.762">r</tspan><tspan x="36.998" y="0" fill="#4D4D4F" font-family="'Futura-Book'" font-size="9.762"> </tspan><tspan x="40.385" y="0" fill="#4D4D4F" font-family="'Futura-Book'" font-size="9.762">Do</tspan><tspan x="53.271" y="0" fill="#4D4D4F" font-family="'Futura-Book'" font-size="9.762">c</tspan><tspan x="58.298" y="0" fill="#4D4D4F" font-family="'Futura-Book'" font-size="9.762">k</tspan></text>
<text transform="matrix(0.7071 -0.7071 0.7071 0.7071 1138.4004 83.5967)"><tspan x="0" y="0" fill="#4D4D4F" font-family="'Futura-Book'" font-size="9.762">M</tspan><tspan x="9.127" y="0" fill="#4D4D4F" font-family="'Futura-Book'" font-size="9.762">ay</tspan><tspan x="20.402" y="0" fill="#4D4D4F" font-family="'Futura-Book'" font-size="9.762">o</tspan><tspan x="26.269" y="0" fill="#4D4D4F" font-family="'Futura-Book'" font-size="9.762">r</tspan><tspan x="29.93" y="0" fill="#4D4D4F" font-family="'Futura-Book'" font-size="9.762"> </tspan><tspan x="33.318" y="0" fill="#4D4D4F" font-family="'Futura-Book'" font-size="9.762">S</tspan><tspan x="39.165" y="0" fill="#4D4D4F" font-family="'Futura-Book'" font-size="9.762">q</tspan><tspan x="45.178" y="0" fill="#4D4D4F" font-family="'Futura-Book'" font-size="9.762">u</tspan><tspan x="50.567" y="0.001" fill="#4D4D4F" font-family="'Futura-Book'" font-size="9.762">a</tspan><tspan x="56.581" y="0" fill="#4D4D4F" font-family="'Futura-Book'" font-size="9.762">r</tspan><tspan x="60.241" y="0" fill="#4D4D4F" font-family="'Futura-Book'" font-size="9.762">e</tspan><tspan x="65.688" y="0.001" fill="#4D4D4F" font-family="'Futura-Book'" font-size="9.762"> -</tspan><tspan x="71.506" y="0" fill="#4D4D4F" font-family="'Futura-Book'" font-size="9.762"> </tspan><tspan x="74.894" y="0" fill="#4D4D4F" font-family="'Futura-Book'" font-size="9.762">N</tspan><tspan x="83.426" y="0" fill="#4D4D4F" font-family="'Futura-Book'" font-size="9.762">C</tspan><tspan x="90.806" y="0.001" fill="#4D4D4F" font-family="'Futura-Book'" font-size="9.762">I</tspan></text>
<text transform="matrix(0.7071 -0.7071 0.7071 0.7071 1105.04 84.7622)"><tspan x="0" y="0" fill="#4D4D4F" font-family="'Futura-Book'" font-size="9.762">Ge</tspan><tspan x="13.852" y="0" fill="#4D4D4F" font-family="'Futura-Book'" font-size="9.762">o</tspan><tspan x="19.719" y="0" fill="#4D4D4F" font-family="'Futura-Book'" font-size="9.762">rg</tspan><tspan x="29.432" y="0" fill="#4D4D4F" font-family="'Futura-Book'" font-size="9.762">e</tspan><tspan x="34.879" y="0" fill="#4D4D4F" font-family="'Futura-Book'" font-size="9.762">&apos;s </tspan><tspan x="45.774" y="0" fill="#4D4D4F" font-family="'Futura-Book'" font-size="9.762">D</tspan><tspan x="52.773" y="0" fill="#4D4D4F" font-family="'Futura-Book'" font-size="9.762">oc</tspan><tspan x="63.687" y="0" fill="#4D4D4F" font-family="'Futura-Book'" font-size="9.762">k</tspan></text>
<g>
	<defs>
		<rect id="SVGID_5_" x="21.322" width="1255.208" height="160.954"/>
	</defs>
	<clipPath id="SVGID_6_">
		<use xlink:href="#SVGID_5_"  overflow="visible"/>
	</clipPath>
	<path clip-path="url(#SVGID_6_)" fill="#5B717C" d="M54.377,153.752c9.655,0,17.483-7.829,17.483-17.484
		c0-9.656-7.828-17.482-17.483-17.482c-9.656,0-17.484,7.826-17.484,17.482C36.893,145.923,44.721,153.752,54.377,153.752"/>
	
		<circle clip-path="url(#SVGID_6_)" fill="none" stroke="#CBBDA8" stroke-width="0.4653" stroke-miterlimit="10" cx="54.377" cy="136.269" r="17.483"/>
</g>
<g>
	<defs>
		<rect id="SVGID_7_" x="29.77" y="112.403" width="49.36" height="47.73"/>
	</defs>
	<clipPath id="SVGID_8_">
		<use xlink:href="#SVGID_7_"  overflow="visible"/>
	</clipPath>
	<path clip-path="url(#SVGID_8_)" fill="#DADFE1" d="M44.74,140.454c-0.103,0.032-0.206,0.061-0.315,0.083
		c-0.108,0.023-0.223,0.041-0.342,0.053c-0.121,0.013-0.252,0.02-0.394,0.02c-0.174,0-0.342-0.012-0.502-0.039
		c-0.162-0.026-0.312-0.063-0.45-0.115c-0.14-0.05-0.265-0.115-0.377-0.19c-0.114-0.076-0.211-0.164-0.292-0.265
		c-0.08-0.101-0.142-0.214-0.187-0.341c-0.043-0.126-0.065-0.265-0.065-0.416s0.021-0.29,0.065-0.416
		c0.044-0.126,0.107-0.239,0.187-0.341c0.081-0.1,0.178-0.188,0.292-0.265c0.112-0.077,0.237-0.14,0.377-0.191
		c0.139-0.05,0.288-0.088,0.449-0.115c0.159-0.024,0.328-0.038,0.503-0.038c0.142,0,0.273,0.008,0.394,0.021
		c0.12,0.012,0.234,0.03,0.342,0.053c0.109,0.023,0.213,0.049,0.315,0.082c0.101,0.031,0.203,0.066,0.306,0.104v0.287
		c-0.081-0.046-0.169-0.088-0.262-0.129c-0.094-0.042-0.195-0.078-0.303-0.108c-0.108-0.03-0.222-0.054-0.346-0.072
		c-0.125-0.019-0.255-0.028-0.396-0.028c-0.283,0-0.528,0.029-0.736,0.083c-0.208,0.055-0.38,0.133-0.514,0.233
		c-0.137,0.099-0.236,0.222-0.301,0.364c-0.065,0.143-0.099,0.303-0.099,0.478c0,0.176,0.034,0.335,0.099,0.477
		c0.064,0.141,0.164,0.263,0.301,0.362c0.134,0.101,0.306,0.179,0.514,0.232c0.208,0.055,0.453,0.082,0.736,0.082
		c0.142,0,0.275-0.008,0.399-0.025c0.125-0.019,0.243-0.043,0.352-0.075c0.111-0.03,0.212-0.066,0.303-0.105
		c0.093-0.04,0.178-0.083,0.253-0.127v0.285C44.942,140.387,44.84,140.422,44.74,140.454"/>
	<path clip-path="url(#SVGID_8_)" fill="#DADFE1" d="M44.71,140.361c-0.098,0.033-0.2,0.058-0.305,0.081
		c-0.105,0.021-0.219,0.04-0.334,0.052c-0.116,0.012-0.244,0.02-0.383,0.02c-0.171,0-0.333-0.013-0.488-0.038
		c-0.157-0.026-0.3-0.063-0.432-0.111c-0.132-0.049-0.251-0.108-0.358-0.18c-0.106-0.07-0.195-0.152-0.27-0.246
		c-0.074-0.092-0.13-0.195-0.17-0.312c-0.04-0.116-0.062-0.243-0.062-0.386c0-0.14,0.021-0.268,0.062-0.383
		c0.04-0.117,0.096-0.22,0.17-0.312c0.075-0.093,0.164-0.175,0.27-0.246c0.107-0.072,0.226-0.131,0.358-0.18
		c0.132-0.05,0.275-0.086,0.43-0.111c0.156-0.023,0.318-0.038,0.49-0.038c0.139,0,0.267,0.006,0.383,0.02
		c0.115,0.012,0.229,0.029,0.334,0.052c0.104,0.021,0.208,0.049,0.305,0.079c0.099,0.03,0.199,0.065,0.301,0.102l0.034-0.089H44.95
		v0.286h0.095l0.046-0.083c-0.084-0.048-0.174-0.093-0.271-0.134c-0.096-0.042-0.201-0.08-0.313-0.111
		c-0.113-0.033-0.232-0.057-0.36-0.077c-0.128-0.018-0.264-0.027-0.409-0.027c-0.289,0-0.542,0.027-0.761,0.086
		c-0.216,0.057-0.398,0.138-0.547,0.248c-0.145,0.107-0.257,0.242-0.33,0.401c-0.072,0.156-0.106,0.33-0.106,0.517
		c0,0.19,0.034,0.362,0.106,0.518c0.073,0.158,0.185,0.292,0.33,0.401c0.149,0.109,0.332,0.191,0.548,0.248
		c0.219,0.056,0.472,0.084,0.761,0.084c0.145,0,0.282-0.009,0.412-0.028c0.129-0.018,0.252-0.043,0.366-0.074
		c0.112-0.033,0.218-0.069,0.315-0.111s0.183-0.086,0.263-0.134l-0.049-0.081H44.95v0.285h0.095l-0.034-0.09
		C44.91,140.296,44.81,140.331,44.71,140.361l0.059,0.183c0.102-0.033,0.205-0.066,0.31-0.106l0.062-0.023v-0.52l-0.145,0.086
		c-0.073,0.042-0.152,0.083-0.242,0.121c-0.088,0.04-0.185,0.074-0.291,0.103c-0.105,0.029-0.219,0.053-0.34,0.07
		c-0.12,0.018-0.249,0.026-0.386,0.026c-0.277,0-0.515-0.027-0.712-0.078c-0.199-0.052-0.357-0.125-0.482-0.216
		c-0.123-0.092-0.212-0.199-0.27-0.327c-0.059-0.128-0.089-0.271-0.089-0.438c0-0.162,0.03-0.308,0.089-0.437
		c0.059-0.127,0.147-0.234,0.27-0.328c0.125-0.09,0.283-0.164,0.483-0.215c0.196-0.052,0.435-0.08,0.711-0.08
		c0.137,0,0.264,0.008,0.383,0.026c0.118,0.017,0.231,0.039,0.334,0.069c0.104,0.03,0.201,0.063,0.29,0.103
		c0.091,0.041,0.174,0.083,0.254,0.127l0.142,0.08v-0.518l-0.062-0.023c-0.105-0.039-0.208-0.075-0.311-0.106
		c-0.104-0.032-0.212-0.061-0.324-0.083c-0.111-0.024-0.229-0.042-0.353-0.055c-0.123-0.014-0.258-0.021-0.403-0.021
		c-0.181,0-0.354,0.013-0.519,0.039c-0.167,0.028-0.322,0.065-0.467,0.119c-0.145,0.055-0.278,0.122-0.398,0.201
		c-0.121,0.081-0.225,0.176-0.312,0.285c-0.088,0.111-0.155,0.233-0.203,0.371c-0.047,0.138-0.07,0.287-0.07,0.445
		c0,0.162,0.022,0.31,0.07,0.448c0.048,0.137,0.115,0.261,0.203,0.369c0.087,0.109,0.191,0.205,0.312,0.286
		c0.12,0.081,0.254,0.147,0.398,0.2c0.145,0.053,0.301,0.093,0.468,0.12c0.167,0.026,0.338,0.04,0.518,0.04
		c0.145,0,0.28-0.006,0.403-0.021c0.123-0.012,0.241-0.031,0.353-0.054c0.112-0.023,0.22-0.052,0.325-0.086L44.71,140.361z"/>
	<path clip-path="url(#SVGID_8_)" fill="#DADFE1" d="M47.98,137.325l-0.944,0.357l-0.084-0.149l0.92-0.408L47.98,137.325z
		 M48.613,140.089c-0.062,0.108-0.155,0.201-0.279,0.278c-0.125,0.077-0.279,0.136-0.466,0.178
		c-0.185,0.043-0.402,0.064-0.651,0.064c-0.247,0-0.463-0.021-0.649-0.064c-0.187-0.042-0.342-0.102-0.466-0.178
		c-0.125-0.077-0.219-0.17-0.28-0.278c-0.063-0.108-0.093-0.228-0.093-0.359v-1.805h0.268v1.824c0,0.089,0.025,0.171,0.079,0.25
		c0.053,0.079,0.13,0.147,0.234,0.206c0.103,0.058,0.229,0.105,0.382,0.14c0.151,0.035,0.328,0.051,0.527,0.051
		c0.2,0,0.376-0.017,0.526-0.051c0.153-0.035,0.28-0.082,0.383-0.14c0.103-0.059,0.181-0.127,0.233-0.206
		c0.053-0.079,0.078-0.161,0.078-0.25v-1.824h0.27v1.805C48.707,139.861,48.674,139.98,48.613,140.089"/>
	<path clip-path="url(#SVGID_8_)" fill="#DADFE1" d="M47.98,137.326l-0.034-0.09l-0.868,0.327l-0.043-0.077l-0.084,0.046
		l0.039,0.088l0.838-0.372l0.066,0.124L47.98,137.326l-0.034-0.09L47.98,137.326l0.085-0.046l-0.153-0.279l-1.096,0.487l0.176,0.312
		l1.125-0.423l-0.053-0.097L47.98,137.326z M48.529,140.041c-0.051,0.093-0.133,0.175-0.246,0.244
		c-0.112,0.071-0.257,0.127-0.436,0.167c-0.177,0.041-0.386,0.061-0.629,0.061c-0.242,0-0.452-0.02-0.629-0.061
		c-0.178-0.04-0.324-0.096-0.437-0.167c-0.113-0.069-0.193-0.151-0.247-0.244c-0.053-0.093-0.081-0.194-0.081-0.311v-1.709h0.077
		v1.727c0,0.108,0.033,0.211,0.094,0.304c0.063,0.093,0.153,0.172,0.266,0.236c0.113,0.065,0.249,0.115,0.408,0.15
		c0.16,0.036,0.343,0.054,0.548,0.054s0.388-0.018,0.549-0.054c0.157-0.036,0.294-0.085,0.407-0.15
		c0.113-0.064,0.203-0.143,0.265-0.236c0.062-0.093,0.095-0.196,0.094-0.304v-1.727h0.077v1.709
		C48.609,139.846,48.583,139.948,48.529,140.041l0.167,0.096c0.07-0.122,0.106-0.261,0.105-0.406l0.001-1.9h-0.461v1.918
		c0,0.07-0.019,0.132-0.062,0.198c-0.042,0.063-0.107,0.122-0.201,0.176c-0.092,0.053-0.211,0.096-0.356,0.129
		c-0.142,0.033-0.31,0.05-0.504,0.05c-0.194,0-0.365-0.017-0.506-0.05c-0.145-0.033-0.264-0.076-0.355-0.129
		c-0.094-0.054-0.158-0.112-0.201-0.176c-0.044-0.065-0.062-0.128-0.062-0.198v-1.918h-0.46v1.9c0,0.146,0.035,0.284,0.106,0.406
		c0.07,0.125,0.177,0.228,0.312,0.312c0.136,0.084,0.302,0.147,0.494,0.19c0.197,0.045,0.419,0.067,0.672,0.067
		c0.254,0,0.478-0.022,0.672-0.067c0.195-0.043,0.359-0.106,0.495-0.19c0.135-0.083,0.239-0.187,0.312-0.312L48.529,140.041z"/>
</g>
<rect x="49.584" y="137.925" fill="#DADFE1" width="0.268" height="2.632"/>
<path fill="#DADFE1" d="M49.757,140.46H49.68v-2.44h0.077V140.46z M49.488,137.83v0.095h0.096h-0.096v2.729h0.461v-2.824H49.488z"/>
<polygon fill="#DADFE1" points="50.758,140.557 50.758,137.926 51.027,137.926 51.027,140.332 53.182,140.332 53.182,140.557 "/>
<polygon fill="#DADFE1" points="50.758,140.557 50.854,140.557 50.854,138.021 50.932,138.021 50.932,140.429 53.087,140.429 
	53.087,140.462 50.758,140.462 50.758,140.557 50.854,140.557 50.758,140.557 50.758,140.652 53.279,140.652 53.279,140.237 
	51.123,140.237 51.123,137.83 50.663,137.83 50.663,140.652 50.758,140.652 "/>
<g>
	<defs>
		<rect id="SVGID_9_" x="29.77" y="112.403" width="49.36" height="47.73"/>
	</defs>
	<clipPath id="SVGID_10_">
		<use xlink:href="#SVGID_9_"  overflow="visible"/>
	</clipPath>
	<path clip-path="url(#SVGID_10_)" fill="#DADFE1" d="M58.264,139.24c0-0.143-0.015-0.27-0.046-0.38
		c-0.032-0.109-0.077-0.204-0.136-0.286c-0.059-0.082-0.129-0.149-0.215-0.203c-0.085-0.056-0.179-0.1-0.286-0.133
		c-0.106-0.033-0.221-0.06-0.346-0.073c-0.124-0.013-0.256-0.021-0.396-0.021h-1.252v2.196h1.252c0.21,0,0.402-0.017,0.576-0.051
		c0.176-0.034,0.325-0.092,0.45-0.177c0.126-0.083,0.224-0.194,0.293-0.336C58.229,139.632,58.264,139.455,58.264,139.24
		 M58.539,139.24c0,0.168-0.019,0.318-0.059,0.449c-0.04,0.131-0.095,0.245-0.167,0.341c-0.071,0.098-0.158,0.18-0.261,0.248
		c-0.102,0.067-0.215,0.122-0.341,0.162c-0.125,0.042-0.26,0.072-0.409,0.09c-0.146,0.019-0.301,0.027-0.463,0.027h-1.521v-2.63
		h1.518c0.241,0,0.466,0.02,0.675,0.062c0.206,0.042,0.386,0.115,0.54,0.216c0.153,0.1,0.271,0.236,0.358,0.405
		C58.496,138.779,58.539,138.988,58.539,139.24"/>
	<path clip-path="url(#SVGID_10_)" fill="#DADFE1" d="M58.36,139.24c0-0.15-0.017-0.286-0.052-0.406
		c-0.033-0.12-0.081-0.225-0.149-0.316c-0.065-0.092-0.147-0.168-0.24-0.228c-0.092-0.061-0.194-0.109-0.309-0.144
		c-0.113-0.036-0.234-0.063-0.365-0.077c-0.127-0.015-0.264-0.022-0.407-0.022h-1.347v2.386h1.347c0.215,0,0.415-0.017,0.596-0.052
		c0.185-0.036,0.348-0.099,0.485-0.19c0.139-0.094,0.25-0.221,0.326-0.374C58.324,139.658,58.36,139.466,58.36,139.24h-0.191
		c0,0.205-0.034,0.367-0.096,0.492c-0.062,0.127-0.149,0.226-0.261,0.3c-0.112,0.076-0.251,0.13-0.415,0.163
		c-0.168,0.031-0.355,0.048-0.56,0.048h-1.156v-2.002h1.156c0.136,0,0.265,0.006,0.387,0.019c0.119,0.014,0.228,0.037,0.328,0.069
		c0.099,0.031,0.185,0.072,0.263,0.122c0.074,0.047,0.137,0.108,0.188,0.18c0.051,0.071,0.092,0.155,0.121,0.257
		c0.029,0.099,0.043,0.217,0.043,0.353H58.36z M58.443,139.24c0,0.161-0.018,0.3-0.055,0.421c-0.036,0.122-0.086,0.225-0.151,0.312
		c-0.065,0.087-0.143,0.163-0.238,0.224c-0.094,0.062-0.2,0.112-0.317,0.151c-0.12,0.04-0.249,0.067-0.391,0.085
		c-0.142,0.02-0.293,0.028-0.452,0.028h-1.425v-2.441h1.422c0.236,0,0.455,0.02,0.655,0.061c0.198,0.041,0.365,0.108,0.506,0.201
		c0.139,0.094,0.246,0.214,0.327,0.37C58.402,138.804,58.443,138.998,58.443,139.24h0.192c0-0.264-0.045-0.489-0.139-0.674
		c-0.095-0.182-0.226-0.331-0.392-0.442c-0.164-0.107-0.355-0.185-0.574-0.23c-0.215-0.043-0.446-0.064-0.693-0.064h-1.614v2.822
		h1.617c0.167,0,0.325-0.008,0.476-0.028c0.152-0.018,0.294-0.05,0.426-0.092c0.132-0.044,0.254-0.102,0.364-0.175
		c0.112-0.073,0.208-0.164,0.286-0.271c0.08-0.106,0.138-0.23,0.181-0.371c0.043-0.142,0.063-0.299,0.063-0.476H58.443z"/>
	<path clip-path="url(#SVGID_10_)" fill="#DADFE1" d="M61.46,137.325l-0.945,0.357l-0.083-0.149l0.917-0.408L61.46,137.325z
		 M62.092,140.089c-0.062,0.108-0.156,0.201-0.28,0.278c-0.124,0.077-0.279,0.136-0.465,0.178c-0.186,0.043-0.403,0.064-0.65,0.064
		c-0.248,0-0.464-0.021-0.651-0.064c-0.186-0.042-0.342-0.102-0.465-0.178c-0.125-0.077-0.218-0.17-0.28-0.278
		c-0.062-0.108-0.094-0.228-0.094-0.359v-1.805h0.269v1.824c0,0.089,0.026,0.171,0.08,0.25c0.052,0.079,0.128,0.147,0.231,0.206
		c0.103,0.058,0.23,0.105,0.384,0.14c0.151,0.035,0.327,0.051,0.527,0.051c0.199,0,0.375-0.017,0.526-0.051
		c0.152-0.035,0.279-0.082,0.381-0.14c0.104-0.059,0.183-0.127,0.234-0.206c0.052-0.079,0.078-0.161,0.078-0.25v-1.824h0.269v1.805
		C62.185,139.861,62.154,139.98,62.092,140.089"/>
	<path clip-path="url(#SVGID_10_)" fill="#DADFE1" d="M61.46,137.326l-0.036-0.09l-0.866,0.327l-0.044-0.077l-0.082,0.046
		l0.038,0.088l0.839-0.372l0.067,0.124L61.46,137.326l-0.036-0.09L61.46,137.326l0.083-0.046l-0.151-0.279l-1.096,0.487l0.175,0.312
		l1.124-0.423l-0.052-0.097L61.46,137.326z M62.008,140.041c-0.053,0.093-0.133,0.175-0.248,0.244
		c-0.112,0.071-0.256,0.127-0.435,0.167c-0.176,0.041-0.385,0.061-0.628,0.061c-0.242,0-0.452-0.02-0.629-0.061
		c-0.178-0.04-0.324-0.096-0.438-0.167c-0.114-0.069-0.193-0.151-0.246-0.244c-0.054-0.093-0.082-0.194-0.082-0.311v-1.709h0.078
		v1.727c-0.001,0.108,0.032,0.211,0.094,0.304s0.152,0.172,0.265,0.236c0.114,0.065,0.251,0.115,0.407,0.15
		c0.162,0.036,0.345,0.054,0.551,0.054c0.203,0,0.387-0.018,0.546-0.054c0.161-0.036,0.296-0.085,0.41-0.15
		c0.113-0.064,0.203-0.143,0.264-0.236c0.063-0.093,0.096-0.195,0.096-0.304v-1.727h0.076v1.709
		C62.088,139.846,62.063,139.948,62.008,140.041l0.167,0.096c0.07-0.122,0.106-0.261,0.106-0.406v-1.9h-0.46v1.918
		c0,0.07-0.02,0.132-0.062,0.198c-0.042,0.063-0.106,0.122-0.202,0.176c-0.091,0.053-0.21,0.096-0.354,0.129
		c-0.144,0.033-0.312,0.05-0.506,0.05c-0.195,0-0.364-0.017-0.507-0.05c-0.144-0.033-0.263-0.076-0.356-0.129
		c-0.093-0.054-0.159-0.112-0.2-0.176c-0.044-0.065-0.062-0.128-0.062-0.198v-1.918h-0.461v1.9c0,0.146,0.036,0.284,0.106,0.406
		c0.072,0.125,0.178,0.228,0.314,0.312c0.135,0.084,0.3,0.147,0.495,0.19c0.194,0.045,0.418,0.067,0.671,0.067
		c0.252,0,0.477-0.022,0.671-0.067c0.195-0.043,0.359-0.106,0.495-0.19c0.136-0.083,0.241-0.187,0.312-0.312L62.008,140.041z"/>
</g>
<rect x="63.063" y="137.925" fill="#DADFE1" width="0.267" height="2.632"/>
<path fill="#DADFE1" d="M63.236,140.46H63.16v-2.44h0.076V140.46z M62.968,137.83v0.095h0.095h-0.095v2.729h0.459v-2.824H62.968z"/>
<polygon fill="#DADFE1" points="67.069,140.557 64.506,138.239 64.506,140.557 64.237,140.557 64.237,137.926 64.534,137.926 
	67.097,140.25 67.097,137.926 67.363,137.926 67.363,140.557 "/>
<polygon fill="#DADFE1" points="67.069,140.557 67.133,140.486 64.41,138.023 64.41,140.462 64.333,140.462 64.333,138.021 
	64.497,138.021 67.193,140.467 67.193,138.021 67.266,138.021 67.266,140.462 67.069,140.462 67.069,140.557 67.133,140.486 
	67.069,140.557 67.069,140.652 67.458,140.652 67.458,137.83 67.001,137.83 67.001,140.033 64.571,137.83 64.142,137.83 
	64.142,140.652 64.602,140.652 64.602,138.454 67.032,140.652 67.069,140.652 "/>
<g>
	<defs>
		<rect id="SVGID_11_" x="29.77" y="112.403" width="49.36" height="47.73"/>
	</defs>
	<clipPath id="SVGID_12_">
		<use xlink:href="#SVGID_11_"  overflow="visible"/>
	</clipPath>
	<path clip-path="url(#SVGID_12_)" fill="#DADFE1" d="M43.76,124.023c0.643,0.279,1.144,0.57,1.348,0.873
		c0.664,0.978,1.889,2.866,2.482,3.042c0.595,0.174,1.982-0.269,2.833-0.244c1.189,0.033,4.757,0.14,5.386,0.488
		c0,0-5.037-0.104-5.386-0.104c-0.35,0-2.029,0.314-2.168,0.454c-0.14,0.141-0.386,0.14-0.174,0.386
		c0.208,0.244,0.979,1.013,1.328,1.013s3.811-0.419,4.475-0.175c0,0-2.868,0.141-3.706,0.421l2.553,0.769
		c0,0,2.729-1.399,4.965-0.455c0,0-3.146-0.524-4.616,0.628c-1.468,1.155-0.07,0-0.07,0s-0.455,0.176-0.734,0.036
		c-0.28-0.14-3.112-0.91-3.112-0.91l0.874,1.399l-1.224-1.504c0,0-1.853-1.712-2.027-2.132c-0.176-0.42-1.819-2.308-2.239-2.764
		c-0.137-0.15-0.727-0.364-1.471-0.591L43.76,124.023z"/>
	<path clip-path="url(#SVGID_12_)" fill="#CBBDA8" d="M61.291,126.844c-0.595-0.431-1.61-1.293-2.712-0.837
		c0,0-0.926-0.113-0.647,0.71l-0.748,0.633l0.217,0.077c0,0,0.976-1.103,2.256-0.812c0,0-1.015,0.063-1.218,0.596
		c0,0,0.216,0.407,0.697,0.101c0.482-0.304,1.054-0.544,1.611-0.519L61.291,126.844z"/>
	<path clip-path="url(#SVGID_12_)" fill="#CBBDA8" d="M57.854,131.905c-0.192-0.708-0.439-2.016-1.583-2.356
		c0,0-0.649-0.669-0.95,0.147l-0.979,0.022l0.119,0.195c0,0,1.452-0.244,2.265,0.788c0,0-0.829-0.587-1.321-0.301
		c0,0-0.087,0.451,0.479,0.517c0.566,0.065,1.161,0.237,1.58,0.607L57.854,131.905z"/>
	<path clip-path="url(#SVGID_12_)" fill="#CBBDA8" d="M58.369,133.75c-0.15-0.554-0.343-1.573-1.237-1.838
		c0,0-0.504-0.524-0.741,0.113l-0.763,0.018l0.094,0.152c0,0,1.132-0.19,1.765,0.614c0,0-0.646-0.459-1.029-0.236
		c0,0-0.068,0.353,0.374,0.404c0.441,0.052,0.905,0.185,1.231,0.474L58.369,133.75z"/>
	<path clip-path="url(#SVGID_12_)" fill="#CBBDA8" d="M56.615,128.897c-0.319-0.582-0.813-1.676-1.888-1.729
		c0,0-0.71-0.452-0.802,0.328l-0.854,0.227l0.146,0.145c0,0,1.222-0.521,2.154,0.212c0,0-0.851-0.341-1.223,0.015
		c0,0,0.019,0.414,0.529,0.353c0.509-0.061,1.068-0.038,1.514,0.199L56.615,128.897z"/>
	<path clip-path="url(#SVGID_12_)" fill="#CBBDA8" d="M55.837,134.167c0.044-0.663,0.216-1.85-0.661-2.475
		c0,0-0.357-0.761-0.853-0.153l-0.843-0.268l0.044,0.2c0,0,1.312,0.217,1.701,1.337c0,0-0.533-0.745-1.039-0.646
		c0,0-0.206,0.359,0.257,0.581c0.464,0.223,0.922,0.544,1.169,0.981L55.837,134.167z"/>
	<path clip-path="url(#SVGID_12_)" fill="#CBBDA8" d="M61.196,130.261c-0.336-0.573-0.859-1.654-1.936-1.677
		c0,0-0.723-0.43-0.792,0.351l-0.848,0.252l0.15,0.142c0,0,1.207-0.556,2.158,0.148c0,0-0.861-0.316-1.222,0.051
		c0,0,0.03,0.414,0.539,0.336c0.509-0.076,1.068-0.068,1.519,0.156L61.196,130.261z"/>
	<path clip-path="url(#SVGID_12_)" fill="#CBBDA8" d="M60.583,132.909c-0.15-0.646-0.329-1.834-1.35-2.179
		c0,0-0.561-0.625-0.859,0.101l-0.885-0.013l0.103,0.18c0,0,1.317-0.171,2.015,0.787c0,0-0.726-0.56-1.181-0.317
		c0,0-0.094,0.404,0.415,0.482c0.507,0.078,1.037,0.253,1.402,0.602L60.583,132.909z"/>
	<path clip-path="url(#SVGID_12_)" fill="#CBBDA8" d="M54.115,130.98c-0.149-0.647-0.328-1.834-1.348-2.178
		c0,0-0.562-0.625-0.86,0.1l-0.885-0.013l0.102,0.179c0,0,1.317-0.17,2.014,0.787c0,0-0.727-0.56-1.181-0.316
		c0,0-0.094,0.403,0.415,0.481c0.508,0.079,1.039,0.253,1.402,0.602L54.115,130.98z"/>
	<path clip-path="url(#SVGID_12_)" fill="#CBBDA8" d="M51.952,124.465c-0.372,0.549-0.967,1.591-2.043,1.544
		c0,0-0.749,0.38-0.766-0.404l-0.829-0.309l0.158-0.13c0,0,1.167,0.634,2.164-0.006c0,0-0.879,0.258-1.214-0.13
		c0,0,0.058-0.412,0.561-0.3c0.5,0.108,1.058,0.138,1.524-0.055L51.952,124.465z"/>
	<path clip-path="url(#SVGID_12_)" fill="#CBBDA8" d="M53.17,136.034c0.181-0.639,0.6-1.763-0.128-2.558c0,0-0.188-0.82-0.8-0.33
		l-0.768-0.438l0.002,0.207c0,0,1.235,0.486,1.383,1.662c0,0-0.366-0.839-0.881-0.848c0,0-0.276,0.307,0.13,0.622
		c0.407,0.315,0.786,0.724,0.938,1.206L53.17,136.034z"/>
	<path clip-path="url(#SVGID_12_)" fill="#CBBDA8" d="M50.452,134.482c0.314-0.584,0.964-1.593,0.425-2.525
		c0,0-0.008-0.841-0.711-0.495l-0.655-0.593l-0.044,0.203c0,0,1.103,0.741,0.995,1.921c0,0-0.178-0.9-0.677-1.018
		c0,0-0.338,0.241-0.007,0.636c0.328,0.394,0.612,0.875,0.655,1.377L50.452,134.482z"/>
	<path clip-path="url(#SVGID_12_)" fill="#DADFE1" d="M46.333,125.861c0.307,0.169,1.262,0.559,1.262,0.559l3.168,0.34l1.938,0.61
		l-1.901-0.393l-2.61-0.326l-1.161-0.301l-1.01-0.379l-0.589-0.51"/>
	<path clip-path="url(#SVGID_12_)" fill="#DADFE1" d="M51.006,132.875c0.251,0.246,0.912,0.745,0.912,0.745l2.444,1.095l1.262,0.758
		l-1.983-0.89l-0.422-0.228l-0.578-0.252l-0.722-0.457l0.074-0.121"/>
</g>
<text transform="matrix(1.1111 0 0 1 46.2153 144.6001)"><tspan x="0" y="0" fill="#E0E4E6" font-family="'CenturyGothic'" font-size="2.8282">CITYWES</tspan><tspan x="13.436" y="0" fill="#E0E4E6" font-family="'CenturyGothic'" font-size="2.8282">T</tspan></text>
<line fill="none" stroke="#CD181F" stroke-width="1.0847" stroke-miterlimit="10" x1="60.39" y1="100.822" x2="1228.077" y2="100.822"/>
<g>
	<defs>
		<rect id="SVGID_13_" x="21.322" width="1255.208" height="160.954"/>
	</defs>
	<clipPath id="SVGID_14_">
		<use xlink:href="#SVGID_13_"  overflow="visible"/>
	</clipPath>
	<path clip-path="url(#SVGID_14_)" fill="#FFFFFF" d="M567.423,107.26c3.855,0,6.981-3.125,6.981-6.981s-3.126-6.982-6.981-6.982
		c-3.857,0-6.983,3.127-6.983,6.982S563.566,107.26,567.423,107.26"/>
	
		<circle clip-path="url(#SVGID_14_)" fill="none" stroke="#CD181F" stroke-width="1.0847" stroke-miterlimit="10" cx="567.423" cy="100.279" r="6.982"/>
	<path clip-path="url(#SVGID_14_)" fill="#FFFFFF" d="M177.833,107.26c3.856,0,6.982-3.125,6.982-6.981s-3.126-6.982-6.982-6.982
		c-3.855,0-6.982,3.127-6.982,6.982S173.979,107.26,177.833,107.26"/>
	
		<circle clip-path="url(#SVGID_14_)" fill="none" stroke="#CD181F" stroke-width="1.0847" stroke-miterlimit="10" cx="177.833" cy="100.279" r="6.982"/>
	<path clip-path="url(#SVGID_14_)" fill="#FFFFFF" d="M217.736,107.26c3.856,0,6.982-3.125,6.982-6.981s-3.126-6.982-6.982-6.982
		c-3.856,0-6.982,3.127-6.982,6.982S213.879,107.26,217.736,107.26"/>
	
		<circle clip-path="url(#SVGID_14_)" fill="none" stroke="#CD181F" stroke-width="1.0847" stroke-miterlimit="10" cx="217.736" cy="100.279" r="6.982"/>
	<path clip-path="url(#SVGID_14_)" fill="#FFFFFF" d="M136.307,107.591c3.856,0,6.982-3.126,6.982-6.981s-3.126-6.983-6.982-6.983
		c-3.855,0-6.982,3.127-6.982,6.983S132.451,107.591,136.307,107.591"/>
	
		<circle clip-path="url(#SVGID_14_)" fill="none" stroke="#CD181F" stroke-width="1.0847" stroke-miterlimit="10" cx="136.307" cy="100.609" r="6.982"/>
	<path clip-path="url(#SVGID_14_)" fill="#FFFFFF" d="M95.263,108.183c3.855,0,6.981-3.126,6.981-6.982s-3.126-6.982-6.981-6.982
		c-3.856,0-6.982,3.126-6.982,6.982S91.407,108.183,95.263,108.183"/>
	
		<circle clip-path="url(#SVGID_14_)" fill="none" stroke="#CD181F" stroke-width="1.0847" stroke-miterlimit="10" cx="95.263" cy="101.2" r="6.982"/>
	<path clip-path="url(#SVGID_14_)" fill="#D1232A" d="M54.451,107.803c3.855,0,6.981-3.126,6.981-6.981
		c0-3.856-3.126-6.983-6.981-6.983c-3.857,0-6.982,3.126-6.982,6.983C47.468,104.677,50.594,107.803,54.451,107.803"/>
	
		<circle clip-path="url(#SVGID_14_)" fill="none" stroke="#CD181F" stroke-width="1.0847" stroke-miterlimit="10" cx="54.451" cy="100.821" r="6.982"/>
	<path clip-path="url(#SVGID_14_)" fill="#FFFFFF" d="M854.479,108.183c3.856,0,6.982-3.126,6.982-6.982s-3.126-6.982-6.982-6.982
		s-6.981,3.126-6.981,6.982S850.623,108.183,854.479,108.183"/>
	
		<circle clip-path="url(#SVGID_14_)" fill="none" stroke="#CD181F" stroke-width="1.0847" stroke-miterlimit="10" cx="854.479" cy="101.2" r="6.982"/>
	<path clip-path="url(#SVGID_14_)" fill="#D1232A" d="M814.083,108.183c3.854,0,6.982-3.126,6.982-6.982s-3.129-6.982-6.982-6.982
		c-3.856,0-6.982,3.126-6.982,6.982S810.227,108.183,814.083,108.183"/>
	<path clip-path="url(#SVGID_14_)" fill="none" stroke="#CD181F" stroke-width="1.0847" stroke-miterlimit="10" d="M814.083,108.183
		c3.854,0,6.982-3.126,6.982-6.982s-3.129-6.982-6.982-6.982c-3.856,0-6.982,3.126-6.982,6.982S810.227,108.183,814.083,108.183z"/>
	<path clip-path="url(#SVGID_14_)" fill="#FFFFFF" d="M894.879,108.183c3.854,0,6.98-3.126,6.98-6.982s-3.126-6.982-6.98-6.982
		c-3.856,0-6.981,3.126-6.981,6.982S891.022,108.183,894.879,108.183"/>
	
		<circle clip-path="url(#SVGID_14_)" fill="none" stroke="#CD181F" stroke-width="1.0847" stroke-miterlimit="10" cx="894.879" cy="101.2" r="6.982"/>
	<path clip-path="url(#SVGID_14_)" fill="#FFFFFF" d="M1098.113,108.183c3.855,0,6.982-3.126,6.982-6.982s-3.127-6.982-6.982-6.982
		c-3.856,0-6.981,3.126-6.981,6.982S1094.257,108.183,1098.113,108.183"/>
	
		<circle clip-path="url(#SVGID_14_)" fill="none" stroke="#CD181F" stroke-width="1.0847" stroke-miterlimit="10" cx="1098.113" cy="101.2" r="6.982"/>
	<path clip-path="url(#SVGID_14_)" fill="#FFFFFF" d="M772.023,108.183c3.856,0,6.982-3.126,6.982-6.982s-3.126-6.982-6.982-6.982
		c-3.855,0-6.981,3.126-6.981,6.982S768.168,108.183,772.023,108.183"/>
	
		<circle clip-path="url(#SVGID_14_)" fill="none" stroke="#CD181F" stroke-width="1.0847" stroke-miterlimit="10" cx="772.023" cy="101.2" r="6.982"/>
	<path clip-path="url(#SVGID_14_)" fill="#FFFFFF" d="M649.038,108.183c3.855,0,6.981-3.126,6.981-6.982s-3.126-6.982-6.981-6.982
		c-3.856,0-6.982,3.126-6.982,6.982S645.182,108.183,649.038,108.183"/>
	
		<circle clip-path="url(#SVGID_14_)" fill="none" stroke="#CD181F" stroke-width="1.0847" stroke-miterlimit="10" cx="649.038" cy="101.2" r="6.982"/>
	<path clip-path="url(#SVGID_14_)" fill="#FFFFFF" d="M1016.487,108.183c3.856,0,6.983-3.126,6.983-6.982s-3.127-6.982-6.983-6.982
		c-3.855,0-6.981,3.126-6.981,6.982S1012.632,108.183,1016.487,108.183"/>
	
		<circle clip-path="url(#SVGID_14_)" fill="none" stroke="#CD181F" stroke-width="1.0847" stroke-miterlimit="10" cx="1016.487" cy="101.2" r="6.982"/>
	<path clip-path="url(#SVGID_14_)" fill="#FFFFFF" d="M975.674,108.345c3.856,0,6.981-3.126,6.981-6.981
		c0-3.856-3.125-6.982-6.981-6.982c-3.855,0-6.982,3.126-6.982,6.982C968.691,105.219,971.818,108.345,975.674,108.345"/>
	
		<circle clip-path="url(#SVGID_14_)" fill="none" stroke="#CD181F" stroke-width="1.0847" stroke-miterlimit="10" cx="975.674" cy="101.364" r="6.982"/>
	<path clip-path="url(#SVGID_14_)" fill="#FFFFFF" d="M485.796,108.183c3.856,0,6.982-3.126,6.982-6.982s-3.125-6.982-6.982-6.982
		c-3.856,0-6.982,3.126-6.982,6.982S481.94,108.183,485.796,108.183"/>
	
		<circle clip-path="url(#SVGID_14_)" fill="none" stroke="#CD181F" stroke-width="1.0847" stroke-miterlimit="10" cx="485.796" cy="101.2" r="6.982"/>
	<path clip-path="url(#SVGID_14_)" fill="#FFFFFF" d="M442.883,107.591c3.857,0,6.983-3.126,6.983-6.981s-3.126-6.983-6.983-6.983
		c-3.855,0-6.981,3.127-6.981,6.983S439.027,107.591,442.883,107.591"/>
	
		<circle clip-path="url(#SVGID_14_)" fill="none" stroke="#CD181F" stroke-width="1.0847" stroke-miterlimit="10" cx="442.883" cy="100.609" r="6.982"/>
	<path clip-path="url(#SVGID_14_)" fill="#FFFFFF" d="M608.226,108.183c3.855,0,6.98-3.126,6.98-6.982s-3.125-6.982-6.98-6.982
		c-3.856,0-6.983,3.126-6.983,6.982S604.369,108.183,608.226,108.183"/>
	
		<circle clip-path="url(#SVGID_14_)" fill="none" stroke="#CD181F" stroke-width="1.0847" stroke-miterlimit="10" cx="608.226" cy="101.2" r="6.982"/>
	<path clip-path="url(#SVGID_14_)" fill="#FFFFFF" d="M526.609,108.183c3.855,0,6.981-3.126,6.981-6.982s-3.126-6.982-6.981-6.982
		c-3.857,0-6.981,3.126-6.981,6.982S522.752,108.183,526.609,108.183"/>
	
		<circle clip-path="url(#SVGID_14_)" fill="none" stroke="#CD181F" stroke-width="1.0847" stroke-miterlimit="10" cx="526.609" cy="101.2" r="6.982"/>
	<path clip-path="url(#SVGID_14_)" fill="#FFFFFF" d="M402.07,108.183c3.856,0,6.982-3.126,6.982-6.982s-3.126-6.982-6.982-6.982
		c-3.855,0-6.982,3.126-6.982,6.982S398.215,108.183,402.07,108.183"/>
	
		<circle clip-path="url(#SVGID_14_)" fill="none" stroke="#CD181F" stroke-width="1.0847" stroke-miterlimit="10" cx="402.07" cy="101.2" r="6.982"/>
	<path clip-path="url(#SVGID_14_)" fill="#FFFFFF" d="M361.257,108.183c3.855,0,6.981-3.126,6.981-6.982s-3.126-6.982-6.981-6.982
		s-6.981,3.126-6.981,6.982S357.402,108.183,361.257,108.183"/>
	
		<circle clip-path="url(#SVGID_14_)" fill="none" stroke="#CD181F" stroke-width="1.0847" stroke-miterlimit="10" cx="361.257" cy="101.2" r="6.982"/>
	<path clip-path="url(#SVGID_14_)" fill="#FFFFFF" d="M690.398,108.183c3.855,0,6.981-3.126,6.981-6.982s-3.126-6.982-6.981-6.982
		c-3.856,0-6.982,3.126-6.982,6.982S686.542,108.183,690.398,108.183"/>
	
		<circle clip-path="url(#SVGID_14_)" fill="none" stroke="#CD181F" stroke-width="1.0847" stroke-miterlimit="10" cx="690.398" cy="101.2" r="6.982"/>
	<path clip-path="url(#SVGID_14_)" fill="#D1232A" d="M1057.301,108.183c3.855,0,6.981-3.126,6.981-6.982s-3.126-6.982-6.981-6.982
		c-3.856,0-6.983,3.126-6.983,6.982S1053.444,108.183,1057.301,108.183"/>
	
		<circle clip-path="url(#SVGID_14_)" fill="none" stroke="#CD181F" stroke-width="1.0847" stroke-miterlimit="10" cx="1057.301" cy="101.2" r="6.982"/>
	<path clip-path="url(#SVGID_14_)" fill="#FFFFFF" d="M1138.927,107.803c3.856,0,6.98-3.126,6.98-6.981
		c0-3.856-3.124-6.983-6.98-6.983c-3.857,0-6.983,3.126-6.983,6.983C1131.943,104.677,1135.069,107.803,1138.927,107.803"/>
	
		<circle clip-path="url(#SVGID_14_)" fill="none" stroke="#CD181F" stroke-width="1.0847" stroke-miterlimit="10" cx="1138.927" cy="100.821" r="6.982"/>
	<path clip-path="url(#SVGID_14_)" fill="#FFFFFF" d="M729.295,108.183c3.855,0,6.98-3.126,6.98-6.982s-3.125-6.982-6.98-6.982
		c-3.856,0-6.983,3.126-6.983,6.982S725.438,108.183,729.295,108.183"/>
	
		<circle clip-path="url(#SVGID_14_)" fill="none" stroke="#CD181F" stroke-width="1.0847" stroke-miterlimit="10" cx="729.295" cy="101.2" r="6.982"/>
	<path clip-path="url(#SVGID_14_)" fill="#FFFFFF" d="M935.275,108.183c3.856,0,6.983-3.126,6.983-6.982s-3.127-6.982-6.983-6.982
		c-3.855,0-6.98,3.126-6.98,6.982S931.42,108.183,935.275,108.183"/>
	
		<circle clip-path="url(#SVGID_14_)" fill="none" stroke="#CD181F" stroke-width="1.0847" stroke-miterlimit="10" cx="935.275" cy="101.2" r="6.982"/>
	<path clip-path="url(#SVGID_14_)" fill="#FFFFFF" d="M1220.553,107.26c3.857,0,6.982-3.125,6.982-6.981s-3.125-6.982-6.982-6.982
		c-3.856,0-6.981,3.127-6.981,6.982S1216.696,107.26,1220.553,107.26"/>
	
		<circle clip-path="url(#SVGID_14_)" fill="none" stroke="#CD181F" stroke-width="1.0847" stroke-miterlimit="10" cx="1220.553" cy="100.279" r="6.982"/>
	<path clip-path="url(#SVGID_14_)" fill="#FFFFFF" d="M1179.738,108.183c3.856,0,6.983-3.126,6.983-6.982s-3.127-6.982-6.983-6.982
		c-3.854,0-6.98,3.126-6.98,6.982S1175.885,108.183,1179.738,108.183"/>
	<path clip-path="url(#SVGID_14_)" fill="none" stroke="#CD181F" stroke-width="1.0847" stroke-miterlimit="10" d="
		M1179.738,108.183c3.856,0,6.983-3.126,6.983-6.982s-3.127-6.982-6.983-6.982c-3.854,0-6.98,3.126-6.98,6.982
		S1175.885,108.183,1179.738,108.183z"/>
</g>
<text transform="matrix(0.7071 -0.7071 0.7071 0.7071 302.394 78.7471)"><tspan x="0" y="0" fill="#4D4D4F" font-family="'Futura-Book'" font-size="9.762">C</tspan><tspan x="7.38" y="0" fill="#4D4D4F" font-family="'Futura-Book'" font-size="9.762">ookst</tspan><tspan x="31.131" y="0" fill="#4D4D4F" font-family="'Futura-Book'" font-size="9.762">o</tspan><tspan x="36.997" y="0" fill="#4D4D4F" font-family="'Futura-Book'" font-size="9.762">w</tspan><tspan x="44.807" y="0" fill="#4D4D4F" font-family="'Futura-Book'" font-size="9.762">n</tspan></text>
<text transform="matrix(0.7071 -0.7071 0.7071 0.7071 253.686 78.7178)"><tspan x="0" y="0" fill="#4D4D4F" font-family="'Futura-Book'" font-size="9.762">T</tspan><tspan x="4.012" y="0" fill="#4D4D4F" font-family="'Futura-Book'" font-size="9.762">a</tspan><tspan x="10.025" y="0" fill="#4D4D4F" font-family="'Futura-Book'" font-size="9.762">llagh</tspan><tspan x="32.858" y="0" fill="#4D4D4F" font-family="'Futura-Book'" font-size="9.762">t</tspan></text>
<text transform="matrix(0.7071 -0.7071 0.7071 0.7071 279.6064 77.1362)"><tspan x="0" y="0" fill="#4D4D4F" font-family="'Futura-Book'" font-size="9.762">H</tspan><tspan x="7.36" y="0" fill="#4D4D4F" font-family="'Futura-Book'" font-size="9.762">o</tspan><tspan x="13.228" y="0" fill="#4D4D4F" font-family="'Futura-Book'" font-size="9.762">s</tspan><tspan x="17.513" y="0" fill="#4D4D4F" font-family="'Futura-Book'" font-size="9.762">p</tspan><tspan x="23.526" y="0" fill="#4D4D4F" font-family="'Futura-Book'" font-size="9.762">ita</tspan><tspan x="35.231" y="0" fill="#4D4D4F" font-family="'Futura-Book'" font-size="9.762">l</tspan></text>
<polyline fill="none" stroke="#CD181F" stroke-width="1.0847" stroke-miterlimit="10" points="307.836,101.069 298.904,91.918 
	249.614,91.918 "/>
<g>
	<defs>
		<rect id="SVGID_15_" x="21.322" width="1255.208" height="160.954"/>
	</defs>
	<clipPath id="SVGID_16_">
		<use xlink:href="#SVGID_15_"  overflow="visible"/>
	</clipPath>
	<path clip-path="url(#SVGID_16_)" fill="#FFFFFF" d="M250.723,98.9c3.856,0,6.982-3.126,6.982-6.982
		c0-3.856-3.126-6.982-6.982-6.982c-3.855,0-6.981,3.126-6.981,6.982C243.741,95.774,246.868,98.9,250.723,98.9"/>
	
		<circle clip-path="url(#SVGID_16_)" fill="none" stroke="#CD181F" stroke-width="1.0847" stroke-miterlimit="10" cx="250.723" cy="91.918" r="6.982"/>
	<path clip-path="url(#SVGID_16_)" fill="#FFFFFF" d="M273.579,98.358c3.855,0,6.982-3.126,6.982-6.981
		c0-3.856-3.126-6.983-6.982-6.983c-3.856,0-6.982,3.126-6.982,6.983C266.597,95.231,269.723,98.358,273.579,98.358"/>
	
		<circle clip-path="url(#SVGID_16_)" fill="none" stroke="#CD181F" stroke-width="1.0847" stroke-miterlimit="10" cx="273.579" cy="91.376" r="6.982"/>
	<path clip-path="url(#SVGID_16_)" fill="#FFFFFF" d="M296.435,98.358c3.856,0,6.981-3.126,6.981-6.981
		c0-3.856-3.125-6.983-6.981-6.983c-3.856,0-6.982,3.126-6.982,6.983C289.452,95.231,292.578,98.358,296.435,98.358"/>
	
		<circle clip-path="url(#SVGID_16_)" fill="none" stroke="#CD181F" stroke-width="1.0847" stroke-miterlimit="10" cx="296.435" cy="91.376" r="6.982"/>
	<path clip-path="url(#SVGID_16_)" fill="#FFFFFF" d="M320.445,108.183c3.855,0,6.981-3.126,6.981-6.982s-3.126-6.982-6.981-6.982
		c-3.856,0-6.982,3.126-6.982,6.982S316.589,108.183,320.445,108.183"/>
	
		<circle clip-path="url(#SVGID_16_)" fill="none" stroke="#CD181F" stroke-width="1.0847" stroke-miterlimit="10" cx="320.445" cy="101.2" r="6.982"/>
</g>
<line fill="none" stroke="#CD181F" stroke-width="1.0847" stroke-miterlimit="10" x1="1085.128" y1="77.51" x2="1062.611" y2="96.355"/>
<text transform="matrix(1 0 0 1 750.5693 128.7583)" fill="#4D4D4F" font-family="'CenturyGothic'" font-size="9.762">InterCity connects to Cork, </text>
<text transform="matrix(1 0 0 1 745.5029 142.8521)"><tspan x="0" y="0" fill="#4D4D4F" font-family="'CenturyGothic'" font-size="9.762">Limerick, </tspan><tspan x="43.476" y="0" fill="#4D4D4F" font-family="'CenturyGothic'" font-size="9.762">W</tspan><tspan x="52.359" y="0" fill="#4D4D4F" font-family="'CenturyGothic'" font-size="9.762">ate</tspan><tspan x="68.68" y="0" fill="#4D4D4F" font-family="'CenturyGothic'" font-size="9.762">r</tspan><tspan x="72.074" y="0" fill="#4D4D4F" font-family="'CenturyGothic'" font-size="9.762">fo</tspan><tspan x="81.531" y="0" fill="#4D4D4F" font-family="'CenturyGothic'" font-size="9.762">r</tspan><tspan x="84.409" y="0" fill="#4D4D4F" font-family="'CenturyGothic'" font-size="9.762">d, Galway, </tspan></text>
<text transform="matrix(1 0 0 1 776.0859 156.9497)" fill="#4D4D4F" font-family="'CenturyGothic'" font-size="9.762">Mayo and Kerry</text>
<text transform="matrix(1 0 0 1 994.666 128.7466)" fill="#4D4D4F" font-family="'CenturyGothic'" font-size="9.762">InterCity connects to Belfast, </text>
<text transform="matrix(1 0 0 1 1004.9463 142.8442)"><tspan x="0" y="0" fill="#4D4D4F" font-family="'CenturyGothic'" font-size="9.762">Sligo, Rossla</tspan><tspan x="55.654" y="0" fill="#4D4D4F" font-family="'CenturyGothic'" font-size="9.762">r</tspan><tspan x="58.562" y="0" fill="#4D4D4F" font-family="'CenturyGothic'" font-size="9.762">e and DA</tspan><tspan x="104.106" y="0" fill="#4D4D4F" font-family="'CenturyGothic'" font-size="9.762">R</tspan><tspan x="110.08" y="0" fill="#4D4D4F" font-family="'CenturyGothic'" font-size="9.762">T</tspan></text>
<polygon fill="#D1232A" points="54.451,115.339 58.254,105.682 50.645,105.682 "/>
<polygon fill="#D1232A" points="814.083,116.228 817.887,106.571 810.277,106.571 "/>
<polygon fill="#D1232A" points="1057.301,116.228 1061.105,106.571 1053.494,106.571 "/>
</svg>
