<?xml version="1.0" encoding="utf-8"?>
<!-- Generator: Adobe Illustrator 16.0.4, SVG Export Plug-In . SVG Version: 6.00 Build 0)  -->
<!DOCTYPE svg PUBLIC "-//W3C//DTD SVG 1.1//EN" "http://www.w3.org/Graphics/SVG/1.1/DTD/svg11.dtd">
<svg version="1.1" id="Layer_1" xmlns="http://www.w3.org/2000/svg" xmlns:xlink="http://www.w3.org/1999/xlink" x="0px" y="0px"
	 width="72.767px" height="72.549px" viewBox="0 0 72.767 72.549" enable-background="new 0 0 72.767 72.549" xml:space="preserve">
<g>
	<defs>
		<rect id="SVGID_1_" x="0.919" y="1.094" width="70.395" height="70.376"/>
	</defs>
	<clipPath id="SVGID_2_">
		<use xlink:href="#SVGID_1_"  overflow="visible"/>
	</clipPath>
	<path clip-path="url(#SVGID_2_)" fill="#5B707C" d="M8.24,20.164c-8.9,15.3-3.669,34.979,11.668,43.92
		c15.42,8.985,35.075,3.774,44.079-11.683c8.849-15.19,3.829-35.024-11.867-44.091C36.851-0.513,17.197,4.765,8.24,20.164
		 M53.519,5.693c17.319,10.055,22.634,31.482,13.118,48.022c-9.945,17.28-31.405,22.596-47.962,13.066
		C1.353,56.812-3.927,35.316,5.645,18.759C15.619,1.506,36.961-3.65,53.519,5.693"/>
	<path clip-path="url(#SVGID_2_)" fill="#5B707C" d="M13.293,18.919c1.263,0.47,1.261,0.469,0.911,1.618
		c-0.33,1.092-0.653,2.182-0.841,3.38c0.302-0.273,0.612-0.544,0.904-0.826c0.651-0.627,1.317-1.233,1.926-1.899
		c0.366-0.397,0.659-0.361,1.07-0.104c0.383,0.242,0.638,0.425,0.474,0.972c-0.373,1.251-0.661,2.527-0.856,3.88
		c0.789-0.814,1.58-1.627,2.368-2.441c0.84-0.871,0.839-0.871,1.865-0.089c-0.246,0.258-0.481,0.517-0.729,0.763
		c-1.227,1.221-2.455,2.439-3.684,3.654c-0.74,0.729-0.743,0.728-1.731,0.052c0.399-1.556,0.802-3.138,1.207-4.722
		c-0.057-0.031-0.112-0.063-0.169-0.096c-0.976,0.96-1.981,1.898-2.925,2.895c-0.431,0.454-0.822,0.572-1.274,0.131
		c-0.151-0.147-0.3-0.447-0.252-0.627C12.11,23.291,12.702,21.13,13.293,18.919"/>
	<path clip-path="url(#SVGID_2_)" fill="#5B707C" d="M45.828,17.406c-0.423-0.244-0.733-0.423-1.106-0.638
		c1.159-2.008,2.312-4.005,3.48-6.028c0.724,0.144,1.115,0.497,1.134,1.321c0.034,1.463,0.171,2.924,0.279,4.555
		c0.2-0.253,0.325-0.379,0.412-0.525c0.556-0.95,1.117-1.894,1.649-2.86c0.215-0.391,0.455-0.37,0.769-0.158
		c0.267,0.179,0.691,0.271,0.409,0.751c-1.086,1.857-2.17,3.713-3.257,5.567c-0.021,0.036-0.08,0.051-0.125,0.077
		c-0.716-0.176-1.072-0.563-1.087-1.371c-0.026-1.454-0.176-2.905-0.418-4.396C47.269,14.911,46.571,16.12,45.828,17.406"/>
	<path clip-path="url(#SVGID_2_)" fill="#5B707C" d="M59.78,52.167c-0.238,0.412-0.406,0.704-0.606,1.05
		c-1.53-0.883-3.041-1.756-4.6-2.655c1.141-1.978,2.282-3.953,3.459-5.991c1.466,0.846,2.932,1.692,4.444,2.565
		c-0.172,0.299-0.337,0.584-0.557,0.966c-1.056-0.609-2.122-1.226-3.245-1.873c-0.288,0.5-0.522,0.904-0.794,1.376
		c1.001,0.579,1.989,1.148,2.951,1.704c-0.2,1.1-0.411,1.202-1.278,0.702c-0.758-0.438-1.515-0.874-2.315-1.336
		c-0.31,0.538-0.572,0.992-0.877,1.52C57.493,50.847,58.604,51.488,59.78,52.167"/>
	<path clip-path="url(#SVGID_2_)" fill="#5B707C" d="M27.351,58.143c-0.398-0.173-0.745-0.322-1.074-0.466
		c0.125-1.292-0.292-1.974-1.331-2.122c-0.259-0.037-0.64,0.102-0.797,0.294c-0.104,0.127,0.017,0.562,0.174,0.746
		c0.436,0.522,0.957,0.973,1.411,1.48c0.812,0.904,0.901,1.797,0.302,2.659c-0.548,0.788-1.622,1.127-2.618,0.68
		c-0.651-0.294-1.299-0.698-1.797-1.204c-0.793-0.807-0.793-1.896-0.13-2.849c0.338,0.145,0.688,0.292,1.028,0.438
		c-0.312,1.343,0.218,2.269,1.448,2.471c0.308,0.05,0.807-0.067,0.949-0.282c0.137-0.203,0.024-0.722-0.162-0.96
		c-0.445-0.575-1.032-1.037-1.505-1.592c-0.713-0.842-0.751-1.682-0.11-2.458c0.221-0.265,0.547-0.525,0.871-0.615
		c1.225-0.344,2.195,0.221,3.028,1.036C27.81,56.156,27.868,57.062,27.351,58.143"/>
	<path clip-path="url(#SVGID_2_)" fill="#5B707C" d="M34.112,37.287c-0.348-1.266,0.404-2.576,1.677-2.923
		c1.272-0.348,2.583,0.399,2.928,1.666c0.349,1.265-0.405,2.573-1.677,2.921C35.769,39.298,34.457,38.553,34.112,37.287
		 M27.308,53.688c4.235-4.97,8.475-9.937,12.702-14.911c0.164-0.192,0.289-0.446,0.363-0.69c1.575-5.229,3.141-10.462,4.708-15.688
		c0.319-1.067,0.638-2.141,0.955-3.211c-0.027-0.01-0.053-0.023-0.079-0.039c-0.097,0.104-0.197,0.193-0.287,0.302
		c-4.203,4.931-8.408,9.862-12.604,14.801c-0.164,0.192-0.284,0.449-0.358,0.695c-1.857,6.176-3.705,12.358-5.554,18.539
		c-0.032,0.114-0.048,0.233-0.097,0.469C27.201,53.801,27.258,53.746,27.308,53.688"/>
	<path clip-path="url(#SVGID_2_)" fill="none" stroke="#5B707C" stroke-miterlimit="10" d="M51.073,44.959
		c-4.763,8.249-15.312,11.075-23.561,6.313l-0.002-0.001c-8.249-4.763-11.076-15.312-6.313-23.562
		c4.763-8.249,15.312-11.076,23.562-6.313l0.001,0.001C53.009,26.159,55.836,36.71,51.073,44.959z"/>
</g>
</svg>
