<?xml version="1.0" encoding="utf-8"?>
<!-- Generator: Adobe Illustrator 16.0.4, SVG Export Plug-In . SVG Version: 6.00 Build 0)  -->
<!DOCTYPE svg PUBLIC "-//W3C//DTD SVG 1.1//EN" "http://www.w3.org/Graphics/SVG/1.1/DTD/svg11.dtd">
<svg version="1.1" id="Layer_1" xmlns="http://www.w3.org/2000/svg" xmlns:xlink="http://www.w3.org/1999/xlink" x="0px" y="0px"
	 width="151.755px" height="140.351px" viewBox="0 0 151.755 140.351" enable-background="new 0 0 151.755 140.351"
	 xml:space="preserve">
<g>
	<defs>
		<rect id="SVGID_1_" x="29.074" y="23.353" width="93.608" height="93.646"/>
	</defs>
	<clipPath id="SVGID_2_">
		<use xlink:href="#SVGID_1_"  overflow="visible"/>
	</clipPath>
	<path clip-path="url(#SVGID_2_)" fill="#5B707C" d="M33,70.188c-0.076,23.568,19.058,42.778,42.699,42.879
		c23.763,0.095,42.96-19.001,43.05-42.821c0.093-23.407-18.901-42.938-43.039-42.943C52.229,27.294,33.078,46.466,33,70.188
		 M75.581,23.353c26.666,0.064,47.062,21.235,47.101,46.646c0.036,26.548-21.172,46.963-46.609,46.999
		c-26.613,0.034-47.014-21.239-46.998-46.704C29.089,43.756,50.268,23.601,75.581,23.353"/>
	<path clip-path="url(#SVGID_2_)" fill="#5B707C" d="M95.693,80.618c-0.974-0.935-1.094-1.812-0.601-3.075
		c4.799-12.303-3.138-25.805-16.251-27.732c-3.544-0.521-7.035-0.248-10.33,1.18c-1.28,0.556-2.134,0.297-3.011-0.568
		c6.443-3.915,17.347-4.029,25.194,2.9C99.092,60.734,100.242,72.37,95.693,80.618"/>
	<path clip-path="url(#SVGID_2_)" fill="#5B707C" d="M86.272,89.996c-7.155,4.146-18.157,3.723-25.756-3.43
		c-7.907-7.447-8.885-18.784-4.445-26.799c0.767,0.861,1.169,1.611,0.661,2.901c-4.771,12.137,2.622,25.42,15.442,27.806
		c3.786,0.7,7.545,0.432,11.106-1.088C84.551,88.845,85.424,89.061,86.272,89.996"/>
	<path clip-path="url(#SVGID_2_)" fill="#5B707C" d="M38,65.387c1.769-0.3,1.766-0.3,2.127,1.26c0.348,1.478,0.7,2.948,1.282,4.457
		c0.166-0.518,0.342-1.035,0.492-1.556c0.332-1.156,0.696-2.299,0.956-3.474c0.156-0.7,0.521-0.854,1.165-0.83
		c0.604,0.022,1.018,0.065,1.193,0.805c0.402,1.691,0.92,3.354,1.597,5.044c0.367-1.465,0.738-2.929,1.105-4.392
		c0.388-1.563,0.388-1.563,2.092-1.346c-0.113,0.462-0.212,0.918-0.334,1.366c-0.602,2.225-1.209,4.446-1.814,6.668
		c-0.368,1.333-0.372,1.333-1.961,1.212c-0.576-2.061-1.165-4.154-1.753-6.25c-0.087,0.003-0.173,0.003-0.26,0.003
		c-0.485,1.756-1.02,3.509-1.445,5.285c-0.193,0.811-0.565,1.206-1.382,0.999c-0.272-0.07-0.644-0.314-0.708-0.556
		C39.547,71.216,38.79,68.331,38,65.387"/>
	<path clip-path="url(#SVGID_2_)" fill="#5B707C" d="M74.512,41.981h-1.699v-9.269c0.928-0.315,1.614-0.168,2.185,0.769
		c1.015,1.666,2.145,3.26,3.356,5.068c0.062-0.426,0.121-0.653,0.123-0.881c0.01-1.466,0.03-2.928-0.002-4.396
		c-0.012-0.594,0.278-0.731,0.781-0.695c0.428,0.03,0.977-0.147,0.973,0.595c-0.015,2.864-0.03,5.725-0.05,8.587
		c0,0.056-0.058,0.112-0.094,0.171c-0.94,0.275-1.61,0.066-2.165-0.857c-1-1.656-2.137-3.231-3.408-4.789V41.981z"/>
	<path clip-path="url(#SVGID_2_)" fill="#5B707C" d="M113.743,72.777v1.614h-7.073V65.18h6.835v1.483h-4.99v2.117h4.54
		c0.499,1.4,0.325,1.662-1.007,1.662h-3.559v2.334H113.743z"/>
	<path clip-path="url(#SVGID_2_)" fill="#5B707C" d="M80.324,101.259c-0.573,0.065-1.072,0.123-1.548,0.178
		c-0.715-1.574-1.65-2.083-2.948-1.562c-0.324,0.132-0.669,0.544-0.723,0.869c-0.035,0.216,0.396,0.639,0.698,0.746
		c0.85,0.313,1.749,0.484,2.611,0.769c1.539,0.502,2.235,1.473,2.12,2.863c-0.108,1.275-1.121,2.382-2.568,2.528
		c-0.946,0.096-1.963,0.06-2.873-0.191c-1.451-0.402-2.176-1.658-2.046-3.199c0.485-0.06,0.988-0.121,1.476-0.18
		c0.536,1.756,1.764,2.472,3.314,1.887c0.391-0.149,0.887-0.617,0.909-0.959c0.021-0.325-0.454-0.849-0.827-0.999
		c-0.896-0.367-1.881-0.508-2.795-0.834c-1.385-0.496-1.986-1.439-1.763-2.761c0.077-0.453,0.28-0.97,0.594-1.289
		c1.184-1.213,2.679-1.206,4.181-0.821C79.532,98.663,80.203,99.669,80.324,101.259"/>
	<path clip-path="url(#SVGID_2_)" fill="#5B707C" d="M76.11,75.208c-2.586,0-4.681-2.1-4.681-4.683c0-2.584,2.095-4.683,4.681-4.683
		s4.681,2.099,4.681,4.683C80.791,73.108,78.696,75.208,76.11,75.208 M103.134,97.155c-7.002-10.737-13.999-21.474-21.02-32.203
		c-0.271-0.417-0.677-0.788-1.1-1.065c-8.983-5.88-17.978-11.743-26.966-17.608c-1.838-1.201-3.682-2.395-5.522-3.59
		c-0.04,0.041-0.081,0.083-0.12,0.123c0.136,0.238,0.256,0.482,0.406,0.709c6.951,10.656,13.896,21.311,20.863,31.956
		c0.275,0.418,0.689,0.784,1.113,1.058c10.617,6.945,21.247,13.869,31.879,20.8c0.196,0.126,0.409,0.225,0.827,0.446
		C103.29,97.421,103.221,97.287,103.134,97.155"/>
</g>
</svg>
