<?xml version="1.0" encoding="utf-8"?>
<!-- Generator: Adobe Illustrator 16.0.4, SVG Export Plug-In . SVG Version: 6.00 Build 0)  -->
<!DOCTYPE svg PUBLIC "-//W3C//DTD SVG 1.1//EN" "http://www.w3.org/Graphics/SVG/1.1/DTD/svg11.dtd">
<svg version="1.1" id="Layer_1" xmlns="http://www.w3.org/2000/svg" xmlns:xlink="http://www.w3.org/1999/xlink" x="0px" y="0px"
	 width="264.666px" height="69.059px" viewBox="0 0 264.666 69.059" enable-background="new 0 0 264.666 69.059"
	 xml:space="preserve">
<g>
	<path fill="#DADFE1" d="M25.487,20.677l-1.02,0.782c-0.562-0.732-1.238-1.288-2.025-1.665c-0.789-0.379-1.654-0.567-2.598-0.567
		c-1.031,0-1.986,0.248-2.865,0.743s-1.561,1.16-2.043,1.994c-0.484,0.836-0.726,1.774-0.726,2.817c0,1.576,0.54,2.892,1.622,3.946
		c1.08,1.055,2.444,1.582,4.091,1.582c1.811,0,3.325-0.709,4.544-2.127l1.02,0.773c-0.645,0.82-1.449,1.455-2.412,1.902
		c-0.965,0.449-2.041,0.673-3.23,0.673c-2.262,0-4.046-0.753-5.353-2.259c-1.096-1.271-1.644-2.807-1.644-4.605
		c0-1.893,0.664-3.484,1.99-4.777c1.328-1.291,2.99-1.938,4.988-1.938c1.207,0,2.297,0.239,3.27,0.717S24.866,19.815,25.487,20.677z
		"/>
	<path fill="#DADFE1" d="M33.484,21.397c1.474,0,2.694,0.533,3.663,1.6c0.88,0.973,1.32,2.124,1.32,3.454
		c0,1.336-0.465,2.504-1.396,3.503s-2.126,1.498-3.588,1.498c-1.468,0-2.667-0.499-3.597-1.498s-1.396-2.167-1.396-3.503
		c0-1.324,0.44-2.473,1.321-3.445C30.781,21.934,32.005,21.397,33.484,21.397z M33.479,22.602c-1.022,0-1.902,0.378-2.637,1.134
		s-1.103,1.67-1.103,2.742c0,0.691,0.167,1.336,0.503,1.934c0.335,0.598,0.787,1.059,1.358,1.385
		c0.57,0.324,1.196,0.487,1.878,0.487c0.683,0,1.309-0.163,1.879-0.487c0.57-0.326,1.023-0.787,1.358-1.385s0.503-1.242,0.503-1.934
		c0-1.072-0.369-1.986-1.107-2.742S34.497,22.602,33.479,22.602z"/>
	<path fill="#DADFE1" d="M41.666,21.644h1.23v4.465c0,1.09,0.059,1.84,0.177,2.25c0.176,0.586,0.512,1.049,1.008,1.389
		c0.495,0.34,1.086,0.51,1.773,0.51c0.686,0,1.269-0.165,1.746-0.496c0.479-0.331,0.809-0.767,0.99-1.306
		c0.124-0.369,0.186-1.151,0.186-2.347v-4.465h1.257v4.693c0,1.318-0.153,2.312-0.462,2.979c-0.307,0.668-0.77,1.19-1.389,1.569
		c-0.617,0.377-1.393,0.566-2.324,0.566s-1.709-0.189-2.334-0.566c-0.623-0.379-1.09-0.906-1.396-1.582
		c-0.309-0.678-0.462-1.695-0.462-3.055V21.644z"/>
	<path fill="#DADFE1" d="M53.847,21.644h1.23v1.714c0.492-0.656,1.037-1.147,1.635-1.472c0.598-0.326,1.248-0.488,1.951-0.488
		c0.715,0,1.35,0.182,1.902,0.545c0.555,0.363,0.963,0.853,1.227,1.468s0.396,1.573,0.396,2.874v4.922h-1.23v-4.562
		c0-1.102-0.046-1.837-0.137-2.206c-0.143-0.633-0.417-1.108-0.821-1.428s-0.932-0.479-1.582-0.479c-0.744,0-1.41,0.246-2,0.738
		c-0.588,0.492-0.977,1.102-1.164,1.828c-0.117,0.475-0.176,1.342-0.176,2.602v3.507h-1.23V21.644z"/>
	<path fill="#DADFE1" d="M66.976,18.093h1.23v3.551h1.951v1.063h-1.951v8.499h-1.23v-8.499h-1.678v-1.063h1.678V18.093z"/>
	<path fill="#DADFE1" d="M72.618,21.644h1.256v1.397c0.375-0.551,0.771-0.962,1.188-1.235c0.416-0.271,0.85-0.408,1.301-0.408
		c0.34,0,0.703,0.108,1.09,0.325L76.81,22.76c-0.258-0.111-0.475-0.167-0.65-0.167c-0.41,0-0.805,0.169-1.186,0.506
		s-0.672,0.859-0.871,1.568c-0.152,0.545-0.229,1.646-0.229,3.305v3.234h-1.256V21.644z"/>
	<path fill="#DADFE1" d="M78.55,21.644h1.301l3.285,7.363l3.191-7.363h1.311l-5.705,13.061h-1.299l1.84-4.223L78.55,21.644z"/>
	<path fill="#DADFE1" d="M96.556,18.277h1.292v11.681h4.975v1.248h-6.267V18.277z"/>
	<path fill="#DADFE1" d="M106.175,17.706c0.279,0,0.519,0.1,0.717,0.299c0.199,0.199,0.298,0.439,0.298,0.721
		c0,0.275-0.099,0.513-0.298,0.712c-0.198,0.199-0.438,0.299-0.717,0.299c-0.275,0-0.512-0.1-0.709-0.299
		c-0.199-0.199-0.298-0.437-0.298-0.712c0-0.281,0.099-0.521,0.298-0.721C105.663,17.806,105.899,17.706,106.175,17.706z
		 M105.563,21.644h1.23v9.562h-1.23V21.644z"/>
	<path fill="#DADFE1" d="M109.509,21.644h1.309l3.211,6.971l3.17-6.971h1.318l-4.377,9.562h-0.229L109.509,21.644z"/>
	<path fill="#DADFE1" d="M121.878,17.706c0.279,0,0.519,0.1,0.717,0.299c0.199,0.199,0.298,0.439,0.298,0.721
		c0,0.275-0.099,0.513-0.298,0.712c-0.198,0.199-0.438,0.299-0.717,0.299c-0.275,0-0.512-0.1-0.709-0.299
		c-0.199-0.199-0.298-0.437-0.298-0.712c0-0.281,0.099-0.521,0.298-0.721C121.366,17.806,121.603,17.706,121.878,17.706z
		 M121.267,21.644h1.23v9.562h-1.23V21.644z"/>
	<path fill="#DADFE1" d="M126.116,21.644h1.23v1.714c0.492-0.656,1.037-1.147,1.635-1.472c0.598-0.326,1.248-0.488,1.951-0.488
		c0.715,0,1.35,0.182,1.903,0.545s0.962,0.853,1.226,1.468s0.396,1.573,0.396,2.874v4.922h-1.23v-4.562
		c0-1.102-0.047-1.837-0.137-2.206c-0.143-0.633-0.417-1.108-0.821-1.428s-0.932-0.479-1.582-0.479c-0.744,0-1.411,0.246-2,0.738
		s-0.978,1.102-1.165,1.828c-0.117,0.475-0.176,1.342-0.176,2.602v3.507h-1.23V21.644z"/>
	<path fill="#DADFE1" d="M146.418,21.644h1.23v7.62c0,1.342-0.117,2.323-0.352,2.944c-0.322,0.879-0.882,1.556-1.679,2.03
		s-1.755,0.712-2.874,0.712c-0.82,0-1.558-0.116-2.21-0.348c-0.654-0.232-1.186-0.544-1.596-0.935
		c-0.41-0.392-0.788-0.963-1.134-1.715h1.336c0.364,0.633,0.833,1.102,1.407,1.406c0.576,0.305,1.289,0.457,2.139,0.457
		c0.84,0,1.548-0.156,2.125-0.469c0.578-0.312,0.99-0.705,1.236-1.178c0.247-0.474,0.37-1.237,0.37-2.291v-0.492
		c-0.464,0.586-1.029,1.036-1.698,1.349c-0.668,0.314-1.379,0.471-2.129,0.471c-0.88,0-1.707-0.218-2.48-0.654
		c-0.775-0.437-1.373-1.024-1.795-1.763c-0.423-0.738-0.634-1.55-0.634-2.435s0.22-1.709,0.659-2.475
		c0.44-0.764,1.049-1.369,1.826-1.814s1.597-0.668,2.459-0.668c0.715,0,1.383,0.148,2.002,0.443c0.619,0.297,1.215,0.784,1.79,1.464
		V21.644z M142.788,22.584c-0.697,0-1.345,0.169-1.942,0.505c-0.598,0.338-1.066,0.804-1.406,1.398s-0.51,1.237-0.51,1.929
		c0,1.049,0.352,1.916,1.055,2.602s1.614,1.028,2.733,1.028c1.131,0,2.041-0.34,2.729-1.02c0.689-0.68,1.033-1.573,1.033-2.681
		c0-0.721-0.158-1.363-0.475-1.929s-0.765-1.013-1.345-1.341S143.456,22.584,142.788,22.584z"/>
</g>
<g>
	<path fill="#DADFE1" d="M161.574,23.949c0.744,0,1.38,0.264,1.907,0.791s0.791,1.163,0.791,1.907c0,0.75-0.264,1.389-0.791,1.916
		s-1.163,0.791-1.907,0.791s-1.38-0.264-1.907-0.791s-0.791-1.166-0.791-1.916c0-0.744,0.264-1.38,0.791-1.907
		S160.83,23.949,161.574,23.949z"/>
</g>
<g>
	<path fill="#DADFE1" d="M187.79,20.677l-1.02,0.782c-0.562-0.732-1.237-1.288-2.025-1.665c-0.788-0.379-1.654-0.567-2.598-0.567
		c-1.031,0-1.986,0.248-2.865,0.743s-1.56,1.16-2.043,1.994c-0.483,0.836-0.725,1.774-0.725,2.817c0,1.576,0.54,2.892,1.621,3.946
		s2.445,1.582,4.092,1.582c1.811,0,3.324-0.709,4.543-2.127l1.02,0.773c-0.645,0.82-1.448,1.455-2.412,1.902
		c-0.964,0.449-2.041,0.673-3.23,0.673c-2.262,0-4.045-0.753-5.352-2.259c-1.096-1.271-1.645-2.807-1.645-4.605
		c0-1.893,0.664-3.484,1.991-4.777c1.327-1.291,2.989-1.938,4.987-1.938c1.207,0,2.297,0.239,3.27,0.717
		S187.169,19.815,187.79,20.677z"/>
	<path fill="#DADFE1" d="M191.688,17.706c0.28,0,0.519,0.1,0.718,0.299c0.198,0.199,0.297,0.439,0.297,0.721
		c0,0.275-0.099,0.513-0.297,0.712c-0.199,0.199-0.438,0.299-0.718,0.299c-0.274,0-0.511-0.1-0.709-0.299s-0.298-0.437-0.298-0.712
		c0-0.281,0.1-0.521,0.298-0.721S191.413,17.706,191.688,17.706z M191.077,21.644h1.23v9.562h-1.23V21.644z"/>
	<path fill="#DADFE1" d="M196.999,18.093h1.23v3.551h1.951v1.063h-1.951v8.499h-1.23v-8.499h-1.679v-1.063h1.679V18.093z"/>
	<path fill="#DADFE1" d="M202.078,21.644h1.301l3.286,7.363l3.191-7.363h1.31l-5.704,13.061h-1.3l1.841-4.223L202.078,21.644z"/>
	<path fill="#DADFE1" d="M220.084,18.277h1.292v11.681h4.975v1.248h-6.267V18.277z"/>
	<path fill="#DADFE1" d="M229.702,17.706c0.28,0,0.52,0.1,0.719,0.299c0.197,0.199,0.297,0.439,0.297,0.721
		c0,0.275-0.1,0.513-0.297,0.712c-0.199,0.199-0.438,0.299-0.719,0.299c-0.273,0-0.51-0.1-0.709-0.299
		c-0.197-0.199-0.297-0.437-0.297-0.712c0-0.281,0.1-0.521,0.297-0.721C229.192,17.806,229.429,17.706,229.702,17.706z
		 M229.092,21.644h1.23v9.562h-1.23V21.644z"/>
	<path fill="#DADFE1" d="M237.88,17.952v1.204c-0.451-0.193-0.838-0.29-1.16-0.29c-0.24,0-0.439,0.049-0.598,0.145
		c-0.158,0.098-0.258,0.209-0.299,0.334c-0.041,0.127-0.062,0.462-0.062,1.007v1.292h1.996v1.063h-1.998l-0.006,8.499h-1.23v-8.499
		h-1.258v-1.063h1.258v-1.494c0-0.686,0.062-1.175,0.188-1.468s0.34-0.528,0.642-0.708c0.302-0.178,0.666-0.268,1.094-0.268
		C236.845,17.706,237.323,17.788,237.88,17.952z"/>
	<path fill="#DADFE1" d="M248.724,28.033l1.037,0.545c-0.34,0.668-0.732,1.207-1.178,1.617c-0.446,0.41-0.947,0.723-1.505,0.937
		c-0.558,0.213-1.188,0.32-1.892,0.32c-1.561,0-2.779-0.511-3.659-1.533s-1.319-2.179-1.319-3.468c0-1.213,0.371-2.294,1.117-3.243
		c0.943-1.207,2.207-1.811,3.791-1.811c1.631,0,2.932,0.618,3.906,1.854c0.691,0.873,1.043,1.963,1.055,3.27h-8.604
		c0.023,1.11,0.378,2.021,1.064,2.731c0.686,0.71,1.533,1.065,2.543,1.065c0.486,0,0.961-0.085,1.421-0.254s0.853-0.394,1.175-0.674
		S248.349,28.658,248.724,28.033z M248.724,25.458c-0.164-0.656-0.402-1.181-0.717-1.573s-0.729-0.709-1.245-0.949
		s-1.06-0.36-1.628-0.36c-0.939,0-1.746,0.302-2.42,0.905c-0.493,0.439-0.865,1.099-1.117,1.978H248.724z"/>
</g>
<line fill="none" stroke="#CD181F" stroke-width="3" stroke-miterlimit="10" x1="13.261" y1="52.289" x2="186.041" y2="52.289"/>
<g>
	<circle fill="none" stroke="#CD181F" stroke-width="3" stroke-miterlimit="10" cx="193.478" cy="52.289" r="6.437"/>
</g>
<line fill="none" stroke="#CD181F" stroke-width="3" stroke-miterlimit="10" x1="200.915" y1="52.289" x2="250.805" y2="52.289"/>
</svg>
