<?xml version="1.0" standalone="no"?>
<!DOCTYPE svg PUBLIC "-//W3C//DTD SVG 1.1//EN" "http://www.w3.org/Graphics/SVG/1.1/DTD/svg11.dtd" >
<svg xmlns="http://www.w3.org/2000/svg">
<metadata></metadata>
<defs>
<font id="cabritonorm_regular_italic" horiz-adv-x="1239" >
<font-face units-per-em="2048" ascent="1567" descent="-481" />
<missing-glyph horiz-adv-x="479" />
<glyph unicode="&#xfb01;" horiz-adv-x="1206" d="M-4 29l12 51q4 16 10.5 21t26.5 5h76q43 0 62.5 12.5t29.5 55.5l158 744h-148q-23 0 -26.5 5t0.5 23l8 45q8 33 35 33h153l35 162q47 225 171 321.5t294 96.5q178 0 247.5 -65.5t47.5 -164.5q-10 -45 -45 -72.5t-72 -27.5q-39 0 -59.5 25.5t-10.5 70.5q8 47 54 78 q-25 18 -67 30.5t-109 12.5q-127 0 -203 -71.5t-111 -233.5l-35 -162h324l240 14q29 0 36 -13t-2 -44l-167 -795q-18 -86 47 -86q27 0 42 4.5t33 8.5q16 4 22.5 1t2.5 -20l-10 -53q-4 -14 -10.5 -21.5t-22.5 -13.5q-29 -8 -52.5 -11t-64.5 -3q-27 0 -55.5 6t-49 25.5 t-28.5 54.5t4 90l146 688q8 37 -6.5 48t-71.5 14h-379l-158 -744q-10 -43 4.5 -55.5t57.5 -12.5h75q20 0 24.5 -5t0.5 -21l-12 -51q-4 -16 -10.5 -22.5t-24.5 -6.5h-442q-33 0 -27 29z" />
<glyph unicode="&#xfb02;" horiz-adv-x="1224" d="M-4 29l12 51q4 16 10.5 21t26.5 5h76q43 0 62.5 12.5t29.5 55.5l158 744h-148q-23 0 -26.5 5t0.5 23l8 45q8 33 35 33h153l35 166q47 219 166 316.5t301 97.5t265 -96.5t36 -315.5l-213 -1006q-18 -86 45 -86q29 0 44 4.5t34 8.5q16 4 22.5 1t1.5 -20l-10 -53 q-4 -14 -10 -21.5t-25 -13.5q-29 -8 -51 -11t-63 -3q-27 0 -55.5 6t-49 25.5t-29 54.5t4.5 90l217 1024q35 166 -17.5 234.5t-167.5 68.5q-117 0 -195.5 -69.5t-113.5 -233.5l-35 -168h269q18 0 23 -5t1 -20l-12 -55q-4 -27 -33 -26h-270l-158 -744q-10 -43 4.5 -55.5 t57.5 -12.5h75q20 0 24.5 -5t0.5 -21l-12 -51q-4 -16 -10.5 -22.5t-24.5 -6.5h-442q-33 0 -27 29z" />
<glyph unicode="&#xfb03;" horiz-adv-x="1753" d="M-6 29l10 51q4 16 10 21t25 5h76q43 0 61.5 12.5t28.5 55.5l168 797h-148q-20 0 -24 5t0 23l10 48q6 31 33 30h151l17 70q72 354 432 354q98 0 155.5 -33.5t85.5 -93.5q61 111 164 170.5t244 59.5q170 0 239.5 -65.5t47.5 -164.5q-10 -45 -46 -72.5t-73 -27.5 q-39 0 -59.5 25.5t-10.5 70.5q12 57 64 84q-23 20 -65 32.5t-111 12.5q-129 0 -208 -71.5t-114 -231.5l-27 -119h285l242 15q29 0 35 -13.5t0 -44.5l-181 -848q-18 -86 48 -86q27 0 43 4.5t32 8.5t23.5 1t3.5 -20l-10 -53q-6 -25 -35 -35q-29 -8 -51.5 -11t-65.5 -3 q-27 0 -55.5 6t-49 25.5t-28.5 54.5t4 90l158 741q10 47 -15.5 54.5t-119.5 7.5h-285l-168 -797q-10 -43 5.5 -55.5t55.5 -12.5h76q23 0 27 -5t0 -21l-12 -51q-6 -29 -37 -29h-441q-33 0 -26 29l12 51q4 16 9 21t28 5h76q41 0 60.5 12.5t29.5 55.5l168 797h-461l-168 -797 q-10 -43 5 -55.5t59 -12.5h75q20 0 24.5 -5t0.5 -21l-12 -51q-4 -16 -10.5 -22.5t-24.5 -6.5h-443q-29 0 -22 29zM532 1077h461l25 113q10 88 -32 147.5t-155 59.5q-117 0 -185 -55.5t-95 -180.5z" />
<glyph unicode="&#xfb04;" horiz-adv-x="1800" d="M-6 29l10 51q4 16 10 21t25 5h76q43 0 61.5 12.5t28.5 55.5l168 797h-148q-20 0 -24 5t0 23l10 48q6 31 33 30h151l17 70q72 354 432 354q98 0 157.5 -31.5t85.5 -87.5q61 106 157.5 155.5t225.5 49.5q176 0 254 -91t31 -304l-176 -827h-2l-39 -191q-10 -43 4 -55.5 t57 -12.5h76q20 0 24.5 -5t0.5 -21l-12 -51q-4 -16 -10.5 -22.5t-24.5 -6.5h-443q-33 0 -26 29l12 51q4 16 10 21t27 5h76q43 0 62.5 12.5t29.5 55.5l47 227h2l166 781q35 164 -13.5 230.5t-152.5 66.5q-115 0 -188.5 -68t-108.5 -227l-23 -107h242q23 0 28 -4t1 -18 l-12 -58q-6 -27 -37 -26h-244l-168 -797q-10 -43 5.5 -55.5t55.5 -12.5h76q23 0 27 -5t0 -21l-12 -51q-6 -29 -37 -29h-441q-33 0 -26 29l12 51q4 16 9 21t28 5h76q41 0 60.5 12.5t29.5 55.5l168 797h-461l-168 -797q-10 -43 5 -55.5t59 -12.5h75q20 0 24.5 -5t0.5 -21 l-12 -51q-4 -16 -10.5 -22.5t-24.5 -6.5h-443q-29 0 -22 29zM532 1077h461l25 113q10 88 -32 147.5t-155 59.5q-117 0 -185 -55.5t-95 -180.5z" />
<glyph horiz-adv-x="0" />
<glyph horiz-adv-x="0" />
<glyph unicode="&#xd;" horiz-adv-x="512" />
<glyph unicode=" "  horiz-adv-x="479" />
<glyph unicode="&#x09;" horiz-adv-x="479" />
<glyph unicode="&#xa0;" horiz-adv-x="479" />
<glyph unicode="!" horiz-adv-x="512" d="M90 86q10 51 52 85t85 34t69 -29t13 -82q-10 -53 -51 -83.5t-88 -30.5q-43 0 -66.5 28.5t-13.5 77.5zM211 365q55 256 83 421.5t44 278.5t26.5 193.5t28.5 166.5q23 109 111 109q84 0 61 -109q-18 -86 -41.5 -166.5t-56.5 -193.5t-74 -278.5t-96 -421.5q-2 -10 -10 -17.5 t-37 -7.5t-35 7t-4 18z" />
<glyph unicode="&#x22;" horiz-adv-x="755" d="M295 1106l61 364q2 16 18.5 23.5t63.5 7.5t59.5 -7t8.5 -24l-94 -364q-4 -16 -17.5 -23.5t-46.5 -7.5q-35 0 -45 6t-8 25zM659 1106l62 364q0 16 16.5 23.5t63.5 7.5t60 -7t9 -24l-96 -364q-4 -16 -16.5 -23.5t-46.5 -7.5q-33 0 -44.5 6t-7.5 25z" />
<glyph unicode="#" horiz-adv-x="1693" d="M92 492q6 31 26.5 39t55.5 8h244l282 448h-262q-35 0 -42 16.5t-3 43.5q6 31 27.5 39t56.5 8h289l209 329q27 39 46 55.5t73 16.5q63 0 32 -65l-39 -70l-169 -266h462l209 329q27 39 47.5 55.5t73.5 16.5q61 0 31 -65l-39 -70l-170 -266h217q29 0 29 -20.5t-4 -39.5 q-4 -23 -16.5 -35t-41.5 -12h-252l-284 -448h266q29 0 29 -20.5t-5 -39.5q-4 -23 -16 -35t-41 -12h-301l-258 -412q-18 -29 -33.5 -36t-48.5 -7q-61 0 -53 46q4 14 8 26t18 31l220 352h-467l-258 -412q-18 -29 -34 -36t-48 -7q-61 0 -54 46q4 14 8.5 26t18.5 31l219 352 h-215q-35 0 -42 16.5t-1 43.5zM565 539h467l283 448h-465z" />
<glyph unicode="$" horiz-adv-x="1163" d="M63 293l29 -2l-8 14q-8 16 1 34.5t27.5 34t43 26t45.5 10.5q41 0 66.5 -30t15.5 -81q-10 -41 -36 -68.5t-59 -40.5q33 -57 115 -82.5t193 -25.5q80 0 151.5 15.5t127.5 49t96 89t57 137.5q27 123 -18.5 190.5t-126.5 106.5t-179 66.5t-178 70.5t-124 118.5t-15 211.5 q37 174 157.5 259t303.5 99l34 164q6 39 45 41h66q23 0 27 -11.5t0 -27.5l-35 -164q201 -12 283 -97t51 -226q-10 -53 -52.5 -85t-85.5 -32q-45 0 -68.5 29.5t-13.5 80.5q8 37 34 65t57 40q-35 66 -114 92.5t-179 26.5q-137 0 -237.5 -53.5t-129.5 -182.5 q-23 -106 25.5 -163.5t130.5 -93.5t180 -63.5t177 -77.5t120 -136t8 -236q-23 -106 -72 -181t-117.5 -123t-153.5 -72.5t-181 -31.5l-41 -190q-6 -41 -45 -43h-66q-23 0 -26.5 12.5t0.5 28.5l41 190q-201 10 -288 90t-59 228z" />
<glyph unicode="%" horiz-adv-x="1800" d="M199 919.5q-2 77.5 16 163.5t53 164t89.5 136.5t128 92t167.5 33.5q96 0 156.5 -33.5t90.5 -92t33 -136.5t-15 -164t-54.5 -163.5t-90.5 -136t-129 -93.5t-171 -35q-94 0 -153.5 35t-89 93.5t-31.5 136zM313 49q-4 10 5.5 26.5t19.5 26.5l1264 1403q20 23 29 28t26 1 q10 -2 28.5 -15.5t18.5 -29.5q6 -12 -2 -27.5t-25 -31.5l-1265 -1401q-31 -39 -62 -23q-12 4 -26.5 15.5t-10.5 27.5zM331 953q-1 -60 16.5 -105t53 -70.5t93.5 -25.5q63 0 111 25.5t83 70.5t59.5 105.5t38.5 127.5q14 68 14.5 128.5t-17 105.5t-54.5 71.5t-96 26.5 q-55 0 -101.5 -26.5t-83 -71.5t-62.5 -105.5t-40 -128.5t-15 -128zM1022 246q-2 78 16 164t53 163.5t89.5 136t128 92.5t170.5 34q96 0 155.5 -34t90 -92.5t33.5 -136t-15 -163.5t-54 -164t-91.5 -136.5t-129 -93t-170.5 -34.5q-96 0 -155.5 34.5t-89 93t-31.5 136.5z M1154 279.5q-1 -60.5 16.5 -105.5t53.5 -70.5t95 -25.5q61 0 109.5 25.5t84 70.5t59 105.5t38.5 128.5q14 68 14 128t-16.5 105t-53.5 71.5t-96 26.5q-55 0 -101 -26.5t-83 -71.5t-63.5 -105.5t-41.5 -127.5q-14 -68 -15 -128.5z" />
<glyph unicode="&#x26;" horiz-adv-x="1478" d="M102 403q18 88 59.5 157t95.5 116t120.5 73.5t136.5 32.5q-41 8 -84 27.5t-74.5 57.5t-44 99.5t7.5 155.5q37 172 170.5 274.5t354.5 102.5q98 0 176 -21.5t128 -62.5t71.5 -98t5.5 -129q-10 -53 -51 -80t-84 -27q-45 0 -69.5 28t-14.5 79q8 35 31.5 60.5t54.5 35.5 q-35 47 -100.5 76t-164.5 29q-160 0 -251 -76t-117 -199q-33 -150 43 -214t225 -64h733q27 0 35 -7.5t2 -42.5l-33 -223q-2 -16 -7 -22t-27 -6h-48q-23 0 -27.5 4t-2.5 20l14 117q4 35 -8 41t-64 6h-209l-116 -545q-10 -47 1 -60.5t52 -13.5h59q18 0 23.5 -4t1.5 -20 l-12 -51q-4 -29 -33 -29h-529q-113 0 -202.5 23.5t-147 73.5t-80 126t-0.5 180zM254 406q-33 -147 51 -217t266 -68l242 2l129 600h-240q-74 0 -146.5 -17.5t-134 -55.5t-105.5 -98t-62 -146z" />
<glyph unicode="'" horiz-adv-x="391" d="M295 1106l61 364q2 16 18.5 23.5t63.5 7.5t59.5 -7t8.5 -24l-94 -364q-4 -16 -17.5 -23.5t-46.5 -7.5q-35 0 -45 6t-8 25z" />
<glyph unicode="(" horiz-adv-x="731" d="M150 631q55 260 235 479.5t481 366.5q33 16 43 -13q14 -31 -12 -49q-254 -154 -407.5 -351.5t-204.5 -432.5q-47 -236 22.5 -433.5t257.5 -351.5q18 -18 -10 -49q-14 -16 -23.5 -19t-25.5 7q-236 147 -324 366.5t-32 479.5z" />
<glyph unicode=")" horiz-adv-x="729" d="M-64 -175.5q1 11.5 17 21.5q254 154 407.5 351.5t204.5 433.5q47 236 -22.5 433.5t-257.5 350.5q-14 18 10 49q14 16 24.5 19.5t26.5 -6.5q236 -147 323 -366.5t33 -479.5q-57 -260 -236 -479.5t-480 -366.5q-35 -16 -45 12q-6 16 -5 27.5z" />
<glyph unicode="*" horiz-adv-x="917" d="M242 920q-10 23 6 46t47 40q37 18 70.5 30.5t67.5 23.5t70 23.5t75 32.5q-31 23 -60 36t-57.5 25.5t-57 26t-57.5 33.5q-23 16 -28 41t14 47q20 23 48 23t50 -17q53 -41 85 -85t87 -91q8 41 9 75t1 66.5t2 66.5t11 73q6 31 25.5 52t45.5 21q29 0 39 -22.5t2 -52.5 q-16 -78 -43.5 -138.5t-50.5 -144.5q41 23 73 45.5t61.5 45t60 44t67.5 41.5q33 16 57.5 14t34.5 -24q10 -23 -8 -46.5t-47 -39.5q-37 -20 -70.5 -32.5t-67.5 -25t-69 -24.5t-78 -33l-2 -2q33 -20 63 -33.5t57.5 -25t55 -24.5t56.5 -36q23 -16 28 -42.5t-16 -49.5 q-18 -23 -46 -23.5t-50 15.5q-29 23 -48.5 45.5t-38 46t-39 47t-48.5 45.5q-6 -41 -8.5 -74.5t-2.5 -65.5t-2 -63.5t-10 -70.5q-6 -31 -26.5 -53.5t-49.5 -22.5q-27 0 -37 21.5t-4 52.5q16 78 46 137t51 137q-76 -45 -127 -87t-123 -83q-29 -16 -56.5 -13t-37.5 26z" />
<glyph unicode="+" horiz-adv-x="1021" d="M151 656.5q-1 19.5 3 37.5q6 35 20 42t37 7h317l70 330q4 20 24.5 27.5t41.5 7.5q29 0 41 -8t6 -35l-68 -322h344q23 0 24 -18t-3 -33q-6 -29 -16.5 -42t-35.5 -13h-335l-76 -350q-4 -23 -24.5 -29t-39.5 -6q-33 0 -42 13.5t-5 37.5l72 334h-334q-20 0 -21 19.5z" />
<glyph unicode="," horiz-adv-x="524" d="M6 -227q-14 16 17 37q43 31 85 79t62 91q-41 2 -61.5 30.5t-10.5 75.5q10 51 50 85t90 34q43 0 66.5 -32t10.5 -93q-18 -88 -93 -171t-163 -149q-16 -10 -24 -12t-19 10z" />
<glyph unicode="-" horiz-adv-x="843" d="M184 618l9 46q4 18 11 24t27 6h527q20 0 22 -7t-2 -23l-8 -46q-4 -18 -11 -24t-24 -6h-526q-18 0 -23.5 6t-1.5 24z" />
<glyph unicode="." horiz-adv-x="460" d="M63 86q10 51 51.5 85t86.5 34q43 0 67.5 -29t12.5 -82q-10 -53 -51.5 -83.5t-86.5 -30.5q-43 0 -66.5 28.5t-13.5 77.5z" />
<glyph unicode="/" horiz-adv-x="892" d="M-29.5 -37q-1.5 6 15.5 33l950 1509q14 23 22.5 30t20.5 3l90 -18q16 -4 13 -14.5t-15 -30.5l-958 -1516q-12 -20 -18.5 -26.5t-22.5 -2.5l-82 23q-14 4 -15.5 10z" />
<glyph unicode="0" horiz-adv-x="1368" d="M151.5 453.5q-8.5 144.5 26.5 310.5q35 160 100.5 296t158.5 235.5t214 156.5t264 57q152 0 252.5 -59t153.5 -162.5t60.5 -246t-27.5 -308.5q-35 -160 -101.5 -299t-160 -241.5t-213.5 -161t-261 -58.5q-150 0 -251 61.5t-154 168t-61.5 251zM298 473q3 -125 41 -212 t109.5 -134t176.5 -47q104 0 196 47t167 134t131 212t89 281q29 139 29 256.5t-36 206t-107.5 137.5t-186.5 49q-113 0 -207 -49t-166.5 -137.5t-125 -207t-80.5 -257.5q-33 -154 -30 -279z" />
<glyph unicode="1" horiz-adv-x="700" d="M7.5 5q-5.5 5 0.5 34l6 37q4 20 11.5 25t27.5 5h58q78 0 108.5 13.5t40.5 54.5l240 1131q6 33 0 37t-45 -11l-138 -49q-33 -12 -26 21l10 53q4 16 12.5 24.5t32.5 18.5l227 78q20 8 35 10t27 2q27 0 33 -13.5t0 -43.5l-267 -1258q-10 -43 15.5 -55.5t103.5 -12.5h62 q20 0 23 -5t-1 -25l-6 -35q-6 -29 -14.5 -35t-24.5 -6h-528q-18 0 -23.5 5z" />
<glyph unicode="2" horiz-adv-x="1165" d="M20 45l5 29q6 29 32.5 56.5t67.5 62.5l676 565q86 72 149.5 154.5t85.5 185.5q12 57 5 109.5t-37.5 92t-87 63t-140.5 23.5q-104 0 -199.5 -33.5t-154.5 -92.5q29 -10 45 -37t6 -68q-10 -53 -50 -79.5t-85 -26.5q-43 0 -67.5 27.5t-14.5 78.5q16 80 64.5 143.5t119 107.5 t161.5 67.5t194 23.5q121 0 202.5 -30.5t129 -84t61.5 -126t-4 -156.5q-27 -123 -113 -231.5t-203 -204.5l-663 -549h571q33 0 52.5 2t31.5 10t21.5 21.5t17.5 33.5l57 191q10 16 18.5 22t31.5 6h47q33 0 24 -32l-96 -320q-10 -35 -23.5 -42t-44.5 -7h-860q-23 0 -31 7 t-2 38z" />
<glyph unicode="3" horiz-adv-x="1177" d="M21.5 46q-1.5 7 3.5 22l12 65q6 23 24 23q10 0 26.5 -6.5t33.5 -10.5q53 -16 136 -30.5t194 -14.5q217 0 336.5 79t154.5 233q18 88 0 148t-63 97t-112 53.5t-144 16.5h-50q-27 0 -31.5 4t1.5 31l10 49q4 23 13 27t32 4h47q158 0 266.5 64.5t139.5 211.5q27 127 -34 202 t-224 75q-98 0 -180.5 -28t-135.5 -75q23 -10 35 -35.5t4 -60.5q-10 -53 -50 -80t-85 -27q-43 0 -67.5 27t-14.5 78q14 74 58 132t112 98t153 60.5t183 20.5q231 0 325.5 -106.5t57.5 -276.5q-20 -94 -61.5 -154.5t-91.5 -98.5t-102 -55t-95 -26q68 -6 123 -32.5t89.5 -73.5 t46 -115.5t-6.5 -159.5q-47 -217 -211 -322.5t-435 -105.5q-72 0 -140 6.5t-123.5 15.5t-94.5 19.5t-53 18.5q-10 6 -11.5 13z" />
<glyph unicode="4" horiz-adv-x="1116" d="M28.5 312q-3.5 5 0.5 24l10 45q6 25 16 29l944 1042q16 16 29.5 21.5t30.5 5.5h80q53 0 0 -60l-920 -1005h483l70 319q4 14 9 22.5t28 8.5h82q23 0 26 -7t-2 -22l-69 -321h203q35 0 28 -25l-12 -55q-6 -27 -37 -27h-205l-24 -117q-10 -53 3 -68.5t54 -15.5h70q20 0 24 -5 t0 -21l-10 -49q-4 -14 -11 -22.5t-26 -8.5h-436q-33 0 -27 29l13 49q4 16 10 22t26 6h78q37 0 55.5 13.5t30.5 56.5l27 131h-625q-23 0 -26.5 5z" />
<glyph unicode="5" horiz-adv-x="1112" d="M13 33.5q-1 9.5 3 25.5l9 54q4 16 13 24t15 4q23 -6 97.5 -27.5t224.5 -21.5q213 0 347 84t179 291q20 94 9 158.5t-49 103.5t-99.5 56.5t-145.5 17.5q-27 0 -63.5 -1t-76.5 -2t-80 -3t-72 -2q-16 -4 -56 -4q-20 0 -27.5 14t11.5 63l209 576q14 35 55 35h582 q51 0 65.5 -14.5t3.5 -73.5l-28 -172q-6 -41 -35 -41h-47q-10 0 -17.5 7t-5.5 38l6 67q4 53 -14 63.5t-84 10.5h-381l-170 -461q43 4 122 6t165 2q92 0 172 -19.5t134 -71.5t73.5 -142t-10.5 -234q-27 -125 -86.5 -214t-145.5 -146t-195.5 -84t-238.5 -27q-55 0 -109.5 4.5 t-100.5 10.5t-81 14t-53 14q-23 8 -24 17.5z" />
<glyph unicode="6" horiz-adv-x="1202" d="M130 388q3 128 36 284q90 426 295 627.5t510 201.5q92 0 163.5 -11t90.5 -15q25 -8 26.5 -13.5t-2.5 -23.5l-14 -62q-4 -25 -16.5 -25.5t-38.5 3.5q-68 16 -121 20t-92 4q-270 0 -424 -175t-234 -523q41 82 94.5 136t115 87t126 47.5t123.5 14.5q104 0 188 -30 t137.5 -91.5t71 -154.5t-9.5 -220q-27 -129 -83 -221t-133 -152.5t-173.5 -89.5t-202.5 -29q-162 0 -257 50.5t-137 141.5t-39 219zM286 314.5q7 -68.5 40.5 -119t94 -79t148.5 -28.5q74 0 143.5 22.5t128 69.5t102.5 121t65 176q35 168 -35 269.5t-236 101.5 q-82 0 -154.5 -27.5t-130 -78t-97.5 -122t-58 -157.5q-18 -80 -11 -148.5z" />
<glyph unicode="7" horiz-adv-x="1021" d="M139 31l924 1333h-563q-61 0 -84 -11.5t-37 -56.5l-31 -110q-8 -16 -16 -22.5t-25 -6.5h-55q-16 0 -19.5 7t3.5 26l55 223q14 47 28.5 56.5t61.5 9.5h844q14 0 16 -5.5t0 -15.5l-8 -39q-8 -39 -59 -116l-875 -1272q-12 -16 -21.5 -23.5t-25.5 -7.5h-100q-33 0 -13 31z " />
<glyph unicode="8" horiz-adv-x="1269" d="M104 432q23 98 70 168t104.5 116t118 71.5t109.5 35.5q-92 33 -133 110t-13 206q37 178 173 269t337 91q195 0 293.5 -85t73.5 -251q-12 -82 -47 -151q-37 -72 -98.5 -119t-133.5 -72q43 -10 92.5 -36.5t86.5 -76t53 -124t-6 -183.5q-27 -117 -86.5 -198.5t-142.5 -133 t-185 -74t-213 -22.5q-113 0 -207 23.5t-157.5 78t-88 141.5t-0.5 216zM251 261.5q17 -62.5 61 -102.5t112 -57.5t149 -17.5q84 0 160 17.5t137.5 57.5t104.5 102.5t61 152.5q14 68 7 129t-42.5 107t-100 75t-165.5 31q-111 0 -193.5 -25.5t-142 -72t-95.5 -108.5t-52 -136 q-18 -90 -1 -152.5zM500 1130q-29 -135 41.5 -196.5t199.5 -61.5q59 0 116.5 14.5t106 46.5t83 81t49.5 119q29 133 -42 196.5t-202 63.5q-129 0 -226.5 -63.5t-125.5 -199.5z" />
<glyph unicode="9" horiz-adv-x="1224" d="M66 47l16 76q8 29 37 20q47 -12 119.5 -28.5t171.5 -16.5q266 0 420.5 165t234.5 517q-43 -78 -98.5 -129t-114.5 -81.5t-121.5 -43t-118.5 -12.5q-104 0 -187 34t-135 98.5t-69.5 158.5t6.5 215q23 106 74 194.5t127 152t174 99t217 35.5q162 0 255 -53t134 -145.5 t38 -217t-34 -270.5q-92 -438 -288.5 -638t-520.5 -200q-49 0 -109.5 5.5t-111.5 14.5t-85 21.5t-31 28.5zM369 851q12 -71 49 -120t96 -74.5t137 -25.5t149.5 25.5t129 73.5t97.5 116.5t58 152.5q39 180 -31.5 282.5t-242.5 102.5q-86 0 -158.5 -27.5t-128 -77.5 t-93.5 -118.5t-56 -150.5q-18 -88 -6 -159z" />
<glyph unicode=":" horiz-adv-x="471" d="M68 86q10 51 52 85t87 34q41 0 66.5 -29t13.5 -82q-10 -53 -51 -83.5t-89 -30.5q-43 0 -66 28.5t-13 77.5zM199 700q10 51 52 85t87 34q41 0 65.5 -28.5t14.5 -81.5t-51 -84t-88 -31q-43 0 -66.5 28.5t-13.5 77.5z" />
<glyph unicode=";" horiz-adv-x="518" d="M-31 -256q2 6 11 12q59 43 112 103.5t80 120.5q-37 4 -58.5 31.5t-11.5 74.5q10 51 52.5 85t85.5 34t68.5 -29t13.5 -82q-4 -23 -15 -39q-31 -98 -112.5 -188t-180.5 -162q-12 -10 -15 -8t-7 4q-14 10 -17.5 17.5t-5.5 19.5v6zM229 700q10 51 52.5 85t85.5 34t67.5 -28.5 t14.5 -81.5t-52.5 -84t-87.5 -31q-43 0 -66.5 28.5t-13.5 77.5z" />
<glyph unicode="&#x3c;" horiz-adv-x="1208" d="M114.5 505.5q-8.5 22.5 2.5 65.5q10 43 27.5 65.5t58.5 39.5l948 385q47 20 65.5 9t18.5 -42q-2 -35 -10 -52.5t-58 -35.5l-907 -369l752 -368q41 -18 41 -35.5t-13 -52.5q-12 -31 -35.5 -42.5t-62.5 9.5l-784 385q-35 16 -43.5 38.5z" />
<glyph unicode="=" horiz-adv-x="1118" d="M160.5 465.5q-2.5 19.5 1.5 36.5q6 35 22.5 43t44.5 8h760q29 0 30 -19.5t-3 -35.5q-4 -23 -16.5 -37.5t-41.5 -14.5h-768q-27 0 -29.5 19.5zM222 756.5q-3 19.5 1 36.5q6 35 22.5 43t45.5 8h760q29 0 29.5 -19.5t-3.5 -36.5q-4 -23 -16 -37t-41 -14h-768q-27 0 -30 19.5 z" />
<glyph unicode="&#x3e;" horiz-adv-x="1208" d="M66 115q-2 -31 17 -41.5t67 8.5l950 385q41 16 58.5 38.5t27.5 65.5h-144l-909 -368q-47 -18 -55 -35.5t-12 -52.5zM245 975.5q-1 17.5 9 52.5q12 31 36.5 42t65.5 -9l785 -385q35 -16 43 -39t-2 -66h-144l-753 369q-39 18 -40 35.5z" />
<glyph unicode="?" horiz-adv-x="1017" d="M229 1092.5q0 17.5 17 33.5l12 13h-27q12 59 51.5 121.5t106 116t159.5 87t216 33.5q104 0 178 -28.5t117 -78t57 -117t-2 -145.5q-20 -100 -69.5 -177t-110 -139t-127 -114.5t-124.5 -103.5t-101 -104.5t-58 -116.5l-4 -21q-4 -23 -16 -28t-29 -5h-49q-29 0 -36 14.5 t-1 43.5q16 76 59.5 135t101.5 113.5t123.5 104.5t124 108.5t105 126t64.5 155.5q10 49 4 97.5t-34 86t-78 60t-126 22.5q-117 0 -198.5 -43t-128.5 -104q27 -10 39 -35.5t4 -62.5q-12 -53 -51.5 -81t-84.5 -28q-23 0 -42 8.5t-30.5 21.5t-11.5 30.5zM287 78q10 49 50 78.5 t83 29.5t68.5 -27.5t15.5 -78.5q-12 -53 -51 -81t-84 -28q-43 0 -67.5 28t-14.5 79z" />
<glyph unicode="@" horiz-adv-x="1732" d="M158.5 386q-29.5 138 7.5 308q35 166 123 310.5t216 251t289.5 168t346.5 61.5q150 0 271.5 -45t201.5 -130t110.5 -209t-4.5 -284q-25 -113 -75 -212t-115.5 -173t-142 -117t-152.5 -43q-80 0 -117 46.5t-24 127.5q-72 -82 -167.5 -128t-187.5 -46q-57 0 -107 20.5 t-84 62.5t-46.5 105.5t6.5 151.5q20 98 74.5 192.5t134.5 169.5t181 120t216 45q90 0 145.5 -26t81 -69t28.5 -99t-11 -116q-16 -70 -47 -135t-74 -147q-8 -20 -13 -36.5t-10 -33.5q-12 -57 6.5 -82.5t55.5 -25.5q47 0 99 37.5t99.5 100t84 143.5t55.5 167q31 139 2 246.5 t-99.5 179.5t-173 109t-223.5 37q-160 0 -297 -57.5t-244.5 -154t-181 -224.5t-102.5 -267q-33 -150 -7.5 -269.5t96.5 -204.5t181.5 -130t251.5 -45q53 0 112.5 6t121 18.5t119 28.5t102.5 37q37 16 51 18t8 -22l-8 -31q-4 -16 -9 -26.5t-30 -22.5q-29 -16 -82 -33.5 t-118.5 -32t-141.5 -23.5t-149 -9q-172 0 -304.5 53t-216.5 151.5t-113.5 236.5zM629 600q-25 -117 15 -175t128 -58q68 0 140.5 33.5t137 95t113.5 144.5t70 181q45 223 -141 223q-84 0 -161 -39.5t-138.5 -103t-104.5 -143.5t-59 -158z" />
<glyph unicode="A" horiz-adv-x="1394" d="M-55 29l10 45q4 20 12 26t25 6l65 3q27 0 43.5 13t49.5 73l686 1265q12 18 20 24.5t37 6.5h90q20 0 27.5 -6t11.5 -23l152 -1257q4 -33 8 -51.5t12 -28.5t23.5 -13t39.5 -3l46 -3q27 0 31 -5q2 -3 3 -9q0 -6 -2 -16l-8 -45q-4 -20 -11 -25.5t-34 -5.5h-385q-23 0 -31 5 t-4 24l10 45q4 18 12.5 24t37.5 6h36q39 2 55.5 9.5t20.5 25.5q4 25 -2 60l-35 301h-559l-166 -312q-19 -37 -19 -54q1 -7 3 -11q10 -14 61 -17h37q27 -2 32 -8t1 -26l-8 -41q-4 -20 -13.5 -25.5t-31.5 -5.5h-365q-14 0 -21 5q-4 3 -4 12q0 5 1 12zM496 604h489l-86 752z " />
<glyph unicode="B" horiz-adv-x="1298" d="M14 29l11 45q8 33 38 32q45 0 74 2.5t45.5 11.5t25.5 25.5t15 44.5l238 1115q3 13 3 24q0 40 -42 41h-92q-12 0 -19.5 5t-3.5 26l10 49q4 18 11.5 23.5t29.5 5.5h531q113 0 195.5 -19.5t134 -63.5t66.5 -116q6 -29 6 -63q0 -50 -13 -111q-16 -76 -49 -132t-74 -95 t-86 -61.5t-86 -29.5l-2 -2q66 -12 117 -40.5t83.5 -78t42.5 -119.5q4 -26 4 -54q0 -49 -11 -107q-27 -125 -88.5 -200.5t-144.5 -116.5t-179 -55.5t-195 -14.5h-567q-17 0 -25 5q-6 3 -5 13q0 5 1 11zM348 109h293q61 0 127 9t126 39.5t106.5 88t66.5 155.5q11 51 11 94 q0 101 -61 157q-87 79 -263 79h-275zM504 844h280q287 0 349 274q9 42 9 76q0 28 -6 51q-14 49 -48.5 77t-89 38t-119.5 10h-263z" />
<glyph unicode="C" horiz-adv-x="1380" d="M156 402q-8 51 -8 108q0 104 26 229q35 164 110.5 303.5t186.5 240.5t255 157.5t316 56.5q135 0 223.5 -32.5t137.5 -84.5t63 -116q7 -33 6 -64q0 -31 -6 -61q-12 -53 -52 -80t-83 -27q-45 0 -69 26q-17 19 -18 51q0 13 3 28q10 43 41 69.5t68 34.5q-29 61 -108 103 t-218 42q-152 0 -271.5 -54t-208.5 -147t-147.5 -215t-87.5 -257q-21 -103 -21 -195q0 -26 2 -50q8 -114 60 -197t152 -130t258 -47q86 0 158.5 11.5t132 29t106.5 36.5t82 34q20 10 31.5 10t5.5 -25l-12 -67q-2 -12 -9.5 -20.5t-31.5 -20.5q-27 -14 -73 -32.5t-109.5 -34 t-141.5 -27t-170 -11.5q-162 0 -284.5 46.5t-197.5 140.5t-97 238z" />
<glyph unicode="D" horiz-adv-x="1466" d="M14 29l11 45q8 33 36 32q47 0 76 2.5t45.5 11.5t25.5 25.5t15 44.5l238 1115q3 14 3 25q0 41 -42 42h-92q-12 0 -19.5 4t-3.5 25l10 49q4 18 11.5 23.5t29.5 5.5h453q407 1 563 -191q102 -125 102 -333q0 -109 -28 -242q-76 -362 -308.5 -537.5t-631.5 -175.5h-467 q-15 0 -23 5q-5 3 -5 12q0 5 1 12zM348 113h170q340 0 528.5 149.5t258.5 474.5q26 119 26 215q-1 172 -83 268q-128 150 -466 150h-166z" />
<glyph unicode="E" horiz-adv-x="1249" d="M14 29l11 45q8 33 36 32q47 0 76 2.5t45.5 11.5t25.5 25.5t15 44.5l238 1115q3 14 3 25q0 41 -42 42h-92q-12 0 -19.5 4t-3.5 25l10 49q4 18 11.5 23.5t29.5 5.5h893q55 1 69 -13q9 -8 9 -36q0 -19 -4 -48l-31 -198q-4 -31 -10 -40t-31 -9h-41q-23 0 -29.5 7t-2.5 38 l12 96q4 35 -1 54.5t-21.5 28.5t-48 11t-79.5 2h-426l-124 -590h286q18 0 35.5 11.5t28.5 46.5l20 80q4 20 12.5 25t30.5 5h35q23 0 28 -6t1 -24l-82 -385q-4 -16 -10.5 -23.5t-24.5 -7.5h-41q-23 0 -29 6t-2 25l13 79q6 35 -6.5 48.5t-30.5 13.5h-287l-121 -570h520 q33 0 52.5 3.5t32 10.5t21.5 22.5t17 39.5l60 191q8 16 16 22t31 6h47q33 0 24 -32l-96 -320q-10 -35 -23.5 -42t-43.5 -7h-965q-15 0 -23 5q-5 3 -5 12q0 5 1 12z" />
<glyph unicode="F" horiz-adv-x="1204" d="M14 29l13 49q4 16 11 22t28 6h67q41 0 60.5 15.5t29.5 68.5l238 1115q3 14 3 25q0 41 -42 42h-92q-12 0 -19.5 4t-3.5 25l10 49q4 18 11.5 23.5t29.5 5.5h918q56 1 70 -13q9 -8 8 -36q0 -19 -4 -48l-29 -198q-4 -31 -11 -40t-32 -9h-41q-23 0 -30 7t-3 38l13 96 q4 35 -1.5 54.5t-21.5 28.5t-48 11t-79 2h-451l-127 -596h312q18 0 36.5 12.5t26.5 47.5l23 79q4 20 12 25.5t31 5.5h35q23 0 26.5 -6t-0.5 -27l-80 -383q-4 -16 -11 -23t-26 -7h-40q-23 0 -29 6t-2 22l14 82q6 35 -7 47.5t-32 12.5h-311l-105 -496q-8 -43 6.5 -55.5 t55.5 -12.5h70q20 0 24 -5t0 -21l-10 -49q-4 -14 -11.5 -22.5t-25.5 -8.5h-428q-21 0 -27 6q-4 4 -4 12q0 5 2 11z" />
<glyph unicode="G" horiz-adv-x="1433" d="M156 408q-10 54 -10 115q0 103 26 225q35 166 110.5 304t186.5 236t253 153.5t310 55.5q131 0 222.5 -29.5t144.5 -80t71 -115.5q8 -34 8 -68t-8 -69q-10 -53 -50 -80t-85 -27q-43 0 -67 26q-18 19 -18 51q0 13 3 28q10 41 41 69.5t70 36.5q-29 66 -112 106.5t-228 40.5 q-143 0 -261 -52t-208 -143t-150.5 -212t-89.5 -258q-21 -102 -21 -189q0 -41 4 -78q15 -118 71.5 -199t151.5 -123t224 -42t224.5 31t167.5 67l77 369q4 18 -4 25.5t-24 7.5h-258q-25 0 -23 26l13 54q6 31 28 30h402q35 0 28 -32l-135 -635q-6 -33 -35 -33h-53 q-33 0 -33 29l2 37q-72 -35 -169 -64t-218 -29q-154 0 -276.5 48.5t-200.5 144.5t-102 242z" />
<glyph unicode="H" horiz-adv-x="1523" d="M14 29l13 49q4 16 10 22t26 6h70q41 0 59.5 15.5t28.5 68.5l234 1098q5 26 5 43t-6 25q-10 16 -51 16h-73q-20 0 -24.5 5t-0.5 26l10 45q4 20 12.5 25.5t24.5 5.5h428q18 0 23.5 -5.5t1.5 -25.5l-10 -45q-4 -23 -10.5 -27t-26.5 -4h-76q-41 0 -57.5 -15.5t-28.5 -68.5 l-107 -500h723l107 500q5 26 5 44q0 16 -5 24q-10 16 -51 16h-74q-20 0 -24.5 5t-0.5 26l11 45q4 20 12 25.5t25 5.5h428q18 1 23 -5q3 -3 3 -11q0 -6 -2 -15l-10 -45q-4 -23 -10.5 -27t-26.5 -4h-76q-41 0 -57 -15.5t-29 -68.5l-233 -1098q-4 -22 -4 -38q0 -22 8 -30 q14 -16 55 -16h72q20 0 23 -5t-1 -21l-10 -49q-4 -14 -11 -22.5t-24 -8.5h-430q-33 0 -26 29l12 49q4 16 10 22t27 6h69q41 0 59.5 15.5t28.5 68.5l105 492h-723l-105 -492q-4 -22 -4 -37q0 -21 8 -31q14 -16 56 -16h72q20 0 23 -5t-1 -21l-10 -49q-4 -14 -11.5 -22.5 t-23.5 -8.5h-430q-28 0 -28 21q0 4 1 8z" />
<glyph unicode="I" horiz-adv-x="659" d="M14 29l13 49q4 16 10 22t26 6h70q41 0 59.5 15.5t28.5 68.5l234 1098q5 26 5 43t-6 25q-10 16 -51 16h-73q-20 0 -24.5 5t-0.5 26l10 45q4 20 12.5 25.5t24.5 5.5h428q18 1 24 -5q3 -3 3 -12q0 -6 -2 -14l-10 -45q-4 -23 -10.5 -27t-26.5 -4h-76q-41 0 -57.5 -15.5 t-28.5 -68.5l-234 -1098q-4 -22 -4 -37q0 -21 8 -31q14 -16 56 -16h72q20 0 23 -5t-1 -21l-10 -49q-4 -14 -11.5 -22.5t-23.5 -8.5h-430q-28 0 -28 21q0 4 1 8z" />
<glyph unicode="J" horiz-adv-x="1042" d="M32 172q-3 21 -3 42q0 36 8 73q10 51 49 79.5t86 28.5t70 -27q15 -20 15 -50q0 -13 -3 -29q-10 -45 -41 -72t-66 -33q16 -53 70.5 -74.5t122.5 -21.5q70 0 127 27.5t100 75t73 113t46 140.5l178 844q5 26 5 43.5t-5 24.5q-10 16 -51 16h-74q-20 0 -24 5t0 26l10 45 q4 20 11 25.5t26 5.5h428q18 0 24 -5q2 -3 2 -10q0 -6 -2 -16l-10 -45q-4 -23 -10 -27t-27 -4h-75q-41 0 -57.5 -15.5t-28.5 -68.5l-183 -856q-20 -100 -61 -183t-101.5 -142.5t-140.5 -92t-180 -32.5q-102 0 -168 25.5t-99.5 67.5t-40.5 97z" />
<glyph unicode="K" horiz-adv-x="1398" d="M14 29l13 49q4 16 10 22t26 6h70q41 0 59.5 15.5t28.5 68.5l234 1098q5 26 5 43t-6 25q-10 16 -51 16h-73q-20 0 -24.5 5t-0.5 26l10 45q4 20 12.5 25.5t24.5 5.5h428q18 0 23.5 -5.5t1.5 -25.5l-10 -45q-4 -23 -10.5 -27t-26.5 -4h-76q-41 0 -57.5 -15.5t-28.5 -68.5 l-125 -588l690 613q41 35 41 47t-28 12h-60q-18 0 -21 13.5t1 29.5l8 33q4 20 11 25.5t24 5.5h403q18 1 24 -5q3 -3 3 -12q0 -6 -2 -14l-9 -41q-4 -16 -11 -25.5t-27 -9.5h-86q-31 0 -68 -18.5t-90 -65.5l-481 -426h2q113 0 176 -62.5t96 -159.5t46 -217t24 -237 q6 -55 25.5 -73.5t56.5 -18.5q31 0 90 29q16 10 24 3t4 -24l-10 -47q-4 -18 -13 -28.5t-34 -22.5t-57.5 -19.5t-57.5 -7.5q-27 0 -52.5 4.5t-48 20.5t-39.5 49t-26 90q-12 80 -18 187.5t-29.5 206t-76 166t-156.5 67.5h-33l-248 -221l-76 -357q-4 -22 -4 -37q0 -21 8 -31 q14 -16 56 -16h72q20 0 23 -5t-1 -21l-10 -49q-4 -14 -11.5 -22.5t-23.5 -8.5h-430q-28 0 -28 21q0 4 1 8z" />
<glyph unicode="L" horiz-adv-x="1189" d="M14 29l11 45q8 33 36 32q47 0 76 2.5t45.5 11.5t25.5 25.5t15 44.5l234 1098q5 26 5 43t-6 25q-10 16 -50 16h-74q-20 0 -24.5 5t-0.5 26l10 45q4 20 12.5 25.5t24.5 5.5h428q18 0 23.5 -5.5t1.5 -25.5l-10 -45q-4 -23 -10.5 -27t-26.5 -4h-76q-41 0 -57.5 -15.5 t-28.5 -68.5l-250 -1182h481q33 0 52.5 3.5t32 10.5t21.5 22.5t17 39.5l60 191q8 16 16 22t31 6h47q26 0 26 -20q0 -5 -2 -12l-94 -320q-10 -35 -24.5 -42t-42.5 -7h-928q-15 0 -23 5q-5 3 -5 12q0 5 1 12z" />
<glyph unicode="M" horiz-adv-x="1886" d="M6 29l10 49q4 20 11.5 24t27.5 4h74q47 0 65.5 9.5t26.5 40.5l244 1149q2 10 2 19q1 32 -23 39q-30 9 -71 11h-39q-20 0 -25.5 7.5t-1.5 21.5l10 45q4 20 12.5 25.5t26.5 5.5h297q25 0 32 -12.5t11 -30.5l213 -1321l756 1333q12 18 25.5 24.5t48.5 6.5h270q19 1 25 -5 q4 -3 4 -13q0 -6 -2 -13l-8 -39q-6 -33 -41 -35l-99 -2q-16 0 -36.5 -10t-30.5 -53l-240 -1135q-10 -43 -1 -55.5t44 -12.5h96q23 0 27 -8t0 -28l-8 -39q-4 -20 -12.5 -25.5t-28.5 -5.5h-445q-18 0 -24 5t-2 26l8 39q6 37 41 36h92q35 0 51.5 13.5t26.5 54.5l227 1069 l-680 -1216q-10 -18 -21 -24.5t-44 -6.5h-101q-23 0 -32 6t-15 23l-202 1235l-234 -1104q-8 -33 8.5 -41.5t63.5 -8.5h76q18 0 23 -4t1 -24l-10 -47q-4 -20 -12.5 -25.5t-24.5 -5.5h-436q-19 0 -25 5q-4 3 -4 12q0 5 2 12z" />
<glyph unicode="N" horiz-adv-x="1556" d="M10 29l10 47q4 20 12.5 25t26.5 5h66q43 0 62.5 10.5t25.5 41.5l246 1153q4 39 -9.5 50t-52.5 11h-61q-20 0 -24.5 5t-0.5 26l11 47q4 18 11 23.5t25 5.5h220q43 0 53 -31l524 -1239l238 1112q6 33 -8.5 42t-57.5 9h-67q-18 0 -23.5 4t-1.5 25l10 47q4 20 12.5 25.5 t24.5 5.5h412q16 1 22 -5q4 -3 4 -12q0 -5 -2 -12l-10 -47q-4 -20 -11 -25.5t-26 -5.5h-65q-43 0 -62.5 -10t-25.5 -41l-279 -1305q-6 -32 -41 -32h-2h-35q-16 0 -30.5 6t-20.5 20l-541 1247l-233 -1099q-8 -33 8 -42.5t59 -9.5h68q18 0 23.5 -4t1.5 -24l-11 -47 q-4 -20 -12 -25.5t-24 -5.5h-412q-15 0 -23 5q-5 3 -5 12q0 5 1 12z" />
<glyph unicode="O" horiz-adv-x="1593" d="M148 472q-1 28 -1 55q0 115 25 233q29 129 88 260t159.5 238.5t245 175t343.5 67.5q207 0 333.5 -67.5t190.5 -177.5q66 -110 74 -252q2 -30 2 -62q0 -112 -25 -227q-27 -127 -87 -258t-159.5 -238.5t-245 -176.5t-346.5 -69q-207 0 -334.5 68t-191 178.5t-71.5 252.5z M299 514.5q0 -115.5 43 -211.5t138 -157.5t261 -61.5q168 0 289 62.5t203 158.5t130 211t71 217q23 104 23 217q0 120 -44 218q-43 98 -138 160.5t-263 62.5q-162 0 -281 -60.5t-202 -155t-133 -210t-74 -226.5q-23 -109 -23 -224.5z" />
<glyph unicode="P" horiz-adv-x="1230" d="M14 29l13 49q4 16 11 22t28 6h67q41 0 60.5 15.5t29.5 68.5l238 1115q3 14 3 25q0 41 -42 42h-92q-12 0 -19.5 4t-3.5 25l10 49q4 18 11.5 23.5t29.5 5.5h439q145 0 251.5 -26t171 -82t82.5 -147q7 -35 8 -77q0 -66 -18 -148q-25 -113 -80 -195.5t-135 -138t-182 -82 t-221 -26.5h-232l-77 -367q-4 -23 -4 -39q0 -21 7 -29q13 -16 56 -16h70q20 0 24 -5t0 -21l-10 -49q-4 -14 -11.5 -22.5t-25.5 -8.5h-428q-21 0 -27 6q-4 4 -4 12q0 5 2 11zM465 664h190q418 0 494 360q13 61 13 110q0 106 -61 160q-89 78 -308 78h-177z" />
<glyph unicode="Q" horiz-adv-x="1593" d="M148 478q-2 25 -2 49q0 115 26 233q29 129 88 260t159.5 238.5t245 175t343.5 67.5q207 0 333.5 -67.5t191 -178t73.5 -251.5q1 -31 1 -62q0 -112 -24 -227q-23 -100 -64.5 -207t-109.5 -201t-162 -170t-219 -119q31 -14 55.5 -36.5t46.5 -57.5q35 -53 71 -101t83 -48 q20 0 43 5t62 21q37 12 28 -18l-12 -57q-6 -25 -41 -39q-63 -29 -127 -29q-53 0 -88 14.5t-60.5 41t-49 61.5t-56.5 75q-29 35 -57.5 56.5t-60 36t-71.5 20.5t-92 10l-2 2q-193 8 -311.5 78t-176.5 178.5t-64 246.5zM299 514.5q0 -115.5 43 -211.5t138 -157.5t261 -61.5 q168 0 289 62.5t203 158.5t130 211t71 217q23 104 23 217q0 120 -44 218q-43 98 -138 160.5t-263 62.5q-162 0 -281 -60.5t-202 -155t-133 -210t-74 -226.5q-23 -109 -23 -224.5z" />
<glyph unicode="R" horiz-adv-x="1267" d="M14 29l13 49q4 16 10 22t26 6h70q41 0 59.5 15.5t28.5 68.5l238 1115q3 14 3 25q0 41 -42 42h-92q-12 0 -19.5 4t-3.5 25l10 49q4 18 11.5 23.5t29.5 5.5h439q261 -1 373 -109q76 -74 76 -208q0 -64 -17 -142q-35 -172 -137.5 -269.5t-243.5 -132.5q59 -45 91 -147 t64 -291q10 -55 29 -71.5t53 -16.5q16 0 40 5t53 20q20 10 26 5t2 -18l-10 -49q-4 -18 -12 -27.5t-33 -21.5q-27 -12 -59.5 -20.5t-65.5 -8.5q-27 0 -51.5 4.5t-47 21.5t-40 50t-29.5 88q-12 61 -23.5 140t-36 150t-69.5 119t-123 48h-153l-89 -408q-4 -22 -4 -37 q0 -21 8 -31q14 -16 56 -16h72q20 0 23 -5t-1 -21l-10 -49q-4 -14 -11.5 -22.5t-23.5 -8.5h-430q-28 0 -28 21q0 4 1 8zM473 705h186q174 0 277.5 79.5t142.5 259.5q12 57 12 104q-1 95 -51 147q-76 77 -254 77h-172z" />
<glyph unicode="S" horiz-adv-x="1161" d="M63 293q10 53 48.5 85t89.5 32q47 0 71 -27q16 -19 16 -51q0 -14 -3 -29q-10 -41 -39 -67.5t-64 -34.5q33 -63 120 -91t210 -28q78 0 147.5 15.5t125 49t94.5 89t55 137.5q8 42 8 77q0 42 -12 74q-22 58 -69.5 96.5t-115 63.5t-137 49.5t-135 54t-111.5 76.5t-66 120 q-9 33 -9 75q0 49 12 108q37 176 164 254t323 78q258 0 362 -88q79 -66 79 -168q0 -33 -8 -69q-10 -53 -51.5 -80t-84.5 -27q-45 1 -69 27q-16 19 -16 49q0 13 3 28q8 39 34 66t61 37q-37 63 -122 90t-186 27q-141 0 -237 -53.5t-125 -182.5q-7 -35 -6 -65q0 -42 12 -73 q22 -54 71.5 -89t117 -59.5t137 -49t135 -57.5t112 -84t64.5 -129q8 -33 8 -74q0 -54 -14 -119q-23 -109 -75 -182.5t-127 -117.5t-167 -63.5t-194 -19.5q-250 0 -360 81q-85 63 -84 171q0 32 7 68z" />
<glyph unicode="T" horiz-adv-x="1214" d="M232 1151q-1 2 -1 5q0 7 5 22l67 252q10 35 20.5 42t38.5 7h965q29 1 36 -7q4 -5 4 -21q0 -9 -1 -21l-37 -252q-4 -18 -10 -25.5t-31 -7.5h-43q-23 0 -29 5t-6 24l21 145q4 35 -12.5 42t-71.5 7h-256l-250 -1178q-4 -23 -4 -39q0 -21 7 -29q13 -16 56 -16h72 q20 0 23.5 -5t-0.5 -21l-11 -49q-4 -14 -11 -22.5t-23 -8.5h-431q-33 0 -26 29l12 49q4 16 10.5 22t26.5 6h70q41 0 59 15.5t29 68.5l250 1178h-271q-47 0 -62.5 -7t-25.5 -42l-43 -145q-6 -20 -14 -24.5t-31 -4.5h-45q-23 0 -26 6z" />
<glyph unicode="U" horiz-adv-x="1527" d="M249 308q-2 26 -2 54q0 81 19 177l160 749q5 26 5 44q0 16 -5 24q-10 16 -51 16h-74q-20 0 -24.5 5t-0.5 26l11 45q4 20 12 25.5t25 5.5h428q18 0 23 -5.5t1 -25.5l-10 -45q-4 -23 -10 -27t-27 -4h-76q-41 0 -57 -15.5t-29 -68.5l-155 -737q-19 -89 -18 -160 q0 -107 42 -173q72 -108 277 -109q90 0 169 22.5t143.5 74.5t111.5 138t73 211l158 737q5 23 5 39q0 17 -6 25q-11 16 -52 16h-74q-18 0 -23.5 5t-0.5 26l10 45q4 20 12 25.5t25 5.5h413q19 1 25 -5q4 -3 4 -13q0 -6 -2 -13l-10 -45q-4 -23 -11.5 -27t-27.5 -4h-76 q-41 0 -56.5 -14.5t-25.5 -65.5l-160 -747q-59 -287 -222 -423t-421 -136q-143 0 -238.5 37.5t-146.5 110t-60 174.5z" />
<glyph unicode="V" horiz-adv-x="1392" d="M217 1403l10 45q4 20 12.5 25.5t32.5 5.5h383q25 0 31 -5.5t2 -23.5l-10 -45q-4 -18 -11.5 -24.5t-35.5 -6.5h-37q-68 -2 -74 -35q-6 -20 0 -59l131 -1149l627 1159q22 38 22 56q0 6 -2 10q-10 14 -63 16h-37q-27 2 -32 8t-1 27l9 41q4 20 13 25.5t32 5.5h370q15 1 21 -5 q4 -3 4 -12q0 -5 -2 -12l-10 -45q-4 -20 -11.5 -26.5t-23.5 -6.5l-70 -2q-27 0 -43 -13.5t-49 -72.5l-688 -1270q-12 -18 -20.5 -24t-37.5 -6h-90q-20 0 -27 6t-12 22l-149 1262q-4 33 -8 51t-12.5 28.5t-23.5 13.5t-40 3l-45 2q-27 0 -33 5q-4 3 -4 12q0 6 2 14z" />
<glyph unicode="W" horiz-adv-x="2035" d="M227 1407l9 45q4 16 9 21.5t21 5.5h412q18 0 22.5 -5.5t-0.5 -21.5l-10 -53q-4 -14 -9 -20.5t-22 -6.5q-72 0 -100.5 -4t-32.5 -29q-6 -18 -2 -59l66 -1139l577 1286q16 35 22.5 43.5t24.5 8.5h101q16 0 19 -9.5t5 -44.5l60 -1245l524 1094q16 35 21.5 54.5t-4 28.5 t-35 12t-72.5 3q-31 0 -25 29l11 51q4 16 9 21.5t27 5.5h377q18 1 22 -5q2 -3 3 -10q0 -6 -2 -14l-10 -49q-4 -14 -8.5 -21.5t-26.5 -7.5q-43 0 -68.5 -3t-43 -13t-32 -33t-32.5 -61l-594 -1239q-14 -27 -24.5 -32t-33.5 -5h-75q-23 0 -30 8t-9 29l-58 1230l-551 -1230 q-12 -27 -22 -33t-33 -6h-106q-18 0 -26.5 7t-8.5 29l-84 1254q-2 37 -6 56.5t-16.5 28.5t-36 11t-64.5 2q-23 0 -28 7q-3 4 -3 12q0 7 2 16z" />
<glyph unicode="X" horiz-adv-x="1288" d="M-53 31l8 43q4 14 12 24.5t25 10.5h57q29 0 50.5 11t66.5 62l489 582l-229 524q-25 55 -42 68.5t-62 13.5h-46q-27 0 -20 29l10 55q4 16 10.5 20.5t22.5 4.5h365q14 0 20 -3t2 -20l-12 -55q-6 -29 -35 -29h-61q-23 0 -25 -8t8 -31l197 -448l364 434q29 35 25 44t-31 9 h-55q-29 0 -21 27l11 51q4 18 10 23.5t22 5.5h361q16 -1 19 -7q1 -3 1 -7q0 -6 -2 -15l-10 -47q-4 -16 -9 -23.5t-22 -7.5h-53q-33 0 -56.5 -11t-64.5 -56l-442 -529l256 -573q29 -66 47 -80t47 -14h45q27 0 30 -8.5t1 -22.5l-10 -43q-4 -18 -10.5 -26.5t-28.5 -8.5h-351 q-27 0 -31.5 8t-0.5 27l8 39q4 16 11 24t36 8h51q18 0 25.5 7.5t-12.5 54.5l-216 485l-411 -491q-33 -39 -26 -46t36 -7h61q27 0 21 -33l-8 -45q-4 -18 -11.5 -24.5t-23.5 -6.5h-371q-16 0 -21 6q-3 3 -3 11q0 6 2 14z" />
<glyph unicode="Y" horiz-adv-x="1273" d="M229 1405l11 45q4 18 11 23.5t23 5.5h381q18 0 23.5 -5.5t1.5 -23.5l-8 -43q-4 -20 -11.5 -27.5t-27.5 -7.5h-53q-35 0 -46.5 -10t5.5 -51l176 -596l452 598q29 41 24 50t-38 9h-59q-20 0 -23.5 8.5t0.5 28.5l8 41q4 18 12.5 23.5t24.5 5.5h359q16 0 20 -7q2 -4 2 -9.5 t-2 -12.5l-8 -43q-4 -20 -11.5 -27.5t-27.5 -7.5h-57q-14 0 -23.5 -1t-21 -9t-24.5 -22.5t-36 -43.5l-520 -667l-96 -455q-8 -43 6 -55.5t55 -12.5h70q20 0 24 -5t0 -21l-10 -49q-4 -14 -11 -22.5t-26 -8.5h-428q-20 0 -26.5 6t-1.5 23l12 49q4 16 11 22t28 6h67 q39 0 57.5 13.5t30.5 56.5l88 420l-223 692q-16 51 -30.5 66.5t-49.5 15.5h-57q-20 0 -26 7q-3 4 -3 13q0 6 2 15z" />
<glyph unicode="Z" horiz-adv-x="1196" d="M18 43l7 43q6 27 18 39l1085 1247h-569q-39 0 -63.5 -6t-43 -29.5t-36 -67.5t-43.5 -122q-12 -39 -39 -39h-62q-14 0 -14 11t6 34l80 293q8 33 45 33h905q23 1 25 -13q1 -4 1 -10q0 -10 -3 -22l-6 -35q-4 -14 -15.5 -31.5t-21.5 -30.5l-1073 -1231h633q27 0 44 5.5 t34.5 26t39 63.5t58.5 118q8 20 16 29.5t29 9.5h47q16 0 17 -9t-7 -32l-94 -286q-6 -16 -15.5 -23.5t-29.5 -7.5h-942q-16 1 -16 22q0 9 3 21z" />
<glyph unicode="[" horiz-adv-x="557" d="M45 -258l365 1720q10 39 24.5 53.5t48.5 14.5h199q33 0 44 -8.5t7 -22.5l-8 -35q-4 -29 -17.5 -35t-43.5 -6h-125l-349 -1642h125q31 0 40.5 -8.5t4.5 -30.5l-8 -35q-4 -14 -16 -23.5t-47 -9.5h-199q-33 0 -44 14.5t-1 53.5z" />
<glyph unicode="\" horiz-adv-x="841" d="M289 1413q-6 23 0 49q8 33 63 33q51 0 61.5 -13.5t20.5 -58.5l277 -1339q4 -14 6 -29.5t-2 -25.5q-4 -23 -20.5 -37.5t-51.5 -14.5q-41 0 -53 13.5t-21 58.5z" />
<glyph unicode="]" horiz-adv-x="559" d="M-70 -293l9 35q4 23 16 31t41 8h125l348 1642h-125q-31 0 -40 6.5t-5 34.5l8 35q4 14 17.5 22.5t46.5 8.5h198q35 0 45.5 -14.5t-0.5 -53.5l-364 -1720q-10 -39 -25.5 -53.5t-48.5 -14.5h-194q-35 0 -44.5 9.5t-7.5 23.5z" />
<glyph unicode="^" horiz-adv-x="1126" d="M192.5 856q-12.5 14 18.5 51l508 590q23 29 43 35t49 6t47.5 -6t28.5 -35l258 -590q16 -37 -3.5 -51t-54.5 -14q-45 0 -55 10t-24 45l-228 498l-434 -498q-31 -33 -46 -44t-60 -11q-35 0 -47.5 14z" />
<glyph unicode="_" horiz-adv-x="1726" d="M29.5 -129.5q-2.5 20.5 1.5 39.5q8 35 29.5 44t56.5 9h1360q25 0 26.5 -21.5t-2.5 -35.5q-6 -29 -17 -42.5t-40 -13.5h-1385q-27 0 -29.5 20.5z" />
<glyph unicode="`" horiz-adv-x="559" d="M271 1437.5q-3 10.5 10 24.5l51 66q10 10 20 12t35 -14l242 -144q16 -10 15 -18t-11 -23l-17 -24q-10 -12 -19 -14.5t-32 8.5l-266 106q-25 10 -28 20.5z" />
<glyph unicode="a" horiz-adv-x="1214" d="M121 520q29 129 83 237.5t132 187.5t179 123t220 44q92 0 153.5 -25.5t110.5 -64.5l2 16q8 31 19.5 44.5t40.5 13.5l233 -17q16 -2 22 -8q3 -3 3 -10q0 -5 -2 -12l-10 -56q-4 -14 -14.5 -18t-22.5 -6h-92q-27 -4 -42.5 -14.5t-25.5 -53.5l-152 -715q-4 -19 -4 -34 q0 -52 50 -52q29 0 44 4.5t33 8.5q16 4 23.5 1t3.5 -20l-10 -53q-6 -25 -35 -35q-29 -8 -52.5 -11t-64.5 -3q-27 0 -55.5 6t-49 25.5t-28.5 54.5q-3 14 -3 31q0 26 7 59l2 14q-72 -106 -173 -157.5t-224 -51.5q-193 1 -276 137q-49 80 -49 208q0 89 24 202zM243 346v-7 q1 -70 21 -125q22 -58 70.5 -93t130.5 -35q143 0 252.5 110.5t177.5 335.5l78 371q-35 41 -100.5 68.5t-149.5 27.5q-96 0 -173 -43t-135.5 -113.5t-96 -160.5t-58.5 -182q-16 -80 -17 -154z" />
<glyph unicode="b" horiz-adv-x="1157" d="M100 56q-1 4 0 8q0 7 2 16l275 1296q8 35 0 49.5t-39 16.5h-96q-20 2 -22.5 9t1.5 24l8 38q4 23 10.5 28t24.5 7l244 15h7q23 -1 28 -13q6 -14 0 -45l-137 -639q72 119 166 182.5t225 63.5q209 0 287 -136q45 -79 46 -207q0 -93 -24 -212q-20 -109 -63.5 -214t-115 -187 t-178 -132.5t-255.5 -50.5q-156 0 -251.5 25t-123.5 41q-17 7 -19 17zM248 127q63 -23 124.5 -31t127.5 -8q109 0 186.5 39t131.5 104.5t88 149.5t52 176q18 88 22 168q1 14 1 28q-1 63 -17 113q-20 62 -68 97.5t-134 35.5q-141 0 -250 -111.5t-176 -338.5z" />
<glyph unicode="c" horiz-adv-x="1062" d="M108 320q-2 27 -3 55q0 81 20 174q29 129 86 233.5t140 178t188.5 113.5t228.5 40q100 0 165.5 -25.5t100.5 -65.5q36 -40 46 -88q5 -23 4 -47q0 -24 -5 -48q-10 -47 -45 -76t-80 -29q-42 1 -64 27q-15 18 -15 44q0 13 4 28q8 35 29.5 60.5t47.5 39.5q-25 29 -76 48 t-132 19q-102 0 -182.5 -36.5t-138.5 -100t-96.5 -148.5t-58.5 -179q-16 -78 -16 -145q0 -17 1 -33q5 -80 40 -137.5t104.5 -89.5t178.5 -32q119 0 200.5 28t130.5 48q27 10 33 6t2 -24l-10 -52q-4 -20 -10 -27t-27 -18q-37 -20 -132 -48.5t-224 -28.5q-141 0 -233.5 41 t-142 116t-59.5 179z" />
<glyph unicode="d" horiz-adv-x="1202" d="M123 512q29 131 82 241.5t132 190.5t179 124t219 44q98 0 154.5 -24.5t109.5 -65.5l74 354q8 35 -1 49.5t-38 16.5h-96q-20 2 -22.5 9t2.5 24l8 38q4 23 10 28t25 7l243 15h7q23 -1 28 -13q3 -7 3 -18.5t-3 -26.5l-281 -1319q-4 -19 -4 -34q0 -52 50 -52q29 0 44 4.5 t33 8.5q16 4 22.5 1t2.5 -20l-10 -53q-4 -14 -10.5 -21.5t-22.5 -13.5q-29 -8 -52.5 -11t-64.5 -3q-27 0 -55.5 6t-49 25.5t-28.5 54.5q-3 14 -3 31q0 26 7 59l4 16q-76 -104 -181 -157.5t-222 -53.5q-194 1 -272 141q-46 83 -46 205q0 87 23 193zM243 345v-6 q-1 -71 21 -126q22 -57 71.5 -92t129.5 -35q143 0 252.5 110.5t177.5 335.5l78 371q-37 43 -99.5 69.5t-150.5 26.5q-96 0 -173 -43t-135.5 -113.5t-96 -160.5t-58.5 -182q-16 -80 -17 -155z" />
<glyph unicode="e" horiz-adv-x="1069" d="M106 310q-1 20 -1 42q0 87 22 191q29 129 80 234.5t125 180t168 115.5t207 41q203 0 287 -93q58 -64 58 -165q0 -47 -12 -102q-35 -150 -150.5 -240t-332.5 -90q-80 0 -159 12.5t-142 40.5q-10 -64 -10 -117q0 -119 51 -179q74 -87 235 -87q94 0 170 19.5t107 31.5 q45 16 66.5 26.5t31.5 10.5q16 0 11 -20l-11 -53q-4 -18 -13 -27.5t-38 -24.5q-20 -10 -56 -23.5t-81 -24.5t-97.5 -18t-105.5 -7q-135 0 -223 38.5t-134.5 111t-52.5 176.5zM279 582q68 -29 143.5 -41.5t146.5 -12.5q152 0 236 62.5t108 179.5q8 38 8 69q0 169 -229 169 q-154 0 -258 -113t-155 -313z" />
<glyph unicode="f" horiz-adv-x="720" d="M-301 -319q10 45 45 72.5t72 27.5t60 -25q17 -16 17 -42q0 -13 -4 -27q-6 -29 -24.5 -50.5t-40.5 -33.5q31 -18 76 -19q96 0 153.5 66.5t79.5 177.5l242 1139h-152q-23 0 -26.5 5t0.5 23l8 45q8 33 35 33h157l25 113q45 215 148.5 316.5t269.5 101.5q135 0 187 -66 q37 -46 37 -108q0 -27 -7 -56q-10 -45 -45 -72.5t-72 -27.5q-39 0 -60 26q-13 17 -13 43q0 12 3 27q6 31 28 55.5t48 34.5q-16 16 -44 27.5t-73 11.5q-104 0 -169.5 -69.5t-100.5 -229.5l-27 -127h267q33 0 26 -24l-10 -56q-6 -27 -37 -26h-268l-238 -1114 q-35 -168 -128 -267.5t-250 -99.5q-117 0 -164 58q-35 44 -35 99q0 18 4 38z" />
<glyph unicode="g" horiz-adv-x="1204" d="M-18 -231q10 41 43.5 67.5t70.5 26.5t62 -23q17 -17 17 -44q0 -11 -3 -23q-6 -31 -26.5 -53.5t-45.5 -34.5q27 -45 92.5 -64.5t151.5 -19.5q164 0 278.5 90t157.5 297l43 196q-76 -104 -181 -157.5t-222 -53.5q-193 0 -270 141q-47 83 -47 208q0 85 22 190 q29 131 82 241.5t132 190.5t179 124t219 44q98 0 154.5 -24.5t109.5 -65.5l3 16q8 31 20 44.5t41 13.5l229 -15q18 -2 24 -8q5 -4 5 -11q0 -5 -2 -11l-12 -54q-4 -14 -13.5 -17t-25.5 -7h-88q-39 -4 -51.5 -22.5t-22.5 -69.5l-188 -887q-57 -266 -206 -385t-390 -119 q-74 0 -142.5 13.5t-118 46t-73.5 86.5q-15 31 -15 72q0 28 7 61zM247 345v-6q0 -71 21 -126q23 -57 71 -92t128 -35q143 0 252.5 110.5t177.5 335.5l78 371q-37 43 -99.5 69.5t-150.5 26.5q-96 0 -173 -43t-134.5 -113.5t-95 -160.5t-58.5 -182q-16 -80 -17 -155z" />
<glyph unicode="h" horiz-adv-x="1236" d="M143 29l289 1349q6 35 -3 48.5t-38 15.5h-98q-20 2 -22.5 10t1.5 25l9 39q4 23 10 26.5t24 5.5l244 15h7q23 -1 28 -13q6 -14 0 -45l-127 -598q66 106 166 156.5t211 50.5q160 0 240 -88q53 -59 53 -160q0 -50 -13 -110l-120 -570q-4 -19 -4 -34q0 -52 49 -52 q29 0 44 4.5t31 8.5t24 1q5 -2 4 -10q0 -4 -1 -10l-10 -53q-6 -25 -35 -35q-29 -8 -51.5 -11t-65.5 -3q-27 0 -55.5 6t-48 25.5t-27.5 54.5q-3 14 -3 31q0 26 7 59l119 563q12 50 12 90q0 61 -27 103q-44 68 -167 69q-158 0 -261.5 -117.5t-148.5 -330.5l-110 -516 q-4 -16 -10.5 -22.5t-24.5 -6.5h-76q-26 0 -26 20q0 4 1 9z" />
<glyph unicode="i" horiz-adv-x="606" d="M207 78q-3 14 -3 31q0 26 7 59l158 739q6 35 -2.5 48.5t-38.5 15.5h-97q-20 2 -22 10t2 25l8 38q4 23 10.5 27t24.5 6l244 15q29 2 35 -12.5t-1 -45.5l-180 -848q-4 -19 -4 -34q0 -52 49 -52q29 0 44.5 4.5t33.5 8.5q16 4 22.5 1t2.5 -20l-11 -53q-4 -14 -10 -21.5 t-24 -13.5q-29 -8 -51.5 -11t-65.5 -3q-27 0 -54.5 6t-48 25.5t-28.5 54.5zM436 1440q10 53 50 86t87 33q41 0 65 -31q16 -21 17 -51q0 -14 -4 -29q-12 -53 -52 -83t-87 -30q-42 0 -64 28q-16 19 -15 49q0 13 3 28z" />
<glyph unicode="j" horiz-adv-x="528" d="M-322 -319q10 45 44 72.5t73 27.5q37 0 59 -25q16 -16 16 -43q0 -12 -3 -26q-12 -57 -64 -84q33 -18 76 -19q96 0 153.5 66.5t80.5 177.5l229 1083q8 35 -1 48.5t-38 15.5h-98q-20 2 -22.5 10t1.5 25l9 39q4 23 10 26.5t24 5.5l242 15h3q37 0 37 -35q0 -10 -3 -23 l-252 -1185q-35 -168 -129 -267.5t-252 -99.5q-117 0 -164 58q-35 44 -35 99q0 18 4 38zM403 1440q10 53 50.5 86t87.5 33q41 0 65 -31q18 -22 18 -53q0 -13 -3 -27q-12 -53 -52.5 -83t-87.5 -30q-41 0 -65 28q-16 20 -16 50q0 12 3 27z" />
<glyph unicode="k" horiz-adv-x="1144" d="M139 29l287 1347q8 35 0 49.5t-39 16.5h-96q-20 0 -22.5 8t1.5 25l9 38q4 23 10 28t24 7l244 15h7q23 -1 28 -13q6 -14 0 -45l-197 -923l434 331q39 29 40 44.5t-42 15.5h-49q-23 0 -26.5 8t0.5 25l10 45q4 16 10 21t23 5h426q18 0 24 -4q4 -2 4 -10q0 -5 -2 -12l-10 -47 q-4 -16 -11 -23.5t-28 -7.5h-70q-43 0 -73.5 -16.5t-89.5 -59.5l-443 -334l297 -354q53 -66 78 -87.5t51 -21.5q27 0 44.5 4.5t33.5 8.5q18 4 24.5 1t2.5 -20l-11 -53q-6 -29 -50 -40t-97 -11q-25 0 -44.5 4t-38.5 18.5t-43 40t-58 70.5l-295 360l-35 37l-105 -491 q-4 -16 -10 -22.5t-24 -6.5h-76q-28 0 -28 21q0 4 1 8z" />
<glyph unicode="l" horiz-adv-x="528" d="M131 78q-3 14 -3 31q0 26 7 59l256 1208q8 35 0 49.5t-39 16.5h-96q-20 2 -22.5 9t2.5 24l8 38q4 23 10 28t25 7l243 15h7q23 -1 28 -13q3 -7 3 -18.5t-3 -26.5l-281 -1319q-2 -14 -2 -26q0 -60 50 -60q27 0 42 4.5t33 8.5q16 4 22.5 1t2.5 -20l-10 -53 q-4 -14 -10.5 -21.5t-22.5 -13.5q-29 -8 -52.5 -11t-64.5 -3q-27 0 -55.5 6t-49 25.5t-28.5 54.5z" />
<glyph unicode="m" horiz-adv-x="1880" d="M168 29l188 882q10 45 -15.5 53.5t-121.5 8.5q-31 0 -24 26l10 48q4 18 12 24t27 8l239 15q29 0 35 -13.5t0 -44.5l-22 -108q68 98 163 142t205 44q109 0 177.5 -51t80.5 -156q70 109 171.5 158t224.5 49q144 0 216 -88q47 -57 46 -154q0 -52 -13 -116l-120 -570 q-4 -19 -4 -34q0 -52 49 -52q29 0 44 4.5t33 8.5q17 4 23 1q4 -2 4 -9q0 -4 -2 -11l-10 -53q-4 -14 -10.5 -21.5t-24.5 -13.5q-29 -8 -51.5 -11t-65.5 -3q-27 0 -54.5 6t-48 25.5t-28.5 54.5q-3 14 -3 31q0 26 7 59l119 563q10 48 10 88q0 59 -21 101q-36 72 -155 71 q-147 0 -239.5 -95t-133.5 -269l-129 -598q-4 -16 -10 -22.5t-24 -6.5h-76q-31 0 -25 29l150 702q10 48 10 88q0 59 -21 101q-36 72 -155 71q-152 0 -245 -99t-132 -284l-125 -579q-4 -16 -10 -22.5t-25 -6.5h-75q-26 0 -26 20q0 4 1 9z" />
<glyph unicode="n" horiz-adv-x="1261" d="M174 29l188 882q10 45 -14 53.5t-121 8.5q-31 0 -24 26l10 48q4 18 11 24t28 8l235 15q29 0 35 -13.5t0 -44.5l-28 -139q66 111 167 164t216 53q161 0 239 -88q52 -59 52 -160q0 -50 -13 -110l-121 -570q-4 -19 -4 -33q0 -53 51 -53q27 0 43.5 4.5t32.5 8.5q15 4 23 1 q5 -2 5 -10q0 -4 -1 -10l-10 -55q-6 -20 -23 -29q-29 -10 -62.5 -14t-66.5 -4q-27 0 -55.5 6t-49 25.5t-28.5 54.5q-3 14 -3 31q0 26 7 59l119 563q12 50 12 91q0 60 -26 102q-44 68 -167 69q-158 0 -261 -117.5t-148 -330.5l-111 -516q-4 -16 -10 -22.5t-25 -6.5h-75 q-28 0 -28 21q0 4 1 8z" />
<glyph unicode="o" horiz-adv-x="1163" d="M110 336q-1 21 -1 42q0 90 22 191q25 115 70 214.5t116.5 173t171 115.5t230.5 42q137 0 225 -45t134 -125t52 -188q1 -21 2 -43q0 -90 -22 -193q-25 -115 -71 -215t-118.5 -174t-173 -116t-231.5 -42q-135 0 -223 46.5t-132.5 127.5t-50.5 189zM250 357.5 q0 -85.5 28.5 -146.5t88 -96t153.5 -35q96 0 170 35t129 96t93 146t59 188q22 96 22 177q-1 5 -1 10q-2 85 -31 146.5t-88.5 95.5t-155.5 34q-94 0 -168 -34t-129 -95.5t-91 -146.5t-59 -187q-20 -102 -20 -187.5z" />
<glyph unicode="p" horiz-adv-x="1222" d="M-145 -481l8 51q4 16 11 21.5t28 5.5h73q43 0 61.5 12t29.5 55l264 1247q10 45 -15.5 53.5t-121.5 8.5q-16 0 -21.5 5t-1.5 21l10 48q4 18 11.5 24t27.5 8l240 15q29 0 35 -13.5t0 -44.5l-37 -172q82 135 194.5 191.5t237.5 56.5q313 0 313 -344q0 -99 -26 -227 q-59 -285 -207 -426.5t-375 -141.5q-104 0 -177 21.5t-132 56.5l-82 -387q-10 -43 4 -55t59 -12h76q18 0 23.5 -5.5t1.5 -21.5l-11 -51q-8 -29 -37 -29h-440q-26 0 -26 18q0 5 2 11zM311 176q41 -37 115 -63.5t164 -26.5q96 0 170 36t127 99.5t89 151.5t58 190q18 84 24 162 q1 17 1 34q0 58 -15 105q-20 62 -69 98.5t-139 36.5q-150 0 -262.5 -108.5t-182.5 -337.5z" />
<glyph unicode="q" horiz-adv-x="1202" d="M121 512q29 131 82 241.5t132 190.5t179 124t219 44q98 0 154.5 -24.5t109.5 -65.5l2 16q8 31 20.5 44.5t41.5 13.5l229 -15q18 -2 24 -8q3 -3 3 -10q0 -5 -2 -12l-12 -54q-4 -14 -12.5 -17t-24.5 -7h-90q-37 -4 -49.5 -22.5t-22.5 -69.5l-258 -1217q-10 -43 6 -55 t68 -12h59q31 0 22 -31l-8 -41q-4 -23 -11 -29t-26 -6h-462q-18 0 -23.5 6t-1.5 29l8 41q8 31 39 31h64q66 0 92 13t37 54l110 520q-76 -104 -181.5 -157.5t-221.5 -53.5q-193 0 -270 141q-47 83 -47 208q0 85 22 190zM243 345v-6q0 -71 21 -126q23 -57 71 -92t128 -35 q143 0 252.5 110.5t177.5 335.5l78 371q-37 43 -99.5 69.5t-150.5 26.5q-96 0 -173 -43t-134.5 -113.5t-95 -160.5t-58.5 -182q-16 -80 -17 -155z" />
<glyph unicode="r" horiz-adv-x="960" d="M-4 31l10 49q4 16 10.5 21t24.5 5h74q43 0 62.5 13.5t29.5 54.5l155 737q10 45 -14 53.5t-121 8.5q-31 0 -24 26l10 48q4 18 11 24t28 8l240 15q29 0 34.5 -13.5t-0.5 -44.5l-47 -225q18 39 53 91t86.5 99.5t119 80t151.5 32.5q104 0 146 -50q30 -36 31 -87q0 -19 -5 -41 q-10 -45 -46 -71.5t-73 -26.5q-40 0 -60 24q-14 16 -13 43q0 13 3 27q4 20 15.5 37.5t23.5 29.5q-18 8 -53 9q-82 0 -155.5 -51.5t-133 -128t-100.5 -167t-57 -165.5l-68 -322q-10 -43 5.5 -55.5t58.5 -12.5h116q20 0 24.5 -5t0.5 -21l-12 -53q-4 -16 -10.5 -21.5 t-22.5 -5.5h-486q-16 0 -21 6q-3 3 -3 11q0 6 2 14z" />
<glyph unicode="s" horiz-adv-x="976" d="M61 231q10 45 41 73t72 28q40 0 60 -26q13 -17 13 -41q0 -13 -3 -27q-12 -55 -60 -82q35 -43 99.5 -61.5t148.5 -18.5q123 0 205 51t102 152q6 27 6 50q-1 45 -25 73q-36 42 -98.5 68t-138 46.5t-138 55t-96.5 96.5q-20 37 -20 90q0 36 9 80q29 133 127 204.5t262 71.5 q205 0 292 -68q66 -52 66 -134q0 -25 -6 -54q-10 -41 -42 -68.5t-73 -27.5q-38 0 -60 24q-15 16 -15 42q0 12 4 26q12 59 63 86q-29 33 -85 53.5t-148 20.5q-125 0 -183.5 -53.5t-74.5 -124.5q-4 -21 -4 -39q1 -48 27 -78q36 -41 99.5 -64.5t139 -44t137 -56.5t93.5 -100 q18 -36 18 -86q0 -40 -11 -89q-33 -154 -149.5 -230t-296.5 -76q-88 0 -160 16.5t-121 49.5t-69 81q-12 29 -13 62q0 23 6 49z" />
<glyph unicode="t" horiz-adv-x="696" d="M168 995l10 52q6 31 35 30h139l90 250q6 18 20.5 25.5t43.5 7.5q33 0 37 -7t0 -26l-54 -250h267q29 0 29 -17q0 -3 -1 -5l-12 -62q-6 -27 -37 -26h-268l-139 -650q-12 -61 -12 -101v-14q2 -42 20 -64.5t47 -30t66 -7.5q39 0 75.5 6.5t69.5 20.5t27 -18l-13 -58 q-4 -14 -11 -22.5t-26 -14.5q-69 -26 -151 -26h-6q-66 0 -117 15t-82 49t-40 92q-3 19 -3 41q0 44 12 98l146 684h-135q-19 0 -25 5q-3 3 -4 10q0 5 2 13z" />
<glyph unicode="u" d="M156 999l10 48q4 18 11 24t28 8l239 15q29 0 35 -13.5t0 -44.5l-145 -688q-11 -49 -11 -92v-7q1 -46 20 -80t59 -53.5t106 -19.5q160 0 266.5 103.5t145.5 289.5l92 435q4 35 -23.5 42t-116.5 7q-31 0 -24 26l10 48q4 18 11.5 24t27.5 8l240 15q29 0 36 -14q4 -7 4 -19 q0 -11 -3 -25l-181 -850q-4 -19 -4 -34q0 -52 49 -52q27 0 43.5 4.5t32.5 8.5t23.5 1t3.5 -20l-11 -53q-6 -25 -34 -35q-29 -8 -51.5 -11t-65.5 -3q-27 0 -52.5 5t-46.5 21q-20 18 -30 46q-6 18 -6 42q0 15 2 33q-74 -80 -168 -118.5t-217 -38.5q-167 0 -237 84 q-44 52 -43 151q0 61 16 139l118 555q10 45 -15.5 53.5t-121.5 8.5q-23 0 -23 17q0 4 1 9z" />
<glyph unicode="v" horiz-adv-x="1161" d="M154 999l12 54q4 16 10 20t23 4h372q16 0 20.5 -6t2.5 -20l-12 -52q-4 -27 -37 -26h-31q-55 0 -71.5 -15.5t-12.5 -52.5l94 -788l439 801q18 31 3.5 42t-77.5 13h-25q-16 0 -21 5t-1 19l10 52q4 18 10 23t23 5h381q16 0 21 -5q3 -3 3 -8q0 -4 -2 -11l-10 -47 q-4 -20 -10 -26.5t-27 -6.5l-41 -2q-45 0 -63.5 -7.5t-40.5 -48.5l-506 -901q-10 -18 -18.5 -24t-32.5 -6h-90q-33 0 -35 28l-123 897q-6 41 -20.5 50.5t-61.5 13.5h-33q-16 2 -21 6q-3 2 -3 8q0 5 2 12z" />
<glyph unicode="w" horiz-adv-x="1810" d="M162 979q-2 3 -2 8q0 6 2 14l12 52q4 16 9 20t22 4h387q16 0 19 -6t1 -18l-12 -52q-4 -29 -29 -28q-49 0 -75.5 -2t-39 -8.5t-13.5 -19.5t1 -36l62 -803l463 918q20 39 27.5 47t27.5 8h82q20 0 23.5 -12t7.5 -47l69 -909l381 761q18 37 26.5 57.5t8.5 30t-10 11.5t-31 4 h-78q-29 2 -22 24l10 52q4 18 11 23t24 5h399q22 0 22 -13q0 -3 -1 -7l-11 -51q-8 -33 -32 -33l-76 -2q-18 0 -30.5 -3t-24 -13.5t-24.5 -34t-36 -66.5l-438 -840q-10 -20 -21.5 -25t-48.5 -5h-82q-35 0 -37 28l-79 865l-435 -863q-10 -18 -18 -24t-33 -6h-96q-31 0 -33 28 l-92 891q-4 47 -23.5 57.5t-87.5 10.5q-22 2 -26 8z" />
<glyph unicode="x" horiz-adv-x="1153" d="M-41 29l8 47q8 31 33 30h68q37 2 72.5 23t97.5 86l311 324l-199 374q-23 39 -41 49.5t-63 10.5h-45q-18 0 -21.5 7t-1.5 21l12 50q4 18 10.5 22t22.5 4h393q16 0 20.5 -5t0.5 -23l-10 -50q-4 -27 -31 -26h-43q-57 0 -63.5 -9.5t16.5 -54.5l141 -270l264 276 q41 41 36 49.5t-52 8.5h-35q-27 0 -20 26l10 50q4 18 12 23t23 5h348q16 0 20 -5q2 -2 2 -8t-2 -15l-10 -52q-4 -12 -10 -18t-25 -6h-47q-20 0 -35.5 -4t-35 -16.5t-46 -37t-71.5 -69.5l-279 -295l168 -322q23 -43 37 -66.5t26.5 -35.5t26 -16.5t29.5 -4.5h66q16 0 20 -5 t0 -21l-12 -51q-4 -18 -11.5 -23.5t-23.5 -5.5h-373q-16 0 -22.5 5t-1.5 26l8 43q4 20 13 26t26 6q78 0 90 9.5t-10 50.5l-154 283l-258 -273q-44 -47 -44 -59q0 -1 1 -3q6 -8 47 -8h49q27 0 21 -24l-13 -53q-4 -18 -11 -23.5t-19 -5.5h-385q-16 0 -22 5q-4 3 -5 12 q0 5 2 12z" />
<glyph unicode="y" d="M18 -238q10 43 43 72t72 29q35 0 59 -25q16 -17 16 -45q0 -12 -3 -26q-6 -31 -25.5 -53.5t-44.5 -32.5q29 -41 92.5 -60.5t147.5 -19.5q164 0 280.5 88t157.5 276l37 172q-76 -78 -169 -116.5t-216 -38.5q-166 0 -237 84q-43 52 -43 151q0 61 16 139l118 555 q10 45 -15 53.5t-122 8.5q-29 0 -22 26l10 48q4 18 11 24t28 8l240 15q29 0 34.5 -13.5t-0.5 -44.5l-145 -688q-11 -49 -11 -92v-7q1 -46 20.5 -80t59 -53.5t105.5 -19.5q156 0 261.5 98.5t146.5 276.5l98 455q2 35 -26.5 41t-114.5 6q-31 0 -25 26l10 48q4 18 11.5 24 t27.5 8l240 15q29 0 36 -14q4 -7 4 -19q0 -11 -3 -25l-226 -1056q-27 -129 -82 -221.5t-133 -153t-176 -88t-213 -27.5q-70 0 -136.5 13.5t-115.5 45t-72 83.5q-13 31 -13 70q0 28 7 60z" />
<glyph unicode="z" horiz-adv-x="1021" d="M6 29l12 51q4 27 17 39l815 858h-387q-29 0 -47.5 -4t-33.5 -20.5t-31.5 -51.5t-41.5 -96q-10 -23 -16 -31t-23 -8h-59q-25 0 -12 35l75 248q12 32 50 32h2h700q20 0 24 -8q2 -5 2 -11q0 -3 -1 -7l-7 -33q-4 -18 -17 -35.5t-23 -30.5l-803 -850h442q35 0 55.5 4.5t38 24 t38 62.5t52.5 120q6 10 12.5 16.5t22.5 6.5h60q16 0 17 -6t-3 -19l-98 -282q-12 -33 -50 -33h-761q-15 2 -19 9q-2 4 -3 11q0 4 1 9z" />
<glyph unicode="{" horiz-adv-x="641" d="M113 594l16 78q4 16 13.5 19t19.5 7q88 23 122.5 69t51.5 120l67 325q35 166 129.5 228.5t233.5 62.5h18q23 0 29 -4t2 -20l-10 -47q-4 -16 -12.5 -19.5t-26.5 -3.5q-25 0 -57.5 -6t-65.5 -25.5t-59.5 -58.5t-40.5 -105l-74 -340q-16 -86 -58 -151.5t-139 -87.5v-4 q43 -10 66.5 -34t33 -55.5t7.5 -69.5t-12 -81l-72 -340q-14 -66 -3 -104.5t34.5 -59t54.5 -25.5t55 -5q18 0 25.5 -3.5t3.5 -19.5l-10 -47q-4 -16 -11.5 -20.5t-29.5 -4.5h-19q-70 0 -122 14.5t-83.5 48.5t-41 89t9.5 139l69 326q16 74 0 120t-94 68q-10 4 -17 7.5t-3 19.5z " />
<glyph unicode="|" horiz-adv-x="491" d="M57 -223l363 1702q4 18 13 28.5t32 12.5h65q20 0 25.5 -11.5t1.5 -27.5l-360 -1702q-4 -18 -14.5 -28.5t-32.5 -12.5h-66q-23 0 -27 11t0 28z" />
<glyph unicode="}" horiz-adv-x="641" d="M-51 -213l6 25q4 16 12 19t27 3q29 0 63.5 7t69.5 28.5t64.5 64.5t46.5 117l71 340q18 84 60.5 151.5t136.5 88.5v4q-43 10 -66.5 33.5t-33 55.5t-6.5 69.5t12 80.5l73 340q16 74 4 117t-36.5 65.5t-57.5 29t-61 6.5q-18 0 -26.5 3t-4.5 19l6 25q4 16 12.5 20t30.5 4h13 q53 0 98 -15t73.5 -49t38 -90.5t-9.5 -136.5l-71 -342q-16 -74 -2 -118.5t94 -67.5q10 -4 18 -7t4 -20l-10 -49q-4 -16 -13.5 -19t-19.5 -7q-90 -23 -122.5 -68t-49.5 -119l-74 -342q-16 -80 -48.5 -136t-76.5 -90t-95.5 -49.5t-104.5 -15.5h-12q-23 0 -30 4.5t-3 20.5z" />
<glyph unicode="~" horiz-adv-x="886" d="M102 547q23 104 95.5 163.5t187.5 59.5q47 0 77 -9t48 -24.5t27.5 -34t15.5 -36.5q10 -31 28.5 -49.5t77.5 -18.5q115 0 146 111q8 18 26 18h68q20 0 14 -29q-23 -109 -95.5 -166t-192.5 -57q-45 0 -75 9.5t-48.5 22.5t-27.5 30.5t-15 33.5q-10 31 -25.5 54.5t-77.5 23.5 q-57 0 -94 -29.5t-51 -80.5q-4 -20 -27 -21h-65q-12 0 -16.5 4t-0.5 25z" />
<glyph unicode="&#xa1;" horiz-adv-x="507" d="M115 88q18 86 41.5 167t56.5 193.5t74 278.5t96 422q2 10 10 17.5t37 7.5t35 -7.5t4 -17.5q-55 -256 -83 -422t-44 -278.5t-26.5 -193.5t-28.5 -167q-23 -109 -111 -108q-84 -1 -61 108zM369 1389q10 53 50 85.5t85 32.5q43 0 67.5 -28.5t12.5 -81.5q-10 -51 -50 -83 t-85 -32t-67.5 30t-12.5 77z" />
<glyph unicode="&#xa2;" horiz-adv-x="1083" d="M114 326.5q-3 97.5 21 210.5q27 125 78 227t124 177t167 119t209 52l30 141q6 39 45 41h66q23 0 27 -11t0 -28l-33 -149q72 -10 126 -36t91 -75q33 -39 25 -88q-10 -51 -51.5 -80.5t-82.5 -29.5q-43 0 -66 27.5t-13 78.5q8 33 24 53q-27 23 -67.5 36.5t-94.5 15.5 q-186 0 -301.5 -129t-163.5 -344q-20 -98 -18 -181.5t35 -142.5t100.5 -92t177.5 -33q51 0 103.5 6t97.5 19q35 10 77 23t68 24q20 4 17 -17l-12 -57q-4 -18 -11.5 -26.5t-31.5 -18.5q-66 -29 -130.5 -44t-142.5 -20l-31 -141q-6 -39 -45 -41h-65q-23 0 -27 11.5t0 27.5 l31 145q-123 10 -200 57.5t-113.5 121t-39.5 171z" />
<glyph unicode="&#xa3;" d="M39 29l12 51q4 14 11.5 20t27.5 6h12q86 39 156 114t98 210q10 45 9.5 84t-7.5 74h-190q-23 0 -18 20l12 64q4 10 8 15t18 5h138q-23 70 -39.5 146.5t6.5 185.5q49 236 199.5 355.5t365.5 119.5q182 -2 279.5 -77.5t81.5 -229.5q4 -18 -2 -37q-10 -53 -51.5 -79.5 t-84.5 -26.5q-45 0 -69.5 26.5t-14.5 77.5q6 31 25.5 53.5t46.5 36.5q-12 72 -74.5 107.5t-158.5 38.5q-137 0 -246 -85t-150 -274q-20 -102 0.5 -181t40.5 -157h359q23 0 16 -20l-12 -64q-4 -20 -27 -20h-315q4 -31 3 -65t-11 -70q-23 -113 -88.5 -206t-147.5 -141h553 q53 0 85 3.5t52.5 15.5t33.5 35.5t28 64.5l47 148q10 16 17 22t30 6h39q33 0 24 -32l-86 -273q-10 -35 -19 -54t-21.5 -28.5t-29 -11.5t-38.5 -2h-899q-25 0 -32 5t-3 24z" />
<glyph unicode="&#xa4;" horiz-adv-x="1288" d="M133 435.5q6 13.5 19 23.5l133 108q-16 53 -17.5 117t13.5 133q18 86 54 159t91 132l-84 111q-10 14 -11 26t19 29l56 45q18 16 30.5 12t20.5 -14l90 -115q61 35 136 55.5t161 20.5q76 0 136 -15.5t105 -43.5l138 114q16 12 28.5 15.5t24.5 -13.5l39 -47q10 -14 5 -27.5 t-20 -23.5l-126 -104q39 -61 47 -141.5t-11 -172.5q-37 -170 -141 -289l76 -94q10 -14 9 -26.5t-19 -28.5l-56 -47q-18 -14 -29.5 -11t-21.5 15l-76 94q-61 -41 -138 -62.5t-167 -21.5q-104 0 -179 29t-122 82l-117 -97q-33 -27 -55 -2l-35 46q-12 16 -6 29.5zM399 827 q-35 -174 34 -275t235 -101t278.5 102t149.5 276q16 74 5 136.5t-46 109.5t-93.5 74t-138.5 27t-150.5 -27t-125.5 -74t-93 -110.5t-55 -137.5z" />
<glyph unicode="&#xa5;" horiz-adv-x="1454" d="M285 1405l10 45q4 18 13 23.5t36 5.5h389q29 0 36 -6.5t1 -30.5l-6 -29q-4 -20 -14.5 -30.5t-38.5 -10.5h-52q-8 0 -19 -1t-19.5 -6t-10.5 -17.5t4 -36.5l162 -647l498 647q25 31 11.5 45t-30.5 14h-53q-29 0 -36 11.5t-3 31.5l8 37q4 18 14.5 23.5t39.5 5.5h364 q29 0 37 -7.5t4 -21.5l-10 -45q-4 -20 -14.5 -27.5t-38.5 -7.5h-62q-20 0 -41.5 -12t-62.5 -64l-586 -747l-78 -373q-8 -43 6.5 -55.5t53.5 -12.5h71q20 0 23.5 -5t-0.5 -21l-10 -49q-4 -14 -10.5 -22.5t-24.5 -8.5h-430q-33 0 -27 29l12 49q6 29 37 28h70q41 0 59.5 15.5 t28.5 68.5l74 340l-207 758q-16 55 -40 68.5t-44 13.5h-57q-27 0 -34 7t-3 28z" />
<glyph unicode="&#xa6;" horiz-adv-x="497" d="M45 -287l139 660q4 18 13.5 28.5t31.5 12.5h66q20 0 25.5 -11.5t1.5 -27.5l-140 -660q-4 -18 -13 -28.5t-32 -12.5h-65q-23 0 -27 11.5t0 27.5zM274 771q-4 11 0 28l146 680q4 18 13 28.5t32 12.5h65q20 0 25.5 -11.5t1.5 -27.5l-143 -680q-4 -18 -14.5 -28.5 t-32.5 -12.5h-66q-23 0 -27 11z" />
<glyph unicode="&#xa7;" horiz-adv-x="1003" d="M68 225h4l2 15q10 43 45 71.5t74 28.5q35 0 58 -24.5t13 -71.5q-8 -33 -28.5 -55.5t-47.5 -34.5q33 -45 97.5 -64.5t117.5 -19.5q55 0 105.5 11t92.5 35.5t70.5 62.5t41.5 91q14 66 -24 99.5t-101.5 55t-138 39t-136 47.5t-96.5 82t-14 144q23 109 88 175.5t164 95.5 q-63 31 -98 82t-17 141q31 143 142.5 210.5t273.5 67.5q104 0 168.5 -20.5t98.5 -52t42 -71.5t0 -77l-23 -2q-12 -37 -45.5 -60.5t-68.5 -23.5q-39 0 -59.5 25.5t-10.5 68.5q4 23 15.5 40.5t25.5 31.5q-35 23 -81 33t-85 10q-104 0 -171.5 -39t-86.5 -127q-12 -61 26 -95 t101.5 -55.5t139 -40t137 -49t95.5 -84t15 -143.5q-23 -113 -86 -183.5t-135 -105.5q49 -31 73.5 -79t8.5 -125q-18 -82 -62.5 -141.5t-107 -98.5t-140 -56.5t-161.5 -17.5q-76 0 -138.5 18.5t-105.5 52.5t-61.5 80t-5.5 103zM336 750q-10 -51 11.5 -83t63.5 -53.5t96 -35 t109 -29.5q25 0 60 9t68.5 33.5t62.5 67t43 105.5q10 51 -13.5 83t-68.5 54q-41 16 -87 24.5t-83 8.5q-104 0 -173 -44t-89 -140z" />
<glyph unicode="&#xa8;" horiz-adv-x="1071" d="M299 1339q10 47 46 77t75 30t60.5 -26.5t11.5 -73.5q-10 -45 -45 -73t-76 -28t-61.5 25.5t-10.5 68.5zM623 1339q10 47 47 77t75 30q39 0 60.5 -26.5t11.5 -73.5q-10 -45 -46 -73t-77 -28q-39 0 -60 25.5t-11 68.5z" />
<glyph unicode="&#xa9;" horiz-adv-x="1714" d="M160.5 444.5q-17.5 141.5 17.5 303.5q35 164 115 303t199.5 240.5t274.5 159.5t337 58q184 0 313 -58t204 -159.5t95.5 -241t-14.5 -300.5q-35 -164 -113 -306.5t-194.5 -247t-272.5 -164t-346 -59.5t-320 60.5t-204 165t-91.5 246zM279.5 474q17.5 -128 82 -218 t174 -140t261.5 -50t281.5 50t232 141t174 218t104.5 283q31 147 11.5 269t-85 208t-174 134t-256.5 48q-147 0 -277 -48t-233.5 -135t-176 -209t-103.5 -269q-33 -154 -15.5 -282zM551 591.5q-12 67.5 4 147.5q18 88 63.5 163t111 130t150.5 87t185 32q164 0 238 -86 l10 -12l4 -11q4 -10 6 -22t-2 -27q-10 -47 -45 -74.5t-76 -27.5q-37 0 -58.5 25.5t-11.5 68.5q6 31 27 55q-47 20 -110 21q-76 0 -137.5 -25.5t-108.5 -68.5t-78 -99.5t-45 -117.5q-12 -61 -6 -114.5t34.5 -92.5t84 -61.5t141.5 -22.5q78 0 127 14t98 37q16 6 29.5 12 t23.5 6q25 0 19 -20l-6 -35q-4 -10 -12.5 -22.5t-28.5 -22.5q-129 -59 -285 -59q-102 0 -175 28.5t-116 77.5t-55 116.5z" />
<glyph unicode="&#xaa;" horiz-adv-x="884" d="M242 1042q27 127 166 183.5t356 56.5l6 31q14 68 -17.5 103.5t-97.5 35.5q-35 0 -67.5 -3t-63.5 -11q4 -10 6 -22.5t-2 -26.5q-10 -43 -43.5 -69t-70.5 -26q-35 0 -55.5 23.5t-10.5 64.5q2 4 2 10.5t4 10.5q47 137 318 137q59 0 104 -11t73 -40t34 -80t-11 -129l-65 -311 q-4 -23 5 -38.5t32 -15.5q12 0 22.5 5.5t30.5 15.5q25 10 16 -25l-8 -37q-4 -16 -11 -22t-24 -16q-16 -8 -30.5 -13.5t-42.5 -5.5q-41 0 -71 21.5t-34 74.5q-37 -41 -99.5 -68.5t-148.5 -27.5q-123 0 -174 58.5t-28 166.5zM352 1042q-16 -70 19 -98.5t100 -28.5 q100 0 169 56.5t91 161.5l14 63q-174 0 -275.5 -36t-117.5 -118z" />
<glyph unicode="&#xab;" horiz-adv-x="1517" d="M102 567q8 35 24.5 54.5t63.5 48.5l621 391q16 10 30.5 14t24.5 4h64q14 0 24.5 -7t6.5 -23t-17.5 -27.5t-30.5 -22.5l-688 -432l506 -432q10 -10 19.5 -21.5t5.5 -27.5t-16.5 -23.5t-28.5 -7.5h-64q-23 0 -47 19l-453 391q-35 29 -43 48t-2 54zM717 567q8 35 24.5 54.5 t63.5 48.5l620 391q16 10 30.5 14t25.5 4h61q16 0 26.5 -7t6.5 -23t-17.5 -27.5t-29.5 -22.5l-688 -432l506 -432q10 -10 19 -21.5t5 -27.5t-17.5 -23.5t-29.5 -7.5h-61q-23 0 -48 19l-452 391q-35 29 -43 48t-2 54z" />
<glyph unicode="&#xac;" horiz-adv-x="1169" d="M221 815l8 39q6 29 23.5 37t38.5 8h807q25 0 33 -13.5t4 -31.5l-99 -463q-4 -14 -16 -24.5t-29 -10.5h-63q-16 0 -25.5 10.5t-5.5 24.5l80 377h-715q-20 0 -33.5 9t-7.5 38z" />
<glyph unicode="&#xad;" horiz-adv-x="843" d="M184 618l9 46q4 18 11 24t27 6h527q20 0 22 -7t-2 -23l-8 -46q-4 -18 -11 -24t-24 -6h-526q-18 0 -23.5 6t-1.5 24z" />
<glyph unicode="&#xae;" horiz-adv-x="1714" d="M160.5 444.5q-17.5 141.5 17.5 303.5q35 164 115 303t199.5 240.5t274.5 159.5t337 58q184 0 313 -58t204 -159.5t95.5 -241t-14.5 -300.5q-35 -164 -113 -306.5t-194.5 -247t-272.5 -164t-346 -59.5t-320 60.5t-204 165t-91.5 246zM279.5 474q17.5 -128 82 -218 t174 -140t261.5 -50t281.5 50t232 141t174 218t104.5 283q31 147 11.5 269t-85 208t-174 134t-256.5 48q-147 0 -277 -48t-233.5 -135t-176 -209t-103.5 -269q-33 -154 -15.5 -282zM545 357q-4 5 0 22l8 39q2 10 7 15t22 5h4q31 0 47 12.5t26 51.5l109 512q8 39 -3 51 t-52 12q-16 0 -17.5 6.5t2.5 18.5l7 33q4 16 9 21t21 5h248q178 0 253 -49t44 -188q-18 -92 -75.5 -148.5t-139.5 -79.5q35 -25 58.5 -76t31.5 -143q2 -25 15.5 -33t27.5 -8q12 0 22.5 2t28.5 13q8 4 12.5 -0.5t0.5 -20.5l-9 -39q-6 -25 -28 -35q-27 -16 -66 -16 q-14 0 -33.5 3t-36 13.5t-28.5 28.5t-14 49q-2 37 -11.5 80t-30 80t-51 61.5t-75.5 24.5h-74l-37 -178q-10 -41 0 -52.5t45 -11.5h4q18 0 21.5 -5t1.5 -15l-9 -39q-4 -16 -10 -21.5t-22 -5.5h-236q-14 0 -18 5zM823 762h84q119 0 181.5 41t78.5 121q18 86 -29.5 119.5 t-164.5 33.5h-84z" />
<glyph unicode="&#xaf;" horiz-adv-x="645" d="M254 1384q6 29 17.5 36t23.5 7h463q23 0 23.5 -17t-5.5 -44q-8 -51 -35 -51h-469q-33 0 -18 69z" />
<glyph unicode="&#xb0;" horiz-adv-x="821" d="M266 1079.5q-10 59.5 4 128.5q14 70 50 128.5t86.5 101.5t115 67.5t137.5 24.5q74 0 128.5 -24.5t86 -67.5t42 -101.5t-4.5 -126.5q-14 -70 -50 -130t-88 -104t-116.5 -68.5t-136.5 -24.5t-126 24.5t-86 68.5t-42 103.5zM373 1208q-23 -109 20 -174t148 -65 q100 0 172.5 67.5t95.5 171.5q23 106 -20.5 171t-147.5 65t-175 -64.5t-93 -171.5z" />
<glyph unicode="&#xb1;" horiz-adv-x="1075" d="M45 4l14 64q2 20 27 20h764q14 0 17 -5t1 -15l-14 -64q-6 -23 -27 -22h-764q-25 0 -18 22zM185.5 656.5q-1.5 19.5 2.5 37.5q6 35 20.5 42t37.5 7h317l70 330q4 20 24.5 27.5t40.5 7.5q29 0 41.5 -8t5.5 -35l-67 -322h344q23 0 24 -18t-4 -33q-6 -29 -16 -42t-35 -13 h-336l-75 -350q-4 -23 -24.5 -29t-39.5 -6q-33 0 -42 13.5t-5 37.5l72 334h-334q-20 0 -21.5 19.5z" />
<glyph unicode="&#xb2;" horiz-adv-x="655" d="M156 865q-4 5 0 22l4 26q4 18 19.5 35t39.5 35l352 293q45 39 80 84t47 98q12 59 -15.5 99t-113.5 40q-41 0 -82 -10t-71 -31q31 -20 20 -65q-8 -37 -35.5 -57.5t-60.5 -20.5q-29 0 -47 20.5t-10 55.5q2 6 4 13t6 14q25 74 105.5 120.5t197.5 46.5q135 0 188.5 -64.5 t32.5 -154.5q-14 -72 -64.5 -133t-123.5 -121l-326 -270h250q49 0 66.5 11.5t33.5 47.5l25 76q6 10 11 14.5t18 4.5h38q12 0 14.5 -5.5t-1.5 -15.5l-53 -178q-8 -25 -16.5 -30t-29.5 -5h-485q-14 0 -18 5z" />
<glyph unicode="&#xb3;" horiz-adv-x="651" d="M162 903l12 58q2 16 14 16q8 0 15.5 -3l17.5 -7q27 -8 71 -18.5t109 -10.5q98 0 157.5 38t76.5 111q10 43 0 73t-31.5 48.5t-53.5 25.5t-67 7h-30q-14 0 -17.5 4t0.5 19l10 53q4 16 27 16h31q70 0 117 31t63 102q12 59 -14.5 95t-104.5 36q-70 0 -125 -32q18 -18 13 -58 q-8 -37 -36 -56t-59 -19q-33 0 -50 19t-9 54q16 84 96 132.5t197 48.5q123 0 175 -56.5t32 -154.5q-10 -51 -32 -85t-46.5 -54.5t-52 -31t-50.5 -14.5q76 -6 120 -56t22 -149q-27 -123 -125 -181t-236 -58q-86 0 -144 11t-85 24q-10 8 -8 22z" />
<glyph unicode="&#xb4;" horiz-adv-x="565" d="M276 1339q-4 12 0.5 20.5t26.5 18.5l297 144q29 12 39 13t18 -11l25 -62q8 -14 2 -22t-31 -19l-319 -110q-29 -10 -38 -8t-13 14z" />
<glyph unicode="&#xb5;" horiz-adv-x="1302" d="M72 -424l276 1309h4l6 26q10 45 -15.5 53.5t-121.5 8.5q-31 0 -24 26l10 48q4 18 12 24t29 8l237 15q29 0 36 -13.5t1 -44.5l-145 -688q-12 -53 -11 -99t20.5 -80t58 -53.5t104.5 -19.5q162 0 267.5 103.5t144.5 289.5l65 304h-6l24 118q10 45 -15 53.5t-122 8.5 q-16 0 -21 5t-1 21l10 48q4 18 11 24t28 8l240 15q29 0 34.5 -13.5t-0.5 -44.5l-18 -88h6l-160 -747h-2l-2 -15q-18 -86 47 -86q27 0 42.5 4.5t33.5 8.5q16 4 22.5 1t2.5 -20l-11 -53q-4 -14 -10 -21.5t-22 -13.5q-29 -8 -51.5 -11t-65.5 -3q-25 0 -51.5 5t-47 20.5 t-31.5 43t-7 72.5q-143 -152 -379 -151q-133 0 -201 47l-94 -451q-2 -8 -5 -14t-16 -6h-104q-18 0 -12 18z" />
<glyph unicode="&#xb6;" horiz-adv-x="1081" d="M212 943.5q-13 66.5 5 148.5q18 86 59 156.5t100.5 121.5t131.5 80t151 29h553q16 0 23.5 -5.5t3.5 -23.5l-10 -45q-6 -33 -37 -33q-45 0 -73.5 -2t-47 -11t-28 -25.5t-15.5 -45.5l-313 -1472q-2 -8 -5 -13.5t-14 -5.5h-86q-10 0 -12 4t0 13l332 1558h-182l-332 -1558 q0 -4 -3 -10.5t-14 -6.5h-94q-10 0 -10 4t2 13l197 919q-74 0 -133.5 25.5t-97.5 72t-51 113z" />
<glyph unicode="&#xb7;" horiz-adv-x="466" d="M162 530q10 51 51 85t86 34q41 0 66.5 -28.5t13.5 -81.5q-10 -53 -51 -84t-88 -31q-43 0 -65.5 28.5t-12.5 77.5z" />
<glyph unicode="&#xb8;" horiz-adv-x="595" d="M-86 -395q-2 4 2 20l6 37q4 18 8 21.5t15 1.5q51 -8 75.5 -11.5t59.5 -3.5q70 0 109.5 27t50.5 72q10 47 -17.5 62t-68.5 15q-29 0 -63 -4t-52 -4q-27 0 -12 25l106 155l94 -2l-53 -90q90 10 142.5 -25.5t31.5 -129.5q-20 -96 -93 -140.5t-187 -44.5q-37 0 -82 4t-62 9 q-8 2 -10 6z" />
<glyph unicode="&#xb9;" horiz-adv-x="428" d="M151.5 863q-4.5 3 0.5 20l8 39q4 10 7 15t17 5h23q55 0 72.5 8t23.5 37l119 555q4 16 -1 20.5t-26 -3.5l-78 -25q-23 -6 -18 14l12 51q2 10 6.5 15.5t20.5 9.5l158 49q29 6 43 6q25 0 16 -32l-139 -660q-6 -31 6 -38t67 -7h25q23 0 16 -20l-8 -39q-4 -16 -8 -19.5 t-16 -3.5h-330q-12 0 -16.5 3z" />
<glyph unicode="&#xba;" horiz-adv-x="806" d="M238 951.5q-2 68.5 14 142.5t47 141.5t79 119.5t113.5 82.5t147.5 30.5t133 -30.5t78 -82.5t30 -120t-14 -141q-16 -74 -48 -142.5t-80 -120t-112.5 -82t-146.5 -30.5t-134 30.5t-78.5 82t-28.5 120zM348 980.5q0 -52.5 15.5 -90.5t48 -60.5t86.5 -22.5q106 0 168.5 83 t89.5 202q27 127 -1 207.5t-134 80.5t-170 -80.5t-91 -207.5q-12 -59 -12 -111.5z" />
<glyph unicode="&#xbb;" horiz-adv-x="1517" d="M37 86q4 16 18.5 27.5t30.5 21.5l686 432l-504 432q-10 10 -20 21.5t-6 28.5q4 16 18 23t29 7h63q23 0 47 -18l453 -391q35 -29 43 -48.5t0 -54.5q-6 -35 -22.5 -54t-63.5 -48l-621 -391q-16 -10 -30.5 -14.5t-24.5 -4.5h-63q-16 0 -26.5 7.5t-6.5 23.5zM651 86 q4 16 18.5 27.5t30.5 21.5l686 432l-503 432q-10 10 -20.5 21.5t-6.5 28.5q4 16 18.5 23t28.5 7h64q23 0 47 -18l452 -391q35 -29 43.5 -48.5t-0.5 -54.5q-6 -35 -22.5 -54t-63.5 -48l-620 -391q-16 -10 -30.5 -14.5t-24.5 -4.5h-64q-16 0 -26.5 7.5t-6.5 23.5z" />
<glyph unicode="&#xbc;" horiz-adv-x="1300" d="M16 49q-4 10 5.5 26.5t19.5 26.5l1264 1403q20 23 29 28t26 1q10 -2 28.5 -15.5t18.5 -29.5q6 -12 -2 -27.5t-25 -31.5l-1265 -1401q-31 -39 -62 -23q-12 4 -26.5 15.5t-10.5 27.5zM213 863q-4 3 0 20l8 39q4 10 7 15t18 5h22q55 0 72.5 8t24.5 37l118 555q4 16 -1 20.5 t-25 -3.5l-78 -25q-23 -6 -19 14l13 51q2 10 6 15.5t20 9.5l158 49q29 6 43 6q25 0 16 -32l-139 -660q-6 -31 6.5 -38t67.5 -7h24q23 0 17 -20l-8 -39q-4 -16 -8.5 -19.5t-16.5 -3.5h-330q-12 0 -16 3zM584 177q-4 3 0 18l8 36q0 16 6 19l510 549q18 18 39 18h78q35 0 0 -37 l-492 -526h223l33 154q2 8 5 12t16 4h82q18 0 14 -16l-33 -154h90q23 0 19 -16l-11 -45q-4 -18 -22 -19h-92l-8 -37q-8 -35 0 -43t34 -8h29q20 0 16 -18l-10 -43q-2 -20 -22 -21h-265q-23 0 -16 19l10 45q4 18 23 18h26q27 0 38.5 9t19.5 42l8 37h-338q-14 0 -18 3z" />
<glyph unicode="&#xbd;" horiz-adv-x="1517" d="M16 49q-4 10 5.5 26.5t19.5 26.5l1264 1403q20 23 29 28t26 1q10 -2 28.5 -15.5t18.5 -29.5q6 -12 -2 -27.5t-25 -31.5l-1265 -1401q-31 -39 -62 -23q-12 4 -26.5 15.5t-10.5 27.5zM213 863q-4 3 0 20l8 39q4 10 7 15t18 5h22q55 0 72.5 8t24.5 37l118 555q4 16 -1 20.5 t-25 -3.5l-78 -25q-23 -6 -19 14l13 51q2 10 6 15.5t20 9.5l158 49q29 6 43 6q25 0 16 -32l-139 -660q-6 -31 6.5 -38t67.5 -7h24q23 0 17 -20l-8 -39q-4 -16 -8.5 -19.5t-16.5 -3.5h-330q-12 0 -16 3zM725 27l6 26q4 18 19.5 34.5t37.5 35.5l355 293q45 39 79.5 84t47.5 98 q12 59 -15.5 99t-113.5 40q-41 0 -82 -10t-72 -31q12 -10 18.5 -26.5t2.5 -38.5q-8 -37 -36 -57.5t-61 -20.5q-29 0 -47 20.5t-10 55.5q2 6 4 13t6 13q25 74 106 121t197 47q135 0 188.5 -64.5t33.5 -154.5q-16 -72 -65.5 -133t-123.5 -121l-326 -270h250q49 0 66.5 11 t34.5 48l24 76q8 18 29 18h39q12 0 14 -5t-2 -15l-53 -178q-8 -25 -16.5 -30t-28.5 -5h-486q-14 0 -19 5t-1 22z" />
<glyph unicode="&#xbe;" horiz-adv-x="1431" d="M123 49q-4 10 5 26.5t19 26.5l1264 1403q20 23 29.5 28t25.5 1q10 -2 28.5 -15.5t18.5 -29.5q6 -12 -2 -27.5t-24 -31.5l-1266 -1401q-31 -39 -61 -23q-12 4 -26.5 15.5t-10.5 27.5zM135 903l12 58q2 16 15 16q8 0 15 -3t18 -7q27 -8 70.5 -18.5t109.5 -10.5 q98 0 157.5 38t75.5 111q10 43 0 73t-31.5 48.5t-53 25.5t-66.5 7h-31q-14 0 -17 4t1 19l10 53q4 16 26 16h31q70 0 117 31t63 102q12 59 -14.5 95t-103.5 36q-70 0 -125 -32q18 -18 12 -58q-8 -37 -36 -56t-58 -19q-33 0 -50.5 19t-9.5 54q16 84 96.5 132.5t196.5 48.5 q123 0 175.5 -56.5t31.5 -154.5q-10 -51 -31.5 -85t-46 -54.5t-52.5 -31t-50 -14.5q76 -6 120 -56t21 -149q-27 -123 -125 -181t-235 -58q-86 0 -144.5 11t-85.5 24q-10 8 -8 22zM729 190l8 37q4 16 8 19l510 549q16 18 39 18h78q35 0 0 -37l-493 -526h223l33 153 q4 16 22 17h82q10 0 12 -4t0 -13l-32 -153h90q23 0 20 -17l-10 -45q-4 -18 -25 -18h-92l-8 -37q-6 -35 2 -43t35 -8h29q12 0 14 -4t0 -15l-8 -43q-4 -10 -7.5 -15t-15.5 -5h-264q-20 0 -18 18l10 45q4 18 24 19h27q27 0 38 9t17 42l8 37h-337q-14 0 -18.5 3t-0.5 17z" />
<glyph unicode="&#xbf;" horiz-adv-x="1021" d="M66.5 213q-13.5 68 3.5 145q20 100 68 177t109.5 139.5t128 115t125 103.5t101.5 104.5t55 116.5l5 21q4 23 16 27.5t31 4.5h49q29 0 36 -14t1 -43q-16 -76 -60.5 -135.5t-103 -113.5t-123 -104t-123.5 -108.5t-104.5 -126t-63.5 -155.5q-10 -49 -4 -97.5t33.5 -86.5 t77 -60.5t125.5 -22.5q117 0 201.5 45t129.5 111q-27 10 -39 34.5t-4 63.5q10 51 51 80t84 29t68 -27.5t14 -79.5q-10 -53 -50 -79.5t-85 -26.5q-20 0 -39 6q29 41 43 92h129q-12 -57 -52 -120.5t-106.5 -117t-160.5 -87t-217 -33.5q-102 0 -176 28.5t-117 77.5t-56.5 117z M666 1286q10 51 50 80t83 29t68.5 -28t15.5 -79q-10 -53 -50 -79.5t-85 -26.5q-43 0 -67.5 26.5t-14.5 77.5z" />
<glyph unicode="&#xc0;" horiz-adv-x="1394" d="M-55 29l10 45q4 20 12 26t25 6l65 3q27 0 43.5 13t49.5 73l686 1265q12 18 20 24.5t37 6.5h90q20 0 27.5 -6t11.5 -23l152 -1257q4 -33 8 -51.5t12 -28.5t23.5 -13t39.5 -3l46 -3q27 0 31.5 -5t0.5 -25l-8 -45q-4 -20 -11 -25.5t-34 -5.5h-385q-23 0 -31 5t-4 24l10 45 q4 18 12.5 24t37.5 6h36q39 2 55.5 9.5t20.5 25.5q4 25 -2 60l-35 301h-559l-166 -312q-27 -51 -16.5 -65t61.5 -17h37q27 -2 32 -8t1 -26l-8 -41q-4 -20 -13.5 -25.5t-31.5 -5.5h-365q-14 0 -21 5t-3 24zM496 604h489l-86 752zM640 1775.5q-3 10.5 9 24.5l51 66 q10 10 20.5 12t35.5 -14l241 -144q16 -10 15.5 -18t-11.5 -23l-16 -24q-8 -12 -18.5 -14.5t-32.5 8.5l-266 106q-25 10 -28 20.5z" />
<glyph unicode="&#xc1;" horiz-adv-x="1394" d="M-55 29l10 45q4 20 12 26t25 6l65 3q27 0 43.5 13t49.5 73l686 1265q12 18 20 24.5t37 6.5h90q20 0 27.5 -6t11.5 -23l152 -1257q4 -33 8 -51.5t12 -28.5t23.5 -13t39.5 -3l46 -3q27 0 31.5 -5t0.5 -25l-8 -45q-4 -20 -11 -25.5t-34 -5.5h-385q-23 0 -31 5t-4 24l10 45 q4 18 12.5 24t37.5 6h36q39 2 55.5 9.5t20.5 25.5q4 25 -2 60l-35 301h-559l-166 -312q-27 -51 -16.5 -65t61.5 -17h37q27 -2 32 -8t1 -26l-8 -41q-4 -20 -13.5 -25.5t-31.5 -5.5h-365q-14 0 -21 5t-3 24zM496 604h489l-86 752zM874 1667q-4 12 0.5 20.5t26.5 18.5l297 143 q29 12 39 13.5t18 -11.5l25 -61q8 -14 2 -22.5t-31 -18.5l-319 -111q-29 -10 -38 -8t-13 15z" />
<glyph unicode="&#xc2;" horiz-adv-x="1394" d="M-55 29l10 45q4 20 12 26t25 6l65 3q27 0 43.5 13t49.5 73l686 1265q12 18 20 24.5t37 6.5h90q20 0 27.5 -6t11.5 -23l152 -1257q4 -33 8 -51.5t12 -28.5t23.5 -13t39.5 -3l46 -3q27 0 31.5 -5t0.5 -25l-8 -45q-4 -20 -11 -25.5t-34 -5.5h-385q-23 0 -31 5t-4 24l10 45 q4 18 12.5 24t37.5 6h36q39 2 55.5 9.5t20.5 25.5q4 25 -2 60l-35 301h-559l-166 -312q-27 -51 -16.5 -65t61.5 -17h37q27 -2 32 -8t1 -26l-8 -41q-4 -20 -13.5 -25.5t-31.5 -5.5h-365q-14 0 -21 5t-3 24zM496 604h489l-86 752zM669 1620q1 12 13 22l258 209q23 20 34 24.5 t40 4.5t39 -4t26 -25l168 -209q8 -10 2 -22t-22 -12h-64q-16 0 -24.5 5t-24.5 21l-123 146l-182 -146q-20 -16 -32.5 -21t-28.5 -5h-64q-16 0 -15 12z" />
<glyph unicode="&#xc3;" horiz-adv-x="1394" d="M-55 29l10 45q4 20 12 26t25 6l65 3q27 0 43.5 13t49.5 73l686 1265q12 18 20 24.5t37 6.5h90q20 0 27.5 -6t11.5 -23l152 -1257q4 -33 8 -51.5t12 -28.5t23.5 -13t39.5 -3l46 -3q27 0 31.5 -5t0.5 -25l-8 -45q-4 -20 -11 -25.5t-34 -5.5h-385q-23 0 -31 5t-4 24l10 45 q4 18 12.5 24t37.5 6h36q39 2 55.5 9.5t20.5 25.5q4 25 -2 60l-35 301h-559l-166 -312q-27 -51 -16.5 -65t61.5 -17h37q27 -2 32 -8t1 -26l-8 -41q-4 -20 -13.5 -25.5t-31.5 -5.5h-365q-14 0 -21 5t-3 24zM496 604h489l-86 752zM738.5 1645.5q-3.5 3.5 0.5 17.5 q16 78 64.5 120t120.5 42q55 0 71.5 -20.5t26.5 -41.5q4 -12 13 -21t38 -9q59 0 78 69q4 14 20 15h56q18 0 12 -19q-35 -164 -184 -164q-59 0 -80 17.5t-27 38.5q-4 14 -11 26.5t-36 12.5q-57 0 -74 -70q-4 -10 -8 -13.5t-14 -3.5h-53q-10 0 -13.5 3.5z" />
<glyph unicode="&#xc4;" horiz-adv-x="1394" d="M-55 29l10 45q4 20 12 26t25 6l65 3q27 0 43.5 13t49.5 73l686 1265q12 18 20 24.5t37 6.5h90q20 0 27.5 -6t11.5 -23l152 -1257q4 -33 8 -51.5t12 -28.5t23.5 -13t39.5 -3l46 -3q27 0 31.5 -5t0.5 -25l-8 -45q-4 -20 -11 -25.5t-34 -5.5h-385q-23 0 -31 5t-4 24l10 45 q4 18 12.5 24t37.5 6h36q39 2 55.5 9.5t20.5 25.5q4 25 -2 60l-35 301h-559l-166 -312q-27 -51 -16.5 -65t61.5 -17h37q27 -2 32 -8t1 -26l-8 -41q-4 -20 -13.5 -25.5t-31.5 -5.5h-365q-14 0 -21 5t-3 24zM496 604h489l-86 752zM725 1726q10 47 46 77t75 30t60.5 -26.5 t11.5 -73.5q-10 -45 -45 -73t-76 -28t-61.5 25.5t-10.5 68.5zM1049 1726q10 47 47 77t75 30q39 0 60.5 -26.5t11.5 -73.5q-10 -45 -46 -73t-77 -28q-39 0 -60 25.5t-11 68.5z" />
<glyph unicode="&#xc5;" horiz-adv-x="1394" d="M-55 29l10 45q4 20 12 26t25 6l65 3q27 0 43.5 13t49.5 73l686 1265q12 18 20 24.5t37 6.5h90q20 0 27.5 -6t11.5 -23l152 -1257q4 -33 8 -51.5t12 -28.5t23.5 -13t39.5 -3l46 -3q27 0 31.5 -5t0.5 -25l-8 -45q-4 -20 -11 -25.5t-34 -5.5h-385q-23 0 -31 5t-4 24l10 45 q4 18 12.5 24t37.5 6h36q39 2 55.5 9.5t20.5 25.5q4 25 -2 60l-35 301h-559l-166 -312q-27 -51 -16.5 -65t61.5 -17h37q27 -2 32 -8t1 -26l-8 -41q-4 -20 -13.5 -25.5t-31.5 -5.5h-365q-14 0 -21 5t-3 24zM496 604h489l-86 752zM780 1784q16 78 83 123t165 45t147.5 -45 t32.5 -123q-16 -76 -85 -122t-167 -46q-96 0 -144 46t-32 122zM881 1784q-10 -47 17.5 -72.5t72.5 -25.5q47 0 87 25.5t50 72.5t-18.5 72.5t-75.5 25.5t-85 -25.5t-48 -72.5z" />
<glyph unicode="&#xc6;" horiz-adv-x="1912" d="M-70 31l11 47q2 14 7 21t27 10h64q14 0 24.5 2t22.5 13t29.5 33.5t42.5 61.5l727 1174q20 31 33.5 48t28 25.5t31.5 10.5t48 2h889q55 0 68.5 -13.5t3.5 -83.5l-29 -198q-4 -31 -9 -40t-30 -9h-43q-23 0 -30 7t-3 38l12 96q4 35 -1 54.5t-22 28.5t-48 11t-78 2h-442 l-125 -590h307q20 0 37.5 11.5t27.5 46.5l21 86q4 20 12 24t31 4h33q18 0 22 -7t0 -25l-82 -390q-4 -16 -12 -24t-27 -8h-32q-23 0 -29 6t-2 22l14 86q6 35 -5 48.5t-32 13.5h-307l-121 -570h482q53 0 84.5 3.5t52 15.5t34 35.5t27.5 64.5l47 148q8 16 16.5 22t33.5 6h36 q33 0 25 -32l-86 -273q-10 -35 -19.5 -54t-21.5 -28.5t-28.5 -11.5t-39.5 -2h-950q-16 0 -23.5 5t-2.5 24l10 45q8 33 37 32q47 0 75.5 2.5t45 11.5t25.5 25.5t15 44.5l66 310h-477l-183 -297q-29 -43 -30 -64q-4 -20 11 -25t50 -8h45q23 0 25 -11t-2 -25l-8 -35 q-8 -35 -37 -35h-375q-18 0 -23.5 5t-1.5 26zM524 606h434l164 764h-86q-14 0 -31.5 -9t-27.5 -30z" />
<glyph unicode="&#xc7;" horiz-adv-x="1380" d="M153.5 421q-16.5 136 20.5 318q35 164 110.5 303.5t186.5 240.5t255 157.5t316 56.5q135 0 223.5 -32.5t137.5 -84t62.5 -116t0.5 -125.5q-12 -53 -52 -80t-83 -27q-45 0 -69.5 26.5t-14.5 78.5q10 43 41 69.5t68 34.5q-29 61 -108 103t-218 42q-152 0 -271.5 -54 t-208.5 -147t-147.5 -215t-87.5 -257q-27 -131 -19.5 -245t60 -197t152.5 -130t258 -47q86 0 158.5 11.5t132 29t106.5 36.5t82 34q20 10 31.5 10t5.5 -25l-12 -67q-2 -12 -9.5 -20.5t-31.5 -20.5q-53 -29 -179 -65.5t-307 -39.5l-32 -55q92 10 143 -25.5t31 -129.5 q-20 -96 -93 -140.5t-188 -44.5q-37 0 -81 4t-64 8q-6 2 -9.5 6.5t1.5 20.5l8 37q4 18 8 21.5t14 1.5q51 -8 77 -11.5t60 -3.5q70 0 110 26.5t50 71.5q10 47 -18.5 62.5t-69.5 15.5q-29 0 -62.5 -4t-52.5 -4q-29 0 -10 25l84 123q-141 12 -246.5 63t-169 145.5t-80 230.5z " />
<glyph unicode="&#xc8;" horiz-adv-x="1249" d="M14 29l11 45q8 33 36 32q47 0 76 2.5t45.5 11.5t25.5 25.5t15 44.5l238 1115q14 66 -39 67h-92q-12 0 -19.5 4t-3.5 25l10 49q4 18 11.5 23.5t29.5 5.5h893q55 0 69.5 -13.5t4.5 -83.5l-31 -198q-4 -31 -10 -40t-31 -9h-41q-23 0 -29.5 7t-2.5 38l12 96q4 35 -1 54.5 t-21.5 28.5t-48 11t-79.5 2h-426l-124 -590h286q18 0 35.5 11.5t28.5 46.5l20 80q4 20 12.5 25t30.5 5h35q23 0 28 -6t1 -24l-82 -385q-4 -16 -10.5 -23.5t-24.5 -7.5h-41q-23 0 -29 6t-2 25l13 79q6 35 -6.5 48.5t-30.5 13.5h-287l-121 -570h520q33 0 52.5 3.5t32 10.5 t21.5 22.5t17 39.5l60 191q8 16 16 22t31 6h47q33 0 24 -32l-96 -320q-10 -35 -23.5 -42t-43.5 -7h-965q-16 0 -23.5 5t-3.5 24zM593 1775.5q-3 10.5 9 24.5l51 66q10 10 20.5 12t35.5 -14l241 -144q16 -10 15.5 -18t-11.5 -23l-16 -24q-8 -12 -18.5 -14.5t-32.5 8.5 l-266 106q-25 10 -28 20.5z" />
<glyph unicode="&#xc9;" horiz-adv-x="1249" d="M14 29l11 45q8 33 36 32q47 0 76 2.5t45.5 11.5t25.5 25.5t15 44.5l238 1115q14 66 -39 67h-92q-12 0 -19.5 4t-3.5 25l10 49q4 18 11.5 23.5t29.5 5.5h893q55 0 69.5 -13.5t4.5 -83.5l-31 -198q-4 -31 -10 -40t-31 -9h-41q-23 0 -29.5 7t-2.5 38l12 96q4 35 -1 54.5 t-21.5 28.5t-48 11t-79.5 2h-426l-124 -590h286q18 0 35.5 11.5t28.5 46.5l20 80q4 20 12.5 25t30.5 5h35q23 0 28 -6t1 -24l-82 -385q-4 -16 -10.5 -23.5t-24.5 -7.5h-41q-23 0 -29 6t-2 25l13 79q6 35 -6.5 48.5t-30.5 13.5h-287l-121 -570h520q33 0 52.5 3.5t32 10.5 t21.5 22.5t17 39.5l60 191q8 16 16 22t31 6h47q33 0 24 -32l-96 -320q-10 -35 -23.5 -42t-43.5 -7h-965q-16 0 -23.5 5t-3.5 24zM829 1667q-4 12 0.5 20.5t26.5 18.5l297 143q29 12 39 13.5t18 -11.5l25 -61q8 -14 2 -22.5t-31 -18.5l-319 -111q-29 -10 -38 -8t-13 15z" />
<glyph unicode="&#xca;" horiz-adv-x="1249" d="M14 29l11 45q8 33 36 32q47 0 76 2.5t45.5 11.5t25.5 25.5t15 44.5l238 1115q14 66 -39 67h-92q-12 0 -19.5 4t-3.5 25l10 49q4 18 11.5 23.5t29.5 5.5h893q55 0 69.5 -13.5t4.5 -83.5l-31 -198q-4 -31 -10 -40t-31 -9h-41q-23 0 -29.5 7t-2.5 38l12 96q4 35 -1 54.5 t-21.5 28.5t-48 11t-79.5 2h-426l-124 -590h286q18 0 35.5 11.5t28.5 46.5l20 80q4 20 12.5 25t30.5 5h35q23 0 28 -6t1 -24l-82 -385q-4 -16 -10.5 -23.5t-24.5 -7.5h-41q-23 0 -29 6t-2 25l13 79q6 35 -6.5 48.5t-30.5 13.5h-287l-121 -570h520q33 0 52.5 3.5t32 10.5 t21.5 22.5t17 39.5l60 191q8 16 16 22t31 6h47q33 0 24 -32l-96 -320q-10 -35 -23.5 -42t-43.5 -7h-965q-16 0 -23.5 5t-3.5 24zM622 1620q1 12 13 22l258 209q23 20 34 24.5t40 4.5t39 -4t26 -25l168 -209q8 -10 2 -22t-22 -12h-64q-16 0 -24.5 5t-24.5 21l-123 146 l-182 -146q-20 -16 -32.5 -21t-29.5 -5h-63q-16 0 -15 12z" />
<glyph unicode="&#xcb;" horiz-adv-x="1249" d="M14 29l11 45q8 33 36 32q47 0 76 2.5t45.5 11.5t25.5 25.5t15 44.5l238 1115q14 66 -39 67h-92q-12 0 -19.5 4t-3.5 25l10 49q4 18 11.5 23.5t29.5 5.5h893q55 0 69.5 -13.5t4.5 -83.5l-31 -198q-4 -31 -10 -40t-31 -9h-41q-23 0 -29.5 7t-2.5 38l12 96q4 35 -1 54.5 t-21.5 28.5t-48 11t-79.5 2h-426l-124 -590h286q18 0 35.5 11.5t28.5 46.5l20 80q4 20 12.5 25t30.5 5h35q23 0 28 -6t1 -24l-82 -385q-4 -16 -10.5 -23.5t-24.5 -7.5h-41q-23 0 -29 6t-2 25l13 79q6 35 -6.5 48.5t-30.5 13.5h-287l-121 -570h520q33 0 52.5 3.5t32 10.5 t21.5 22.5t17 39.5l60 191q8 16 16 22t31 6h47q33 0 24 -32l-96 -320q-10 -35 -23.5 -42t-43.5 -7h-965q-16 0 -23.5 5t-3.5 24zM678 1726q10 47 46 77t75 30t60.5 -26.5t10.5 -73.5q-10 -45 -44.5 -73t-75.5 -28t-61.5 25.5t-10.5 68.5zM1001 1726q10 47 47 77t76 30 t60.5 -26.5t11.5 -73.5q-10 -45 -46 -73t-77 -28q-39 0 -60.5 25.5t-11.5 68.5z" />
<glyph unicode="&#xcc;" horiz-adv-x="659" d="M14 29l13 49q4 16 10 22t26 6h70q41 0 59.5 15.5t28.5 68.5l234 1098q10 53 -0.5 68.5t-51.5 15.5h-73q-20 0 -24.5 5t-0.5 26l10 45q4 20 12.5 25.5t24.5 5.5h428q18 0 23.5 -5.5t1.5 -25.5l-10 -45q-4 -23 -10.5 -27t-26.5 -4h-76q-41 0 -57.5 -15.5t-28.5 -68.5 l-234 -1098q-10 -53 4.5 -68.5t55.5 -15.5h72q20 0 23 -5t-1 -21l-10 -49q-4 -14 -11.5 -22.5t-23.5 -8.5h-430q-33 0 -27 29zM279 1775.5q-3 10.5 10 24.5l51 66q10 10 20.5 12t34.5 -14l242 -144q16 -10 15 -18t-11 -23l-16 -24q-8 -12 -18.5 -14.5t-33.5 8.5l-266 106 q-25 10 -28 20.5z" />
<glyph unicode="&#xcd;" horiz-adv-x="659" d="M14 29l13 49q4 16 10 22t26 6h70q41 0 59.5 15.5t28.5 68.5l234 1098q10 53 -0.5 68.5t-51.5 15.5h-73q-20 0 -24.5 5t-0.5 26l10 45q4 20 12.5 25.5t24.5 5.5h428q18 0 23.5 -5.5t1.5 -25.5l-10 -45q-4 -23 -10.5 -27t-26.5 -4h-76q-41 0 -57.5 -15.5t-28.5 -68.5 l-234 -1098q-10 -53 4.5 -68.5t55.5 -15.5h72q20 0 23 -5t-1 -21l-10 -49q-4 -14 -11.5 -22.5t-23.5 -8.5h-430q-33 0 -27 29zM514 1667q-4 12 0 20.5t27 18.5l297 143q29 12 39 13.5t18 -11.5l25 -61q8 -14 1.5 -22.5t-30.5 -18.5l-320 -111q-29 -10 -38 -8t-13 15z" />
<glyph unicode="&#xce;" horiz-adv-x="659" d="M14 29l13 49q4 16 10 22t26 6h70q41 0 59.5 15.5t28.5 68.5l234 1098q10 53 -0.5 68.5t-51.5 15.5h-73q-20 0 -24.5 5t-0.5 26l10 45q4 20 12.5 25.5t24.5 5.5h428q18 0 23.5 -5.5t1.5 -25.5l-10 -45q-4 -23 -10.5 -27t-26.5 -4h-76q-41 0 -57.5 -15.5t-28.5 -68.5 l-234 -1098q-10 -53 4.5 -68.5t55.5 -15.5h72q20 0 23 -5t-1 -21l-10 -49q-4 -14 -11.5 -22.5t-23.5 -8.5h-430q-33 0 -27 29zM308.5 1620q0.5 12 13.5 22l258 209q23 20 34 24.5t39 4.5q29 0 39 -4t27 -25l168 -209q8 -10 2 -22t-23 -12h-63q-16 0 -24.5 5t-24.5 21 l-123 146l-182 -146q-20 -16 -33 -21t-29 -5h-63q-16 0 -15.5 12z" />
<glyph unicode="&#xcf;" horiz-adv-x="659" d="M14 29l13 49q4 16 10 22t26 6h70q41 0 59.5 15.5t28.5 68.5l234 1098q10 53 -0.5 68.5t-51.5 15.5h-73q-20 0 -24.5 5t-0.5 26l10 45q4 20 12.5 25.5t24.5 5.5h428q18 0 23.5 -5.5t1.5 -25.5l-10 -45q-4 -23 -10.5 -27t-26.5 -4h-76q-41 0 -57.5 -15.5t-28.5 -68.5 l-234 -1098q-10 -53 4.5 -68.5t55.5 -15.5h72q20 0 23 -5t-1 -21l-10 -49q-4 -14 -11.5 -22.5t-23.5 -8.5h-430q-33 0 -27 29zM365 1726q10 47 45.5 77t74.5 30t60.5 -26.5t11.5 -73.5q-10 -45 -45 -73t-76 -28t-61 25.5t-10 68.5zM688 1726q10 47 47 77t76 30t60.5 -26.5 t11.5 -73.5q-10 -45 -46 -73t-77 -28q-39 0 -60.5 25.5t-11.5 68.5z" />
<glyph unicode="&#xd0;" horiz-adv-x="1468" d="M14 29l11 45q8 33 36 32q47 0 76 2.5t45.5 11.5t25.5 25.5t15 44.5l94 441h-143q-20 0 -18 22l14 64q2 20 27 20h143l121 568q8 35 0 50t-39 17h-90q-14 0 -21.5 4t-3.5 25l10 49q4 18 12.5 23.5t30.5 5.5h453q408 0 563.5 -191.5t71.5 -574.5q-76 -362 -308.5 -537.5 t-631.5 -175.5h-467q-16 0 -23.5 5t-3.5 24zM348 113h170q340 0 528.5 149.5t258.5 474.5q72 332 -55.5 482.5t-465.5 150.5h-168l-135 -633h480q14 0 17 -5t1 -15l-14 -64q-2 -23 -27 -22h-479z" />
<glyph unicode="&#xd1;" horiz-adv-x="1556" d="M10 29l10 47q4 20 12.5 25t26.5 5h66q43 0 62.5 10.5t25.5 41.5l246 1153q4 39 -9.5 50t-52.5 11h-61q-20 0 -24.5 5t-0.5 26l11 47q4 18 11 23.5t25 5.5h220q43 0 53 -31l524 -1239l238 1112q6 33 -8.5 42t-57.5 9h-67q-18 0 -23.5 4t-1.5 25l10 47q4 20 12.5 25.5 t24.5 5.5h412q16 0 22 -5.5t2 -23.5l-10 -47q-4 -20 -11 -25.5t-26 -5.5h-65q-43 0 -62.5 -10t-25.5 -41l-279 -1305q-6 -33 -43 -32h-35q-16 0 -30.5 6t-20.5 20l-541 1247l-233 -1099q-8 -33 8 -42.5t59 -9.5h68q18 0 23.5 -4t1.5 -24l-11 -47q-4 -20 -12 -25.5t-24 -5.5 h-412q-16 0 -23.5 5t-3.5 24zM804 1645.5q-3 3.5 1 17.5q16 78 64.5 120t119.5 42q55 0 71.5 -20.5t26.5 -41.5q4 -12 13.5 -21t38.5 -9q59 0 78 69q4 14 20 15h55q18 0 13 -19q-35 -164 -185 -164q-59 0 -79.5 17.5t-26.5 38.5q-4 14 -11.5 26.5t-35.5 12.5q-57 0 -74 -70 q-4 -10 -8 -13.5t-15 -3.5h-53q-10 0 -13 3.5z" />
<glyph unicode="&#xd2;" horiz-adv-x="1593" d="M148.5 471.5q-7.5 141.5 23.5 288.5q29 129 88 260t159.5 238.5t245 175t343.5 67.5q207 0 333.5 -67.5t191 -178t73 -252t-22.5 -288.5q-27 -127 -87 -258t-159.5 -238.5t-245 -176.5t-346.5 -69q-207 0 -334.5 68t-191 178.5t-71 252zM299 514.5q0 -115.5 43 -211.5 t138 -157.5t261 -61.5q168 0 289 62.5t203 158.5t130 211t71 217q23 106 22.5 222t-43.5 213.5t-138 160t-263 62.5q-162 0 -281 -60.5t-202 -155t-133 -210t-74 -226.5q-23 -109 -23 -224.5zM738 1775.5q-3 10.5 10 24.5l51 66q10 10 20 12t35 -14l242 -144q16 -10 15 -18 t-11 -23l-17 -24q-8 -12 -18 -14.5t-33 8.5l-266 106q-25 10 -28 20.5z" />
<glyph unicode="&#xd3;" horiz-adv-x="1593" d="M148.5 471.5q-7.5 141.5 23.5 288.5q29 129 88 260t159.5 238.5t245 175t343.5 67.5q207 0 333.5 -67.5t191 -178t73 -252t-22.5 -288.5q-27 -127 -87 -258t-159.5 -238.5t-245 -176.5t-346.5 -69q-207 0 -334.5 68t-191 178.5t-71 252zM299 514.5q0 -115.5 43 -211.5 t138 -157.5t261 -61.5q168 0 289 62.5t203 158.5t130 211t71 217q23 106 22.5 222t-43.5 213.5t-138 160t-263 62.5q-162 0 -281 -60.5t-202 -155t-133 -210t-74 -226.5q-23 -109 -23 -224.5zM975 1667q-4 12 0 20.5t26 18.5l297 143q29 12 39.5 13.5t18.5 -11.5l24 -61 q8 -14 2 -22.5t-30 -18.5l-320 -111q-29 -10 -38 -8t-13 15z" />
<glyph unicode="&#xd4;" horiz-adv-x="1593" d="M148.5 471.5q-7.5 141.5 23.5 288.5q29 129 88 260t159.5 238.5t245 175t343.5 67.5q207 0 333.5 -67.5t191 -178t73 -252t-22.5 -288.5q-27 -127 -87 -258t-159.5 -238.5t-245 -176.5t-346.5 -69q-207 0 -334.5 68t-191 178.5t-71 252zM299 514.5q0 -115.5 43 -211.5 t138 -157.5t261 -61.5q168 0 289 62.5t203 158.5t130 211t71 217q23 106 22.5 222t-43.5 213.5t-138 160t-263 62.5q-162 0 -281 -60.5t-202 -155t-133 -210t-74 -226.5q-23 -109 -23 -224.5zM767 1620q1 12 13 22l258 209q23 20 34 24.5t40 4.5t39 -4t27 -25l168 -209 q8 -10 1.5 -22t-22.5 -12h-63q-16 0 -24.5 5t-25.5 21l-122 146l-183 -146q-20 -16 -32.5 -21t-28.5 -5h-64q-16 0 -15 12z" />
<glyph unicode="&#xd5;" horiz-adv-x="1593" d="M148.5 471.5q-7.5 141.5 23.5 288.5q29 129 88 260t159.5 238.5t245 175t343.5 67.5q207 0 333.5 -67.5t191 -178t73 -252t-22.5 -288.5q-27 -127 -87 -258t-159.5 -238.5t-245 -176.5t-346.5 -69q-207 0 -334.5 68t-191 178.5t-71 252zM299 514.5q0 -115.5 43 -211.5 t138 -157.5t261 -61.5q168 0 289 62.5t203 158.5t130 211t71 217q23 106 22.5 222t-43.5 213.5t-138 160t-263 62.5q-162 0 -281 -60.5t-202 -155t-133 -210t-74 -226.5q-23 -109 -23 -224.5zM837 1645.5q-3 3.5 1 17.5q16 78 64 120t120 42q55 0 71.5 -20.5t26.5 -41.5 q4 -12 13 -21t38 -9q59 0 78 69q4 14 21 15h55q18 0 12 -19q-35 -164 -184 -164q-59 0 -79.5 17.5t-26.5 38.5q-4 14 -11.5 26.5t-36.5 12.5q-57 0 -73 -70q-4 -10 -8.5 -13.5t-14.5 -3.5h-53q-10 0 -13 3.5z" />
<glyph unicode="&#xd6;" horiz-adv-x="1593" d="M148.5 471.5q-7.5 141.5 23.5 288.5q29 129 88 260t159.5 238.5t245 175t343.5 67.5q207 0 333.5 -67.5t191 -178t73 -252t-22.5 -288.5q-27 -127 -87 -258t-159.5 -238.5t-245 -176.5t-346.5 -69q-207 0 -334.5 68t-191 178.5t-71 252zM299 514.5q0 -115.5 43 -211.5 t138 -157.5t261 -61.5q168 0 289 62.5t203 158.5t130 211t71 217q23 106 22.5 222t-43.5 213.5t-138 160t-263 62.5q-162 0 -281 -60.5t-202 -155t-133 -210t-74 -226.5q-23 -109 -23 -224.5zM823 1726q10 47 46 77t75 30t60.5 -26.5t11.5 -73.5q-10 -45 -45 -73t-76 -28 t-61.5 25.5t-10.5 68.5zM1147 1726q10 47 47 77t76 30t60.5 -26.5t10.5 -73.5q-10 -45 -45.5 -73t-76.5 -28q-39 0 -60.5 25.5t-11.5 68.5z" />
<glyph unicode="&#xd7;" horiz-adv-x="1105" d="M67 162.5q1 19.5 42 54.5l407 338l-264 338q-25 35 -18.5 54.5t22.5 31.5q33 29 51.5 20.5t40.5 -36.5l256 -322l4 -8l10 8v-2l392 324q35 29 57.5 37t42.5 -21q10 -12 10 -31.5t-41 -54.5l-407 -338l264 -338q25 -35 17.5 -54.5t-23.5 -31.5q-33 -29 -51.5 -20.5 t-40.5 36.5l-256 324v-2l-7 6l-8 -6l-391 -322q-35 -29 -57.5 -37t-42.5 21q-10 12 -9 31.5z" />
<glyph unicode="&#xd8;" horiz-adv-x="1593" d="M146.5 549.5q3.5 103.5 25.5 210.5q29 129 88 260t159.5 238.5t245 175t343.5 67.5q74 0 137 -10t117 -27l22 37q14 23 22.5 30t22.5 3l90 -18q14 -4 12.5 -14.5t-16.5 -31.5l-37 -57q84 -51 135.5 -127t74 -168t20.5 -195.5t-25 -207.5q-27 -127 -87 -258t-159.5 -238.5 t-245 -176.5t-346.5 -69q-143 0 -253 35l-33 -53q-12 -20 -19.5 -26.5t-21.5 -2.5l-84 23q-12 4 -13.5 10t15.5 33l41 67q-86 51 -136.5 127t-74 168t-20 195.5zM300.5 582.5q-5.5 -80.5 6.5 -156.5t45 -142.5t94 -113.5l752 1192q-82 29 -186 29q-162 0 -281 -60.5 t-202 -155t-133 -210t-74 -226.5q-16 -76 -21.5 -156.5zM557 111q39 -12 85 -19.5t99 -7.5q168 0 289 62.5t203 158.5t130 211t71 217q16 74 20 155t-8 156.5t-45 142t-92 116.5z" />
<glyph unicode="&#xd9;" horiz-adv-x="1527" d="M249 307.5q-9 102.5 17 231.5l160 749q10 53 0 68.5t-51 15.5h-74q-20 0 -24.5 5t-0.5 26l11 45q4 20 12 25.5t25 5.5h428q18 0 23 -5.5t1 -25.5l-10 -45q-4 -23 -10 -27t-27 -4h-76q-41 0 -57 -15.5t-29 -68.5l-155 -737q-47 -225 24.5 -333.5t276.5 -108.5 q90 0 169 22.5t143.5 74.5t111.5 138t73 211l158 737q10 49 -1 64.5t-52 15.5h-74q-18 0 -23.5 5t-0.5 26l10 45q4 20 12 25.5t25 5.5h413q18 0 24.5 -5.5t2.5 -25.5l-10 -45q-4 -23 -11.5 -27t-27.5 -4h-76q-41 0 -56.5 -14.5t-25.5 -65.5l-160 -747q-59 -287 -222 -423 t-421 -136q-143 0 -238.5 37.5t-146.5 109.5t-60 174.5zM713.5 1775.5q-2.5 10.5 9.5 24.5l51 66q10 10 20.5 12t34.5 -14l242 -144q16 -10 15 -18t-11 -23l-16 -24q-8 -12 -18.5 -14.5t-32.5 8.5l-267 106q-25 10 -27.5 20.5z" />
<glyph unicode="&#xda;" horiz-adv-x="1527" d="M249 307.5q-9 102.5 17 231.5l160 749q10 53 0 68.5t-51 15.5h-74q-20 0 -24.5 5t-0.5 26l11 45q4 20 12 25.5t25 5.5h428q18 0 23 -5.5t1 -25.5l-10 -45q-4 -23 -10 -27t-27 -4h-76q-41 0 -57 -15.5t-29 -68.5l-155 -737q-47 -225 24.5 -333.5t276.5 -108.5 q90 0 169 22.5t143.5 74.5t111.5 138t73 211l158 737q10 49 -1 64.5t-52 15.5h-74q-18 0 -23.5 5t-0.5 26l10 45q4 20 12 25.5t25 5.5h413q18 0 24.5 -5.5t2.5 -25.5l-10 -45q-4 -23 -11.5 -27t-27.5 -4h-76q-41 0 -56.5 -14.5t-25.5 -65.5l-160 -747q-59 -287 -222 -423 t-421 -136q-143 0 -238.5 37.5t-146.5 109.5t-60 174.5zM950 1667q-4 12 0 20.5t27 18.5l297 143q29 12 39 13.5t18 -11.5l25 -61q8 -14 2 -22.5t-31 -18.5l-319 -111q-29 -10 -38 -8t-14 15z" />
<glyph unicode="&#xdb;" horiz-adv-x="1527" d="M249 307.5q-9 102.5 17 231.5l160 749q10 53 0 68.5t-51 15.5h-74q-20 0 -24.5 5t-0.5 26l11 45q4 20 12 25.5t25 5.5h428q18 0 23 -5.5t1 -25.5l-10 -45q-4 -23 -10 -27t-27 -4h-76q-41 0 -57 -15.5t-29 -68.5l-155 -737q-47 -225 24.5 -333.5t276.5 -108.5 q90 0 169 22.5t143.5 74.5t111.5 138t73 211l158 737q10 49 -1 64.5t-52 15.5h-74q-18 0 -23.5 5t-0.5 26l10 45q4 20 12 25.5t25 5.5h413q18 0 24.5 -5.5t2.5 -25.5l-10 -45q-4 -23 -11.5 -27t-27.5 -4h-76q-41 0 -56.5 -14.5t-25.5 -65.5l-160 -747q-59 -287 -222 -423 t-421 -136q-143 0 -238.5 37.5t-146.5 109.5t-60 174.5zM742.5 1620q0.5 12 13.5 22l258 209q23 20 34 24.5t39 4.5q29 0 39.5 -4t26.5 -25l168 -209q8 -10 2 -22t-23 -12h-63q-16 0 -24.5 5t-24.5 21l-123 146l-182 -146q-20 -16 -32.5 -21t-29.5 -5h-63q-16 0 -15.5 12z " />
<glyph unicode="&#xdc;" horiz-adv-x="1527" d="M249 307.5q-9 102.5 17 231.5l160 749q10 53 0 68.5t-51 15.5h-74q-20 0 -24.5 5t-0.5 26l11 45q4 20 12 25.5t25 5.5h428q18 0 23 -5.5t1 -25.5l-10 -45q-4 -23 -10 -27t-27 -4h-76q-41 0 -57 -15.5t-29 -68.5l-155 -737q-47 -225 24.5 -333.5t276.5 -108.5 q90 0 169 22.5t143.5 74.5t111.5 138t73 211l158 737q10 49 -1 64.5t-52 15.5h-74q-18 0 -23.5 5t-0.5 26l10 45q4 20 12 25.5t25 5.5h413q18 0 24.5 -5.5t2.5 -25.5l-10 -45q-4 -23 -11.5 -27t-27.5 -4h-76q-41 0 -56.5 -14.5t-25.5 -65.5l-160 -747q-59 -287 -222 -423 t-421 -136q-143 0 -238.5 37.5t-146.5 109.5t-60 174.5zM799 1726q10 47 46 77t75 30t60 -26.5t11 -73.5q-10 -45 -45 -73t-76 -28t-61 25.5t-10 68.5zM1122 1726q10 47 47 77t76 30t60.5 -26.5t11.5 -73.5q-10 -45 -46 -73t-77 -28q-39 0 -60.5 25.5t-11.5 68.5z" />
<glyph unicode="&#xdd;" horiz-adv-x="1273" d="M229 1405l11 45q4 18 11 23.5t23 5.5h381q18 0 23.5 -5.5t1.5 -23.5l-8 -43q-4 -20 -11.5 -27.5t-27.5 -7.5h-53q-35 0 -46.5 -10t5.5 -51l174 -594l448 596q29 41 24 50t-38 9h-53q-20 0 -23.5 8.5t0.5 28.5l8 41q4 18 12.5 23.5t24.5 5.5h359q16 0 20 -7.5t0 -21.5 l-8 -43q-4 -20 -11.5 -27.5t-27.5 -7.5h-57q-14 0 -23.5 -1t-21 -9t-24.5 -22.5t-36 -43.5l-520 -667l-96 -455q-8 -43 6 -55.5t55 -12.5h70q20 0 24 -5t0 -21l-10 -49q-4 -14 -11 -22.5t-26 -8.5h-428q-20 0 -26.5 6t-1.5 23l12 49q4 16 11 22t28 6h67q39 0 57.5 13.5 t30.5 56.5l88 420l-223 692q-16 51 -30.5 66.5t-49.5 15.5h-57q-20 0 -25.5 7t-1.5 28zM834 1667q-4 12 0 20.5t26 18.5l297 143q29 12 39 13.5t18 -11.5l25 -61q8 -14 2 -22.5t-31 -18.5l-319 -111q-29 -10 -38 -8t-13 15z" />
<glyph unicode="&#xde;" horiz-adv-x="1200" d="M61 -287l375 1766q4 18 14.5 28.5t32.5 12.5h64q23 0 27 -11.5t-1 -27.5l-84 -398q115 12 213 13q129 0 229.5 -32t163 -93.5t86.5 -151.5t-1 -205q-27 -125 -95.5 -217t-161 -151.5t-197.5 -89t-208 -29.5q-61 0 -118.5 7t-108.5 20l-92 -439q-4 -18 -13.5 -28.5 t-31.5 -12.5h-66q-20 0 -25.5 11.5t-1.5 27.5zM317 274q45 -16 104.5 -26t115.5 -10q80 0 159.5 22.5t148 68.5t119 116.5t70.5 168.5q20 92 0 161t-68 115t-119 68.5t-155 22.5q-53 0 -111.5 -3t-115.5 -13z" />
<glyph unicode="&#xdf;" horiz-adv-x="1232" d="M2 -432l324 1528q18 84 59 157.5t106.5 128t155.5 86t205 31.5q213 0 305 -103.5t51 -287.5q-12 -61 -40.5 -116.5t-66.5 -97.5t-83 -69.5t-92 -36.5q41 -8 89 -31.5t85 -69.5t53 -117.5t-6 -176.5q-20 -102 -70.5 -178t-121 -126t-159.5 -74.5t-190 -24.5 q-117 0 -184.5 17.5t-93.5 29.5q-10 4 -13.5 10t0.5 23l11 53q4 23 10 27t16 4q8 0 31 -8.5t56.5 -19.5t81 -19.5t104.5 -8.5q63 0 123.5 18.5t111.5 56.5t89 96.5t55 136.5q18 86 0.5 146t-57.5 100t-98 58.5t-124 18.5h-133q-16 0 -10 23l14 69q4 14 7 19.5t15 5.5h130 q37 0 85 12t95 43t86 82t55 127q29 133 -39.5 201.5t-200.5 68.5q-141 0 -239 -75.5t-127 -206.5l-324 -1528q-8 -35 -51 -35h-55q-37 0 -31 33z" />
<glyph unicode="&#xe0;" horiz-adv-x="1214" d="M121 520q29 129 83 237.5t132 187.5t179 123t220 44q92 0 153.5 -25.5t110.5 -64.5l2 16q8 31 19.5 44.5t40.5 13.5l233 -17q16 -2 21.5 -8t1.5 -22l-10 -56q-4 -14 -14.5 -18t-22.5 -6h-92q-27 -4 -42.5 -14.5t-25.5 -53.5l-152 -715q-18 -86 46 -86q29 0 44 4.5t33 8.5 q16 4 23.5 1t3.5 -20l-10 -53q-6 -25 -35 -35q-29 -8 -52.5 -11t-64.5 -3q-27 0 -55.5 6t-49 25.5t-28.5 54.5t4 90l2 14q-72 -106 -173 -157.5t-224 -51.5q-193 0 -276 136.5t-25 410.5zM243 346q-1 -74 20.5 -132t70.5 -93t131 -35q143 0 252.5 110.5t177.5 335.5l78 371 q-35 41 -100.5 68.5t-149.5 27.5q-96 0 -173 -43t-135.5 -113.5t-96 -160.5t-58.5 -182q-16 -80 -17 -154zM478 1513.5q-3 10.5 9 24.5l52 66q8 10 19 12t36 -14l242 -144q16 -10 15 -18t-11 -23l-17 -24q-10 -12 -20 -14.5t-33 7.5l-266 107q-23 10 -26 20.5z" />
<glyph unicode="&#xe1;" horiz-adv-x="1214" d="M121 520q29 129 83 237.5t132 187.5t179 123t220 44q92 0 153.5 -25.5t110.5 -64.5l2 16q8 31 19.5 44.5t40.5 13.5l233 -17q16 -2 21.5 -8t1.5 -22l-10 -56q-4 -14 -14.5 -18t-22.5 -6h-92q-27 -4 -42.5 -14.5t-25.5 -53.5l-152 -715q-18 -86 46 -86q29 0 44 4.5t33 8.5 q16 4 23.5 1t3.5 -20l-10 -53q-6 -25 -35 -35q-29 -8 -52.5 -11t-64.5 -3q-27 0 -55.5 6t-49 25.5t-28.5 54.5t4 90l2 14q-72 -106 -173 -157.5t-224 -51.5q-193 0 -276 136.5t-25 410.5zM243 346q-1 -74 20.5 -132t70.5 -93t131 -35q143 0 252.5 110.5t177.5 335.5l78 371 q-35 41 -100.5 68.5t-149.5 27.5q-96 0 -173 -43t-135.5 -113.5t-96 -160.5t-58.5 -182q-16 -80 -17 -154zM713 1405q-4 12 1 20.5t25 18.5l299 143q29 12 39 13.5t17 -11.5l26 -61q8 -14 2 -22.5t-30 -18.5l-322 -111q-29 -10 -37 -8t-12 14z" />
<glyph unicode="&#xe2;" horiz-adv-x="1214" d="M121 520q29 129 83 237.5t132 187.5t179 123t220 44q92 0 153.5 -25.5t110.5 -64.5l2 16q8 31 19.5 44.5t40.5 13.5l233 -17q16 -2 21.5 -8t1.5 -22l-10 -56q-4 -14 -14.5 -18t-22.5 -6h-92q-27 -4 -42.5 -14.5t-25.5 -53.5l-152 -715q-18 -86 46 -86q29 0 44 4.5t33 8.5 q16 4 23.5 1t3.5 -20l-10 -53q-6 -25 -35 -35q-29 -8 -52.5 -11t-64.5 -3q-27 0 -55.5 6t-49 25.5t-28.5 54.5t4 90l2 14q-72 -106 -173 -157.5t-224 -51.5q-193 0 -276 136.5t-25 410.5zM243 346q-1 -74 20.5 -132t70.5 -93t131 -35q143 0 252.5 110.5t177.5 335.5l78 371 q-35 41 -100.5 68.5t-149.5 27.5q-96 0 -173 -43t-135.5 -113.5t-96 -160.5t-58.5 -182q-16 -80 -17 -154zM506 1358q0 12 14 22l256 209q23 20 34 24.5t40 4.5t39 -4t26 -25l170 -209q6 -10 1 -22t-21 -12h-64q-16 0 -24 5t-25 21l-123 146l-182 -146q-20 -16 -32.5 -21 t-28.5 -5h-64q-16 0 -16 12z" />
<glyph unicode="&#xe3;" horiz-adv-x="1214" d="M121 520q29 129 83 237.5t132 187.5t179 123t220 44q92 0 153.5 -25.5t110.5 -64.5l2 16q8 31 19.5 44.5t40.5 13.5l233 -17q16 -2 21.5 -8t1.5 -22l-10 -56q-4 -14 -14.5 -18t-22.5 -6h-92q-27 -4 -42.5 -14.5t-25.5 -53.5l-152 -715q-18 -86 46 -86q29 0 44 4.5t33 8.5 q16 4 23.5 1t3.5 -20l-10 -53q-6 -25 -35 -35q-29 -8 -52.5 -11t-64.5 -3q-27 0 -55.5 6t-49 25.5t-28.5 54.5t4 90l2 14q-72 -106 -173 -157.5t-224 -51.5q-193 0 -276 136.5t-25 410.5zM243 346q-1 -74 20.5 -132t70.5 -93t131 -35q143 0 252.5 110.5t177.5 335.5l78 371 q-35 41 -100.5 68.5t-149.5 27.5q-96 0 -173 -43t-135.5 -113.5t-96 -160.5t-58.5 -182q-16 -80 -17 -154zM576.5 1383q-3.5 3 1.5 18q16 78 64 120t120 42q55 0 71.5 -20.5t24.5 -41.5q6 -12 15 -21.5t38 -9.5q59 0 76 70q8 14 23 14h55q14 0 12 -18q-35 -164 -184 -164 q-59 0 -79.5 17.5t-27.5 37.5q-4 14 -11 26.5t-36 12.5q-55 0 -75 -69q-4 -10 -7.5 -13.5t-13.5 -3.5h-53q-10 0 -13.5 3z" />
<glyph unicode="&#xe4;" horiz-adv-x="1214" d="M121 520q29 129 83 237.5t132 187.5t179 123t220 44q92 0 153.5 -25.5t110.5 -64.5l2 16q8 31 19.5 44.5t40.5 13.5l233 -17q16 -2 21.5 -8t1.5 -22l-10 -56q-4 -14 -14.5 -18t-22.5 -6h-92q-27 -4 -42.5 -14.5t-25.5 -53.5l-152 -715q-18 -86 46 -86q29 0 44 4.5t33 8.5 q16 4 23.5 1t3.5 -20l-10 -53q-6 -25 -35 -35q-29 -8 -52.5 -11t-64.5 -3q-27 0 -55.5 6t-49 25.5t-28.5 54.5t4 90l2 14q-72 -106 -173 -157.5t-224 -51.5q-193 0 -276 136.5t-25 410.5zM243 346q-1 -74 20.5 -132t70.5 -93t131 -35q143 0 252.5 110.5t177.5 335.5l78 371 q-35 41 -100.5 68.5t-149.5 27.5q-96 0 -173 -43t-135.5 -113.5t-96 -160.5t-58.5 -182q-16 -80 -17 -154zM561 1462q10 47 46 77t75 30t61.5 -26.5t12.5 -74.5q-10 -45 -46 -72.5t-77 -27.5t-61.5 25.5t-10.5 68.5zM885 1462q10 47 47 77t76 30t61.5 -26.5t11.5 -74.5 q-10 -45 -47 -72.5t-78 -27.5q-39 0 -60 25.5t-11 68.5z" />
<glyph unicode="&#xe5;" horiz-adv-x="1214" d="M121 520q29 129 83 237.5t132 187.5t179 123t220 44q92 0 153.5 -25.5t110.5 -64.5l2 16q8 31 19.5 44.5t40.5 13.5l233 -17q16 -2 21.5 -8t1.5 -22l-10 -56q-4 -14 -14.5 -18t-22.5 -6h-92q-27 -4 -42.5 -14.5t-25.5 -53.5l-152 -715q-18 -86 46 -86q29 0 44 4.5t33 8.5 q16 4 23.5 1t3.5 -20l-10 -53q-6 -25 -35 -35q-29 -8 -52.5 -11t-64.5 -3q-27 0 -55.5 6t-49 25.5t-28.5 54.5t4 90l2 14q-72 -106 -173 -157.5t-224 -51.5q-193 0 -276 136.5t-25 410.5zM243 346q-1 -74 20.5 -132t70.5 -93t131 -35q143 0 252.5 110.5t177.5 335.5l78 371 q-35 41 -100.5 68.5t-149.5 27.5q-96 0 -173 -43t-135.5 -113.5t-96 -160.5t-58.5 -182q-16 -80 -17 -154zM618 1524q16 78 83 123t165 45t147.5 -45t33.5 -123q-16 -76 -85 -122t-167 -46q-96 0 -144.5 46t-32.5 122zM719 1524q-10 -47 17.5 -73t72.5 -26q47 0 87 26t50 73 t-18.5 72.5t-75.5 25.5t-85 -25.5t-48 -72.5z" />
<glyph unicode="&#xe6;" horiz-adv-x="1814" d="M66 270q41 197 207.5 275t451.5 78h109l18 90q18 86 15 143t-28.5 91t-72.5 48.5t-119 14.5q-84 0 -152.5 -18.5t-113.5 -65.5q23 -10 37 -33t6 -57q-10 -45 -46 -73t-73 -28t-58.5 25.5t-10.5 70.5l2 9q35 158 147.5 216t282.5 58q145 0 230 -42t103 -152q84 92 195 143 t250 51q217 0 312 -101.5t57 -281.5q-33 -158 -163 -250t-372 -92q-96 0 -181 13.5t-155 41.5q-10 -80 0 -146.5t47 -113.5t100.5 -72.5t161.5 -25.5q51 0 103.5 6t97.5 19q35 10 77 23t68 24q20 4 17 -17l-12 -57q-4 -18 -11.5 -26.5t-31.5 -18.5q-78 -33 -159 -49.5 t-173 -16.5q-205 0 -303.5 80t-120.5 211q-25 -53 -68 -103t-104.5 -88t-139 -61.5t-171.5 -23.5q-317 0 -256 282zM201 270q-18 -82 16.5 -129t147.5 -47q74 0 144.5 23.5t127.5 67.5t98 109.5t60 147.5l16 78h-109q-229 0 -350.5 -55.5t-150.5 -194.5zM961 549 q76 -29 158.5 -42t160.5 -13q180 0 277.5 62t123.5 185q29 125 -41 196t-217 71q-182 0 -298.5 -125t-163.5 -334z" />
<glyph unicode="&#xe7;" horiz-adv-x="1060" d="M105.5 342q-5.5 94 19.5 207q29 129 86 233.5t140 178t188.5 113.5t228.5 40q100 0 165.5 -25.5t100.5 -65.5t45.5 -88t-0.5 -95q-10 -47 -45 -76t-80 -29q-41 0 -63.5 26.5t-11.5 72.5q8 35 29.5 60.5t47.5 39.5q-25 29 -76 48t-132 19q-102 0 -182.5 -36.5t-138.5 -100 t-96 -148.5t-59 -179q-20 -98 -15 -178t40 -137.5t104.5 -89.5t178.5 -32q119 0 200.5 28t130.5 48q27 10 33 6t2 -24l-10 -52q-4 -20 -10 -27t-27 -18q-37 -20 -132 -48.5t-224 -28.5h-25l-22 -39q90 10 142 -26t32 -130q-23 -96 -95.5 -140t-187.5 -44q-37 0 -81 4t-62 8 q-8 2 -10.5 6t2.5 21l6 37q4 18 9 21t15 1q51 -8 76 -11t59 -3q70 0 110 26.5t50 71.5q10 47 -18.5 62.5t-69.5 15.5q-29 0 -61.5 -4t-51.5 -4q-12 0 -17 6t5 18l76 113q-104 16 -174 62t-104.5 119t-40 167z" />
<glyph unicode="&#xe8;" horiz-adv-x="1073" d="M106.5 310.5q-6.5 103.5 20.5 232.5q29 129 80 234.5t125 180t168 115.5t207 41q203 0 287.5 -93t45.5 -267q-35 -150 -150.5 -240t-332.5 -90q-80 0 -159 12.5t-142 40.5q-33 -209 41 -296t235 -87q94 0 170 19.5t107 31.5q45 16 66.5 26.5t31.5 10.5q16 0 11 -20 l-11 -53q-4 -18 -13 -27.5t-38 -24.5q-20 -10 -56 -23.5t-81 -24.5t-97.5 -18t-105.5 -7q-135 0 -223 38.5t-134 111.5t-52.5 176.5zM279 582q68 -29 143.5 -41.5t146.5 -12.5q152 0 236 62.5t108 179.5q51 238 -221 238q-154 0 -258 -113t-155 -313zM468 1503q-3 10 9 25 l51 65q8 10 19.5 12.5t36.5 -14.5l241 -143q16 -10 15.5 -18.5t-11.5 -22.5l-16 -25q-10 -12 -20.5 -14t-32.5 8l-266 107q-23 10 -26 20z" />
<glyph unicode="&#xe9;" horiz-adv-x="1073" d="M106.5 310.5q-6.5 103.5 20.5 232.5q29 129 80 234.5t125 180t168 115.5t207 41q203 0 287.5 -93t45.5 -267q-35 -150 -150.5 -240t-332.5 -90q-80 0 -159 12.5t-142 40.5q-33 -209 41 -296t235 -87q94 0 170 19.5t107 31.5q45 16 66.5 26.5t31.5 10.5q16 0 11 -20 l-11 -53q-4 -18 -13 -27.5t-38 -24.5q-20 -10 -56 -23.5t-81 -24.5t-97.5 -18t-105.5 -7q-135 0 -223 38.5t-134 111.5t-52.5 176.5zM279 582q68 -29 143.5 -41.5t146.5 -12.5q152 0 236 62.5t108 179.5q51 238 -221 238q-154 0 -258 -113t-155 -313zM674 1395q-4 12 1 20 t25 19l299 143q29 12 39.5 13t16.5 -11l26 -61q8 -14 2 -22.5t-30 -18.5l-322 -111q-29 -10 -37 -8t-12 14z" />
<glyph unicode="&#xea;" horiz-adv-x="1073" d="M106.5 310.5q-6.5 103.5 20.5 232.5q29 129 80 234.5t125 180t168 115.5t207 41q203 0 287.5 -93t45.5 -267q-35 -150 -150.5 -240t-332.5 -90q-80 0 -159 12.5t-142 40.5q-33 -209 41 -296t235 -87q94 0 170 19.5t107 31.5q45 16 66.5 26.5t31.5 10.5q16 0 11 -20 l-11 -53q-4 -18 -13 -27.5t-38 -24.5q-20 -10 -56 -23.5t-81 -24.5t-97.5 -18t-105.5 -7q-135 0 -223 38.5t-134 111.5t-52.5 176.5zM279 582q68 -29 143.5 -41.5t146.5 -12.5q152 0 236 62.5t108 179.5q51 238 -221 238q-154 0 -258 -113t-155 -313zM498 1347.5 q0 12.5 14 22.5l256 209q23 20 34 24.5t40 4.5t39 -4.5t26 -24.5l170 -209q6 -10 1 -22.5t-21 -12.5h-64q-16 0 -24 5.5t-25 21.5l-123 145l-182 -145q-20 -16 -32.5 -21.5t-28.5 -5.5h-64q-16 0 -16 12.5z" />
<glyph unicode="&#xeb;" horiz-adv-x="1073" d="M106.5 310.5q-6.5 103.5 20.5 232.5q29 129 80 234.5t125 180t168 115.5t207 41q203 0 287.5 -93t45.5 -267q-35 -150 -150.5 -240t-332.5 -90q-80 0 -159 12.5t-142 40.5q-33 -209 41 -296t235 -87q94 0 170 19.5t107 31.5q45 16 66.5 26.5t31.5 10.5q16 0 11 -20 l-11 -53q-4 -18 -13 -27.5t-38 -24.5q-20 -10 -56 -23.5t-81 -24.5t-97.5 -18t-105.5 -7q-135 0 -223 38.5t-134 111.5t-52.5 176.5zM279 582q68 -29 143.5 -41.5t146.5 -12.5q152 0 236 62.5t108 179.5q51 238 -221 238q-154 0 -258 -113t-155 -313zM551 1454q10 47 46 77 t75 30t61.5 -27t11.5 -74q-10 -45 -44.5 -72.5t-75.5 -27.5t-62.5 25.5t-11.5 68.5zM874 1454q10 47 47 77t76 30t61.5 -27t12.5 -74q-10 -45 -46 -72.5t-77 -27.5q-39 0 -61.5 25.5t-12.5 68.5z" />
<glyph unicode="&#xec;" horiz-adv-x="606" d="M-4 29l10 51q6 27 37 26h76q45 0 63.5 12.5t28.5 55.5l156 737q10 45 -15.5 53.5t-122.5 8.5q-31 0 -24 26l10 48q4 18 12.5 24t28.5 8l238 15q29 0 36 -13.5t0 -44.5l-182 -862q-10 -43 4.5 -55.5t59.5 -12.5h73q20 0 25.5 -5t1.5 -21l-12 -51q-6 -29 -37 -29h-443 q-31 0 -24 29zM226 1503q-3 10 10 25l51 65q8 10 19 12.5t36 -14.5l242 -143q16 -10 15 -18.5t-11 -22.5l-17 -25q-10 -12 -20 -14t-33 8l-266 107q-23 10 -26 20z" />
<glyph unicode="&#xed;" horiz-adv-x="606" d="M-4 29l10 51q6 27 37 26h76q45 0 63.5 12.5t28.5 55.5l156 737q10 45 -15.5 53.5t-122.5 8.5q-31 0 -24 26l10 48q4 18 12.5 24t28.5 8l238 15q29 0 36 -13.5t0 -44.5l-182 -862q-10 -43 4.5 -55.5t59.5 -12.5h73q20 0 25.5 -5t1.5 -21l-12 -51q-6 -29 -37 -29h-443 q-31 0 -24 29zM424 1395q-4 12 1 20t26 19l299 143q29 12 39 13t16 -11l26 -61q8 -14 2 -22.5t-30 -18.5l-322 -111q-29 -10 -37 -8t-12 14z" />
<glyph unicode="&#xee;" horiz-adv-x="606" d="M-4 29l10 51q6 27 37 26h76q45 0 63.5 12.5t28.5 55.5l156 737q10 45 -15.5 53.5t-122.5 8.5q-31 0 -24 26l10 48q4 18 12.5 24t28.5 8l238 15q29 0 36 -13.5t0 -44.5l-182 -862q-10 -43 4.5 -55.5t59.5 -12.5h73q20 0 25.5 -5t1.5 -21l-12 -51q-6 -29 -37 -29h-443 q-31 0 -24 29zM236 1347.5q0 12.5 14 22.5l256 209q23 20 34 24.5t40 4.5t39 -4.5t26 -24.5l170 -209q6 -10 1 -22.5t-21 -12.5h-64q-16 0 -24.5 5.5t-24.5 21.5l-123 145l-182 -145q-20 -16 -32.5 -21.5t-29.5 -5.5h-63q-16 0 -16 12.5z" />
<glyph unicode="&#xef;" horiz-adv-x="606" d="M-4 29l10 51q6 27 37 26h76q45 0 63.5 12.5t28.5 55.5l156 737q10 45 -15.5 53.5t-122.5 8.5q-31 0 -24 26l10 48q4 18 12.5 24t28.5 8l238 15q29 0 36 -13.5t0 -44.5l-182 -862q-10 -43 4.5 -55.5t59.5 -12.5h73q20 0 25.5 -5t1.5 -21l-12 -51q-6 -29 -37 -29h-443 q-31 0 -24 29zM291 1454q10 47 46 77t75 30t61.5 -27t11.5 -74q-10 -45 -44.5 -72.5t-75.5 -27.5t-62.5 25.5t-11.5 68.5zM614 1454q10 47 47 77t76 30t61.5 -27t12.5 -74q-10 -45 -46 -72.5t-77 -27.5q-39 0 -61.5 25.5t-12.5 68.5z" />
<glyph unicode="&#xf0;" horiz-adv-x="1191" d="M86 281q-10 86 8 174t66.5 173t121 150.5t169 105.5t211.5 40q63 0 121.5 -19.5t107.5 -50.5t84 -73t49 -89q35 250 -102 461l-289 -102q-37 -14 -52.5 -3t-19.5 35q-4 35 11.5 49.5t56.5 30.5l227 80q-41 49 -89 97.5t-108 97.5q-4 4 -10 11t-2 17q4 14 15 23l43 33 q14 10 20 13t16 3t17.5 -4t11.5 -8q66 -53 125 -110.5t106 -119.5l275 99q31 10 45 -2.5t16 -34.5q8 -29 -4 -45.5t-47 -30.5l-223 -78q72 -119 94.5 -266t-18.5 -346q-18 -82 -62.5 -187.5t-124.5 -200.5t-198.5 -161t-282.5 -66q-123 0 -204 41t-126 109t-55 154z M231 321.5q7 -63.5 37.5 -112.5t88 -80t143.5 -31q94 0 167.5 32t127 83t87 112.5t46.5 123.5q18 84 -3.5 150.5t-64.5 112.5t-99 70.5t-110 24.5q-82 0 -151.5 -31t-122.5 -81t-89 -113.5t-50 -130.5q-14 -66 -7 -129.5z" />
<glyph unicode="&#xf1;" horiz-adv-x="1261" d="M174 29l188 882q10 45 -14 53.5t-121 8.5q-31 0 -24 26l10 48q4 18 11 24t28 8l235 15q29 0 35 -13.5t0 -44.5l-28 -139q66 111 167 164t216 53q160 0 238.5 -88t39.5 -270l-121 -570q-18 -86 47 -86q27 0 43.5 4.5t32.5 8.5t23.5 1t3.5 -20l-10 -55q-6 -20 -23 -29 q-29 -10 -62.5 -14t-66.5 -4q-27 0 -55.5 6t-49 25.5t-28.5 54.5t4 90l119 563q29 125 -14.5 193.5t-166.5 68.5q-158 0 -261 -117.5t-148 -330.5l-111 -516q-4 -16 -10 -22.5t-25 -6.5h-75q-33 0 -27 29zM673 1373q-3 3 1 18q16 78 64 119.5t120 41.5q55 0 71.5 -20.5 t24.5 -40.5q6 -12 15.5 -21.5t38.5 -9.5q59 0 75 70q8 14 23 14h55q14 0 13 -18q-35 -164 -185 -164q-59 0 -79.5 17.5t-26.5 37.5q-4 14 -11.5 26.5t-35.5 12.5q-55 0 -76 -70q-4 -10 -7 -13t-14 -3h-53q-10 0 -13 3z" />
<glyph unicode="&#xf2;" horiz-adv-x="1163" d="M110.5 335.5q-6.5 108.5 20.5 233.5q25 115 70 214.5t116.5 173t171 115.5t230.5 42q137 0 225 -45t134 -125t52.5 -188.5t-20.5 -235.5q-25 -115 -71 -215t-118.5 -174t-173 -116t-231.5 -42q-135 0 -223 46.5t-132 127t-50.5 189zM250 357.5q0 -85.5 28.5 -146.5 t88 -96t153.5 -35q96 0 170 35t129 96t93 146t59 188q23 102 21.5 187t-31 146.5t-89 95.5t-155.5 34q-94 0 -168 -34t-129 -95.5t-91 -146.5t-59 -187q-20 -102 -20 -187.5zM468 1503q-3 10 9 25l51 65q8 10 19.5 12.5t36.5 -14.5l241 -143q16 -10 15.5 -18.5t-11.5 -22.5 l-16 -25q-10 -12 -20.5 -14t-32.5 8l-266 107q-23 10 -26 20z" />
<glyph unicode="&#xf3;" horiz-adv-x="1163" d="M110.5 335.5q-6.5 108.5 20.5 233.5q25 115 70 214.5t116.5 173t171 115.5t230.5 42q137 0 225 -45t134 -125t52.5 -188.5t-20.5 -235.5q-25 -115 -71 -215t-118.5 -174t-173 -116t-231.5 -42q-135 0 -223 46.5t-132 127t-50.5 189zM250 357.5q0 -85.5 28.5 -146.5 t88 -96t153.5 -35q96 0 170 35t129 96t93 146t59 188q23 102 21.5 187t-31 146.5t-89 95.5t-155.5 34q-94 0 -168 -34t-129 -95.5t-91 -146.5t-59 -187q-20 -102 -20 -187.5zM702 1395q-4 12 1.5 20t25.5 19l299 143q29 12 39 13t16 -11l27 -61q8 -14 2 -22.5t-31 -18.5 l-321 -111q-29 -10 -37 -8t-12 14z" />
<glyph unicode="&#xf4;" horiz-adv-x="1163" d="M110.5 335.5q-6.5 108.5 20.5 233.5q25 115 70 214.5t116.5 173t171 115.5t230.5 42q137 0 225 -45t134 -125t52.5 -188.5t-20.5 -235.5q-25 -115 -71 -215t-118.5 -174t-173 -116t-231.5 -42q-135 0 -223 46.5t-132 127t-50.5 189zM250 357.5q0 -85.5 28.5 -146.5 t88 -96t153.5 -35q96 0 170 35t129 96t93 146t59 188q23 102 21.5 187t-31 146.5t-89 95.5t-155.5 34q-94 0 -168 -34t-129 -95.5t-91 -146.5t-59 -187q-20 -102 -20 -187.5zM498 1347.5q0 12.5 14 22.5l256 209q23 20 34 24.5t40 4.5t39 -4.5t26 -24.5l170 -209 q6 -10 1 -22.5t-21 -12.5h-64q-16 0 -24 5.5t-25 21.5l-123 145l-182 -145q-20 -16 -32.5 -21.5t-28.5 -5.5h-64q-16 0 -16 12.5z" />
<glyph unicode="&#xf5;" horiz-adv-x="1163" d="M110.5 335.5q-6.5 108.5 20.5 233.5q25 115 70 214.5t116.5 173t171 115.5t230.5 42q137 0 225 -45t134 -125t52.5 -188.5t-20.5 -235.5q-25 -115 -71 -215t-118.5 -174t-173 -116t-231.5 -42q-135 0 -223 46.5t-132 127t-50.5 189zM250 357.5q0 -85.5 28.5 -146.5 t88 -96t153.5 -35q96 0 170 35t129 96t93 146t59 188q23 102 21.5 187t-31 146.5t-89 95.5t-155.5 34q-94 0 -168 -34t-129 -95.5t-91 -146.5t-59 -187q-20 -102 -20 -187.5zM568.5 1373q-3.5 3 0.5 18q16 78 64.5 119.5t120.5 41.5q55 0 71.5 -20.5t24.5 -40.5 q6 -12 15 -21.5t38 -9.5q59 0 76 70q8 14 22 14h56q14 0 12 -18q-35 -164 -184 -164q-59 0 -80 17.5t-27 37.5q-4 14 -11 26.5t-36 12.5q-55 0 -76 -70q-4 -10 -7 -13t-13 -3h-53q-10 0 -13.5 3z" />
<glyph unicode="&#xf6;" horiz-adv-x="1163" d="M110.5 335.5q-6.5 108.5 20.5 233.5q25 115 70 214.5t116.5 173t171 115.5t230.5 42q137 0 225 -45t134 -125t52.5 -188.5t-20.5 -235.5q-25 -115 -71 -215t-118.5 -174t-173 -116t-231.5 -42q-135 0 -223 46.5t-132 127t-50.5 189zM250 357.5q0 -85.5 28.5 -146.5 t88 -96t153.5 -35q96 0 170 35t129 96t93 146t59 188q23 102 21.5 187t-31 146.5t-89 95.5t-155.5 34q-94 0 -168 -34t-129 -95.5t-91 -146.5t-59 -187q-20 -102 -20 -187.5zM551 1454q10 47 46 77t75 30t61.5 -27t11.5 -74q-10 -45 -44.5 -72.5t-75.5 -27.5t-62.5 25.5 t-11.5 68.5zM874 1454q10 47 47 77t76 30t61.5 -27t12.5 -74q-10 -45 -46 -72.5t-77 -27.5q-39 0 -61.5 25.5t-12.5 68.5z" />
<glyph unicode="&#xf7;" horiz-adv-x="1161" d="M186 653l15 64q2 20 26 20h863q14 0 17 -5t1 -15l-14 -64q-2 -23 -27 -22h-862q-20 0 -19 22zM461 252q10 53 51 86t86 33q41 0 66.5 -29t15.5 -80q-12 -53 -52 -84t-85 -31t-68.5 29t-13.5 76zM639 1092q10 53 51 85.5t86 32.5q41 0 66.5 -28.5t15.5 -79.5 q-10 -53 -51 -84t-86 -31t-68.5 29t-13.5 76z" />
<glyph unicode="&#xf8;" horiz-adv-x="1163" d="M96.5 -172q-2.5 6 14.5 31l122 198q-94 78 -115.5 212t13.5 300q25 115 70 214.5t116.5 173t171 115.5t230.5 42q90 0 168 -22l121 190q14 23 20 29t21 2l84 -17q14 -4 12 -14t-15 -29l-137 -215q104 -76 129 -212t-12 -306q-25 -115 -71 -215t-118.5 -174t-173 -116 t-231.5 -42q-53 0 -96 7.5t-80 19.5l-113 -176q-10 -18 -17 -24.5t-22 -2.5l-77 21q-12 4 -14.5 10zM249.5 324.5q6.5 -97.5 53.5 -158.5l522 827q-25 6 -51 10.5t-57 4.5q-94 0 -168 -34t-129 -95.5t-91 -146.5t-59 -187q-27 -123 -20.5 -220.5zM401 98q47 -18 119 -18 q96 0 170 35t129 96t93.5 146.5t58.5 187.5q29 129 19.5 228t-64.5 159z" />
<glyph unicode="&#xf9;" d="M156 999l10 48q4 18 11 24t28 8l239 15q29 0 35 -13.5t0 -44.5l-145 -688q-12 -53 -11 -99t20 -80t59 -53.5t106 -19.5q160 0 266.5 103.5t145.5 289.5l92 435q4 35 -23.5 42t-116.5 7q-31 0 -24 26l10 48q4 18 11.5 24t27.5 8l240 15q29 0 36 -13.5t1 -44.5l-181 -850 q-18 -86 45 -86q27 0 43.5 4.5t32.5 8.5t23.5 1t3.5 -20l-11 -53q-6 -25 -34 -35q-29 -8 -51.5 -11t-65.5 -3q-27 0 -52.5 5t-46 21.5t-30.5 45t-4 75.5q-74 -80 -168 -118.5t-217 -38.5q-166 0 -236.5 84t-27.5 290l118 555q10 45 -15.5 53.5t-121.5 8.5q-29 0 -22 26z M445 1503q-3 10 10 25l51 65q8 10 19.5 12.5t35.5 -14.5l242 -143q16 -10 15 -18.5t-11 -22.5l-16 -25q-10 -12 -20.5 -14t-33.5 8l-266 107q-23 10 -26 20z" />
<glyph unicode="&#xfa;" d="M156 999l10 48q4 18 11 24t28 8l239 15q29 0 35 -13.5t0 -44.5l-145 -688q-12 -53 -11 -99t20 -80t59 -53.5t106 -19.5q160 0 266.5 103.5t145.5 289.5l92 435q4 35 -23.5 42t-116.5 7q-31 0 -24 26l10 48q4 18 11.5 24t27.5 8l240 15q29 0 36 -13.5t1 -44.5l-181 -850 q-18 -86 45 -86q27 0 43.5 4.5t32.5 8.5t23.5 1t3.5 -20l-11 -53q-6 -25 -34 -35q-29 -8 -51.5 -11t-65.5 -3q-27 0 -52.5 5t-46 21.5t-30.5 45t-4 75.5q-74 -80 -168 -118.5t-217 -38.5q-166 0 -236.5 84t-27.5 290l118 555q10 45 -15.5 53.5t-121.5 8.5q-29 0 -22 26z M680 1395q-4 12 1 20t26 19l299 143q29 12 39 13t16 -11l26 -61q8 -14 2 -22.5t-30 -18.5l-322 -111q-29 -10 -37 -8t-12 14z" />
<glyph unicode="&#xfb;" d="M156 999l10 48q4 18 11 24t28 8l239 15q29 0 35 -13.5t0 -44.5l-145 -688q-12 -53 -11 -99t20 -80t59 -53.5t106 -19.5q160 0 266.5 103.5t145.5 289.5l92 435q4 35 -23.5 42t-116.5 7q-31 0 -24 26l10 48q4 18 11.5 24t27.5 8l240 15q29 0 36 -13.5t1 -44.5l-181 -850 q-18 -86 45 -86q27 0 43.5 4.5t32.5 8.5t23.5 1t3.5 -20l-11 -53q-6 -25 -34 -35q-29 -8 -51.5 -11t-65.5 -3q-27 0 -52.5 5t-46 21.5t-30.5 45t-4 75.5q-74 -80 -168 -118.5t-217 -38.5q-166 0 -236.5 84t-27.5 290l118 555q10 45 -15.5 53.5t-121.5 8.5q-29 0 -22 26z M477.5 1347.5q-0.5 12.5 14.5 22.5l256 209q23 20 34 24.5t39 4.5q29 0 39 -4.5t27 -24.5l170 -209q6 -10 1 -22.5t-22 -12.5h-63q-16 0 -24.5 5.5t-24.5 21.5l-123 145l-183 -145q-20 -16 -32.5 -21.5t-28.5 -5.5h-63q-16 0 -16.5 12.5z" />
<glyph unicode="&#xfc;" d="M156 999l10 48q4 18 11 24t28 8l239 15q29 0 35 -13.5t0 -44.5l-145 -688q-12 -53 -11 -99t20 -80t59 -53.5t106 -19.5q160 0 266.5 103.5t145.5 289.5l92 435q4 35 -23.5 42t-116.5 7q-31 0 -24 26l10 48q4 18 11.5 24t27.5 8l240 15q29 0 36 -13.5t1 -44.5l-181 -850 q-18 -86 45 -86q27 0 43.5 4.5t32.5 8.5t23.5 1t3.5 -20l-11 -53q-6 -25 -34 -35q-29 -8 -51.5 -11t-65.5 -3q-27 0 -52.5 5t-46 21.5t-30.5 45t-4 75.5q-74 -80 -168 -118.5t-217 -38.5q-166 0 -236.5 84t-27.5 290l118 555q10 45 -15.5 53.5t-121.5 8.5q-29 0 -22 26z M528 1454q10 47 46 77t75 30t61.5 -27t12.5 -74q-10 -45 -45 -72.5t-76 -27.5t-62.5 25.5t-11.5 68.5zM852 1454q10 47 47 77t76 30t61.5 -27t12.5 -74q-10 -45 -46 -72.5t-77 -27.5q-39 0 -61.5 25.5t-12.5 68.5z" />
<glyph unicode="&#xfd;" d="M18 -238q10 43 43 72t72 29q35 0 58.5 -24.5t13.5 -71.5q-6 -31 -25.5 -53.5t-44.5 -32.5q29 -41 92.5 -60.5t147.5 -19.5q164 0 280.5 88t157.5 276l37 172q-76 -78 -169 -116.5t-216 -38.5q-166 0 -236.5 84t-27.5 290l118 555q10 45 -15 53.5t-122 8.5q-29 0 -22 26 l10 48q4 18 11 24t28 8l240 15q29 0 34.5 -13.5t-0.5 -44.5l-145 -688q-12 -53 -11 -99t20.5 -80t59 -53.5t105.5 -19.5q156 0 261.5 98.5t146.5 276.5l98 455q2 35 -26.5 41t-114.5 6q-31 0 -25 26l10 48q4 18 11.5 24t27.5 8l240 15q29 0 36 -13.5t1 -44.5l-226 -1056 q-27 -129 -82 -221.5t-133 -153t-176 -88t-213 -27.5q-70 0 -136.5 13.5t-115.5 45t-71.5 84t-6.5 129.5zM684 1395q-4 12 1 20t26 19l299 143q29 12 39 13t16 -11l27 -61q8 -14 1.5 -22.5t-30.5 -18.5l-322 -111q-29 -10 -37 -8t-12 14z" />
<glyph unicode="&#xfe;" horiz-adv-x="1185" d="M36.5 -314.5q-3.5 11.5 0.5 27.5l29 137h-3l318 1496h2l29 133q4 18 14 28.5t33 12.5h63q23 0 27 -11.5t0 -27.5l-39 -183h-4l-96 -450q82 143 198.5 203.5t243.5 60.5q406 0 285 -571q-121 -567 -578 -568q-109 0 -181.5 22.5t-133.5 57.5h-2l-33 -157h4l-39 -181 q-4 -18 -13 -28.5t-32 -12.5h-66q-23 0 -26.5 11.5zM274 176q41 -37 115 -63.5t164 -26.5q96 0 170 36t127 99.5t89 151.5t58 190q18 84 23.5 162t-14 139.5t-68.5 98t-139 36.5q-150 0 -262.5 -108.5t-182.5 -337.5z" />
<glyph unicode="&#xff;" d="M18 -238q10 43 43 72t72 29q35 0 58.5 -24.5t13.5 -71.5q-6 -31 -25.5 -53.5t-44.5 -32.5q29 -41 92.5 -60.5t147.5 -19.5q164 0 280.5 88t157.5 276l37 172q-76 -78 -169 -116.5t-216 -38.5q-166 0 -236.5 84t-27.5 290l118 555q10 45 -15 53.5t-122 8.5q-29 0 -22 26 l10 48q4 18 11 24t28 8l240 15q29 0 34.5 -13.5t-0.5 -44.5l-145 -688q-12 -53 -11 -99t20.5 -80t59 -53.5t105.5 -19.5q156 0 261.5 98.5t146.5 276.5l98 455q2 35 -26.5 41t-114.5 6q-31 0 -25 26l10 48q4 18 11.5 24t27.5 8l240 15q29 0 36 -13.5t1 -44.5l-226 -1056 q-27 -129 -82 -221.5t-133 -153t-176 -88t-213 -27.5q-70 0 -136.5 13.5t-115.5 45t-71.5 84t-6.5 129.5zM532 1454q10 47 46 77t75 30t61.5 -27t12.5 -74q-10 -45 -45 -72.5t-76 -27.5t-62.5 25.5t-11.5 68.5zM856 1454q10 47 47 77t76 30t61.5 -27t12.5 -74 q-10 -45 -46 -72.5t-77 -27.5q-39 0 -61.5 25.5t-12.5 68.5z" />
<glyph unicode="&#x152;" horiz-adv-x="2326" d="M148.5 471.5q-7.5 141.5 23.5 288.5q29 129 88 260t159.5 238.5t245 175t343.5 67.5q219 0 349 -74.5t189 -195.5l47 217q4 20 11.5 25.5t27.5 5.5h707q53 0 67.5 -13.5t1.5 -83.5l-28 -198q-4 -31 -9.5 -40t-27.5 -9h-45q-23 0 -28 7t-1 38l12 96q4 35 0 54.5t-20 28.5 t-47 11t-84 2h-412l-121 -569h267q16 0 33.5 11t27.5 46l21 80q4 20 12 25.5t31 5.5h36q23 0 27 -6.5t0 -24.5l-82 -385q-4 -16 -10 -23.5t-25 -7.5h-41q-23 0 -28.5 6.5t-1.5 24.5l12 80q6 35 -6 48t-29 13h-262q-4 -18 -9 -35.5t-11 -35.5l-109 -519h498q33 0 52 3.5 t31.5 10.5t20.5 22.5t16 39.5l60 191q10 16 18 22t31 6h39q35 0 22 -32l-94 -320q-10 -35 -24.5 -42t-42.5 -7h-760q-23 0 -26 4t1 27l37 180q-100 -104 -242.5 -171t-341.5 -67q-207 0 -334.5 68t-191 178.5t-71 252zM299 514.5q0 -115.5 43 -211.5t138 -157.5t261 -61.5 q168 0 289 62.5t203 158.5t130 211t71 217q23 106 22.5 222t-43.5 213.5t-138 160t-263 62.5q-162 0 -281 -60.5t-202 -155t-133 -210t-74 -226.5q-23 -109 -23 -224.5z" />
<glyph unicode="&#x153;" horiz-adv-x="1964" d="M110.5 335.5q-6.5 108.5 20.5 233.5q25 115 70 214.5t116.5 173t171 115.5t230.5 42q166 0 261 -66.5t130 -179.5q86 117 207 181.5t280 64.5q217 0 311.5 -101.5t55.5 -281.5q-33 -158 -163 -250t-371 -92q-195 0 -334 55q-10 -80 0 -146.5t46 -113.5t100.5 -72.5 t160.5 -25.5q51 0 103.5 6t97.5 19q35 10 76.5 23t68.5 24q23 6 18 -17l-12 -57q-4 -18 -11 -26.5t-34 -18.5q-78 -33 -157.5 -49.5t-174.5 -16.5q-176 0 -274 57.5t-133 159.5q-76 -100 -186.5 -158.5t-268.5 -58.5q-135 0 -223 46.5t-132 127t-50.5 189zM250 357.5 q0 -85.5 28.5 -146.5t88 -96t153.5 -35q96 0 170 35t129 96t93 146t59 188l4 16q18 98 16 181t-31.5 141.5t-89 91.5t-153.5 33t-168 -34t-129 -95.5t-91 -146.5t-59 -187q-20 -102 -20 -187.5zM1116 547q74 -27 156 -40t160 -13q180 0 276 62t123 185q29 125 -41 196 t-215 71q-176 0 -287.5 -112t-165.5 -304q-2 -10 -2 -22.5t-4 -22.5z" />
<glyph unicode="&#x178;" horiz-adv-x="1273" d="M229 1405l11 45q4 18 11 23.5t23 5.5h381q18 0 23.5 -5.5t1.5 -23.5l-8 -43q-4 -20 -11.5 -27.5t-27.5 -7.5h-53q-35 0 -46.5 -10t5.5 -51l174 -594l448 596q29 41 24 50t-38 9h-53q-20 0 -23.5 8.5t0.5 28.5l8 41q4 18 12.5 23.5t24.5 5.5h359q16 0 20 -7.5t0 -21.5 l-8 -43q-4 -20 -11.5 -27.5t-27.5 -7.5h-57q-14 0 -23.5 -1t-21 -9t-24.5 -22.5t-36 -43.5l-520 -667l-96 -455q-8 -43 6 -55.5t55 -12.5h70q20 0 24 -5t0 -21l-10 -49q-4 -14 -11 -22.5t-26 -8.5h-428q-20 0 -26.5 6t-1.5 23l12 49q4 16 11 22t28 6h67q39 0 57.5 13.5 t30.5 56.5l88 420l-223 692q-16 51 -30.5 66.5t-49.5 15.5h-57q-20 0 -25.5 7t-1.5 28zM684 1726q10 47 46 77t75 30t60.5 -26.5t11.5 -73.5q-10 -45 -45 -73t-76 -28t-61.5 25.5t-10.5 68.5zM1008 1726q10 47 47 77t75 30q39 0 60.5 -26.5t11.5 -73.5q-10 -45 -46 -73 t-77 -28q-39 0 -60 25.5t-11 68.5z" />
<glyph unicode="&#x2c6;" horiz-adv-x="737" d="M219.5 1392.5q-0.5 12.5 11.5 22.5l258 209q23 20 34.5 24.5t39.5 4.5q29 0 39 -4t27 -25l168 -209q8 -10 3 -22.5t-22 -12.5h-63q-16 0 -25.5 5.5t-23.5 21.5l-123 145l-183 -145q-23 -16 -34 -21.5t-27 -5.5h-63q-16 0 -16.5 12.5z" />
<glyph unicode="&#x2dc;" horiz-adv-x="700" d="M313.5 1418q-2.5 3 1.5 18q16 78 63.5 119.5t119.5 41.5q55 0 72.5 -20.5t25.5 -40.5q4 -12 14 -21.5t39 -9.5q57 0 76 70q8 14 20 14h56q16 0 14 -18q-37 -164 -184 -164q-59 0 -80 17.5t-29 37.5q-4 14 -11 26.5t-36 12.5q-53 0 -74 -69q-6 -16 -22 -17h-53 q-10 0 -12.5 3z" />
<glyph unicode="&#x2000;" horiz-adv-x="976" />
<glyph unicode="&#x2001;" horiz-adv-x="1952" />
<glyph unicode="&#x2002;" horiz-adv-x="976" />
<glyph unicode="&#x2003;" horiz-adv-x="1952" />
<glyph unicode="&#x2004;" horiz-adv-x="650" />
<glyph unicode="&#x2005;" horiz-adv-x="488" />
<glyph unicode="&#x2006;" horiz-adv-x="325" />
<glyph unicode="&#x2007;" horiz-adv-x="325" />
<glyph unicode="&#x2008;" horiz-adv-x="244" />
<glyph unicode="&#x2009;" horiz-adv-x="390" />
<glyph unicode="&#x200a;" horiz-adv-x="108" />
<glyph unicode="&#x2010;" horiz-adv-x="843" d="M184 618l9 46q4 18 11 24t27 6h527q20 0 22 -7t-2 -23l-8 -46q-4 -18 -11 -24t-24 -6h-526q-18 0 -23.5 6t-1.5 24z" />
<glyph unicode="&#x2011;" horiz-adv-x="843" d="M184 618l9 46q4 18 11 24t27 6h527q20 0 22 -7t-2 -23l-8 -46q-4 -18 -11 -24t-24 -6h-526q-18 0 -23.5 6t-1.5 24z" />
<glyph unicode="&#x2012;" horiz-adv-x="843" d="M184 618l9 46q4 18 11 24t27 6h527q20 0 22 -7t-2 -23l-8 -46q-4 -18 -11 -24t-24 -6h-526q-18 0 -23.5 6t-1.5 24z" />
<glyph unicode="&#x2013;" horiz-adv-x="1067" d="M182 610l13 64q6 20 28 20h764q23 0 17 -20l-13 -64q-6 -23 -26 -22h-764q-25 0 -19 22z" />
<glyph unicode="&#x2014;" horiz-adv-x="1724" d="M182 610l13 64q6 20 28 20h1424q20 0 14 -20l-12 -64q-6 -23 -27 -22h-1421q-25 0 -19 22z" />
<glyph unicode="&#x2018;" horiz-adv-x="448" d="M270 1145q10 43 35 87t59.5 85t76.5 78t85 69q16 10 24.5 12.5t18.5 -10.5l11 -14q14 -16 -17 -37q-43 -31 -85 -79t-62 -91q41 -2 61 -30.5t10 -75.5q-10 -51 -50 -85t-89 -34q-43 0 -66.5 31.5t-11.5 93.5z" />
<glyph unicode="&#x2019;" horiz-adv-x="448" d="M264 1051q-14 16 15 36q45 31 87 79t62 91q-41 2 -61.5 31t-10.5 76q10 51 49 85t89 34q43 0 67.5 -32t9.5 -93q-18 -88 -93 -171t-163 -149q-29 -23 -41 -2z" />
<glyph unicode="&#x201a;" horiz-adv-x="524" d="M6 -227q-14 16 17 37q43 31 85 79t62 91q-41 2 -61.5 30.5t-10.5 75.5q10 51 50 85t90 34q43 0 66.5 -32t10.5 -93q-18 -88 -93 -171t-163 -149q-16 -10 -24 -12t-19 10z" />
<glyph unicode="&#x201c;" horiz-adv-x="755" d="M270 1145q10 43 35 87t59.5 85t76.5 78t85 69q16 10 24.5 12.5t18.5 -10.5l11 -14q14 -16 -17 -37q-43 -31 -85 -79t-62 -91q41 -2 61 -30.5t10 -75.5q-10 -51 -50 -85t-89 -34q-43 0 -66.5 31.5t-11.5 93.5zM580 1145q10 43 34.5 87t59.5 85t77 78t85 69q16 10 24 12.5 t19 -10.5l10 -14q14 -16 -17 -37q-43 -31 -85 -79t-62 -91q41 -2 61.5 -30.5t10.5 -75.5q-10 -51 -50 -85t-90 -34q-43 0 -66.5 31.5t-10.5 93.5z" />
<glyph unicode="&#x201d;" horiz-adv-x="757" d="M264 1051q-14 16 15 36q45 31 87 79t62 91q-41 2 -61.5 31t-10.5 76q10 51 49 85t89 34q43 0 67.5 -32t9.5 -93q-18 -88 -93 -171t-163 -149q-29 -23 -41 -2zM569 1051q-14 16 15 36q45 31 87 79t62 91q-41 2 -61 31t-10 76q10 51 49 85t88 34q43 0 67.5 -32t10.5 -93 q-18 -88 -93 -171t-163 -149q-29 -23 -41 -2z" />
<glyph unicode="&#x201e;" horiz-adv-x="860" d="M6 -227q-14 16 17 37q43 31 85 79t62 91q-41 2 -61.5 30.5t-10.5 75.5q10 51 50 85t90 34q43 0 66.5 -32t10.5 -93q-18 -88 -93 -171t-163 -149q-16 -10 -24 -12t-19 10zM342 -227q-14 16 16 37q43 31 85 79t63 91q-41 2 -61.5 30.5t-10.5 75.5q10 51 50 85t89 34 q43 0 67 -32t11 -93q-18 -88 -93 -171t-163 -149q-16 -10 -24.5 -12t-18.5 10z" />
<glyph unicode="&#x2022;" horiz-adv-x="620" d="M248 729q16 70 70.5 114t111.5 44q55 0 86 -40t14 -108q-14 -70 -69 -114.5t-111 -44.5q-55 0 -85.5 39.5t-16.5 109.5z" />
<glyph unicode="&#x2026;" horiz-adv-x="1650" d="M63 86q10 51 52.5 85t87.5 34q41 0 66.5 -29t13.5 -82q-10 -53 -51.5 -83.5t-86.5 -30.5t-68.5 28.5t-13.5 77.5zM657 86q10 51 52.5 85t87.5 34q41 0 66.5 -29t13.5 -82q-10 -53 -51.5 -83.5t-86.5 -30.5t-68.5 28.5t-13.5 77.5zM1251 86q10 51 52.5 85t87.5 34 q41 0 66.5 -29t12.5 -82q-10 -53 -51 -83.5t-86 -30.5t-68.5 28.5t-13.5 77.5z" />
<glyph unicode="&#x202f;" horiz-adv-x="390" />
<glyph unicode="&#x2039;" horiz-adv-x="905" d="M102 567q8 35 24.5 54.5t63.5 48.5l621 391q16 10 30.5 14t24.5 4h64q14 0 24.5 -7t6.5 -23t-17.5 -27.5t-30.5 -22.5l-688 -432l506 -432q10 -10 19.5 -21.5t5.5 -27.5t-16.5 -23.5t-28.5 -7.5h-64q-23 0 -47 19l-453 391q-35 29 -43 48t-2 54z" />
<glyph unicode="&#x203a;" horiz-adv-x="905" d="M37 86q4 16 18.5 27.5t30.5 21.5l686 432l-504 432q-10 10 -20 21.5t-6 28.5q4 16 18 23t29 7h63q23 0 47 -18l453 -391q35 -29 43 -48.5t0 -54.5q-6 -35 -22.5 -54t-63.5 -48l-621 -391q-16 -10 -30.5 -14.5t-24.5 -4.5h-63q-16 0 -26.5 7.5t-6.5 23.5z" />
<glyph unicode="&#x205f;" horiz-adv-x="488" />
<glyph unicode="&#x20ac;" horiz-adv-x="1607" d="M104 520q8 35 24.5 43t45.5 8h162q2 35 6 74t14 80h-166q-27 0 -30.5 19.5t0.5 35.5q8 35 24.5 43t44.5 8h154q43 145 120 268.5t184.5 211.5t243.5 137t296 49q135 0 223 -32.5t137 -84t62.5 -116t1.5 -125.5q-12 -53 -51 -80t-84 -27q-43 0 -68.5 27t-15.5 78 q10 43 40.5 70.5t67.5 33.5q-29 61 -106.5 103t-216.5 42q-135 0 -246 -43t-195 -118.5t-144.5 -177t-96.5 -216.5h632q29 0 30 -20t-3 -35q-4 -23 -16.5 -37t-40.5 -14h-631l-4 -12q-14 -74 -19 -142h498q27 0 29 -19.5t-2 -33.5q-4 -23 -16.5 -37t-41.5 -14h-469 q6 -84 37 -152.5t87.5 -118t142.5 -76t204 -26.5q86 0 158 11.5t130 28t101 34.5t74 31q31 14 45.5 14t5.5 -33l-10 -53q-4 -12 -10 -22.5t-31 -22.5q-27 -14 -74 -32.5t-109.5 -34t-141 -27t-168.5 -11.5q-260 0 -418 120t-170 370h-199q-27 0 -30 19.5t-1 33.5z" />
<glyph unicode="&#x2122;" horiz-adv-x="1916" d="M232.5 1266q-1.5 4 3.5 18l43 158q8 27 15 32t28 5h602q20 0 25 -5.5t1 -29.5l-20 -160q-4 -12 -8 -17t-21 -5h-43q-14 0 -17 4t-1 16l6 76q4 27 -10.5 30t-61.5 3h-112l-144 -676q-4 -27 6.5 -34t34.5 -7h35q14 0 17 -3t1 -16l-10 -41q-2 -23 -24 -22h-283q-20 0 -16 20 l10 43q2 10 5 14.5t17 4.5h33q27 0 40 10t22 45l141 662h-121q-41 0 -55.5 -4.5t-24.5 -32.5l-20 -72q-6 -14 -12.5 -17t-20.5 -3h-43q-16 0 -17.5 4zM825 612l11 43q2 12 6 15.5t18 3.5h35q29 0 42 7t17 32l138 641q4 33 -9.5 38t-35.5 7l-21 2q-18 0 -16 18l8 39 q4 14 8 17.5t16 3.5h205q14 0 18.5 -7.5t6.5 -19.5l119 -768v-2l438 776q8 12 15 16.5t26 4.5h184q12 0 16.5 -3t0.5 -18l-9 -35q-4 -25 -24 -24l-51 -2q-10 0 -23.5 -6.5t-19.5 -28.5l-136 -639q-8 -31 -3 -40t32 -9h45q29 0 23 -23l-9 -39q-4 -14 -10 -17t-20 -3h-279 q-10 0 -15 3t-1 17l8 39q6 23 25 23h45q23 0 34 10t19 39l119 559l-379 -676q-6 -10 -11.5 -14t-25.5 -4h-90q-23 0 -31 16l-108 694l-125 -585q-4 -27 5 -33t38 -6h36q23 0 21 -17l-10 -45q-4 -14 -9.5 -17t-17.5 -3h-270q-12 0 -17.5 3t-1.5 17z" />
<glyph unicode="&#x25fc;" horiz-adv-x="1075" d="M0 0v1075h1075v-1075h-1075z" />
</font>
</defs>
</svg>
